<?xml version="1.0" encoding="utf-8"?>
<!-- Generator: Adobe Illustrator 16.0.0, SVG Export Plug-In . SVG Version: 6.00 Build 0)  -->
<!DOCTYPE svg PUBLIC "-//W3C//DTD SVG 1.1//EN" "http://www.w3.org/Graphics/SVG/1.1/DTD/svg11.dtd">
<svg version="1.1" id="Layer_1" xmlns="http://www.w3.org/2000/svg" xmlns:xlink="http://www.w3.org/1999/xlink" x="0px" y="0px"
	 width="377px" height="171px" viewBox="207.5 223.5 377 171" enable-background="new 207.5 223.5 377 171" xml:space="preserve">
<g>
	<path fill="#231F20" d="M280.028,263.386c0.621-1.229,2.156-4.629,3.135-6.899c0.979-2.271,1.053-3.519,1.048-4.15
		c-0.006-0.812,0.001-2.502-1.697-3.969c-2.417-1.794-5.019-4.091-7.555-4.945c-2.454-0.827-5.64-0.677-5.843,1.071
		c-0.178,1.537,0.918,2.667-0.346,5.681l-4.064,9.14c-0.449,0.981-0.681,1.501-0.923,2.016
		c-5.129,10.854-10.146,21.764-15.417,32.549c-8.283,16.946-16.72,33.815-25.137,50.697c-1.165,2.335-1.263,4.594-0.079,6.864
		c1.152,1.938,3.829,4.035,7.529,5.468c3.319,1.284,4.512,0.937,5.706,0.204c1.043-0.641,0.775-1.836,0.75-2.793
		c-0.026-0.869,1.268-3.709,2.22-5.842C252.174,319.761,265.834,291.447,280.028,263.386z"/>
	<path fill="#231F20" d="M309.973,270.872h85.213c1.491-5.507,2.525-10.611,4.281-15.454c1.744-4.809,4.213-9.354,5.811-14.407
		c-4.679,6.145-9.303,12.329-14.077,18.395c-0.938,1.188-2.222,3.379-3.724,2.844c-1.501-0.536-2.445-2.505-2.677-3.919
		c-0.792-4.875-1.228-9.816-1.608-14.747c-0.209-2.702-0.037-5.433-0.037-9.051c-1.576,4.676-2.539,8.674-4.254,12.317
		c-1.792,3.806-3.932,7.585-6.607,10.801c-3.211,3.858-6.952,3.841-9.767-0.273c-2.808-4.1-4.982-8.787-6.598-13.503
		c-1.666-4.87-2.319-10.086-3.349-14.831c-1.028,4.744-1.683,9.96-3.349,14.831c-1.613,4.716-3.791,9.403-6.598,13.503
		c-2.813,4.115-6.556,4.131-9.767,0.273c-2.677-3.216-4.814-6.996-6.607-10.801c-1.716-3.643-2.679-7.641-4.254-12.317
		c0,3.619,0.172,6.35-0.038,9.051c-0.381,4.931-0.815,9.872-1.607,14.747c-0.229,1.414-1.178,3.384-2.679,3.919
		c-1.502,0.535-2.784-1.656-3.721-2.844c-4.777-6.064-9.4-12.25-14.078-18.394c1.595,5.053,4.065,9.599,5.808,14.407
		C307.448,260.261,308.483,265.365,309.973,270.872z"/>
	<polygon fill="#231F20" points="393.572,278.44 394.396,274.652 310.241,275.259 310.644,278.44 	"/>
	<path fill="#231F20" d="M383.494,291.389c-6.598,0-16.437,14.754-26.032,27.589c-0.348,0.465-0.724,0.676-0.979,0.676
		c-0.188,0-0.308-0.111-0.308-0.319c0-0.099,0.026-0.217,0.086-0.354c3.837-8.758,8.519-16.555,10.196-18.953
		c0.523-0.743,0.752-1.554,0.752-2.382c0-3.833-4.891-8.078-8.159-8.078c-1.049,0-1.929,0.437-2.43,1.462
		c-2.694,5.593-7.459,15.664-12.754,26.912c-6.132,10.151-16.592,26.711-20.316,26.711c-0.239,0-0.959-0.117-0.959-1.317
		c0-4.438,9.838-24.592,17.274-36.588c0.959-1.558,1.68-3.238,1.68-4.198c0-5.399-4.438-10.437-8.277-10.437
		c-5.519,0-13.676,10.196-24.711,24.592c-0.399,0.571-0.854,0.871-1.145,0.871c-0.176,0-0.291-0.113-0.291-0.345
		c0-0.184,0.07-0.438,0.236-0.77c3.357-6.117,6.116-11.875,6.116-14.996c0-3.958-2.759-9.355-6.478-9.355
		c-6.238,0-17.995,15.955-29.03,31.189c-0.377,0.518-0.735,0.76-0.973,0.76c-0.18,0-0.292-0.138-0.292-0.396
		c0-0.272,0.125-0.56,0.423-1.203c3.48-7.799,8.158-16.556,10.556-20.154c0.48-0.728,0.691-1.512,0.691-2.312
		c0-3.778-4.7-7.887-7.935-7.887c-1.047,0-1.941,0.43-2.471,1.441c-5.158,9.958-20.752,44.863-23.153,51.103
		c-0.415,1.078-0.598,2.107-0.598,3.078c0,4.709,4.302,7.974,7.184,7.974c1.156,0,2.081-0.525,2.411-1.692
		c7.076-13.556,29.149-43.187,36.828-51.223c0.195-0.205,0.39-0.295,0.553-0.295c0.23,0,0.394,0.177,0.394,0.45
		c0,0.12-0.033,0.271-0.107,0.446c-6.599,13.436-19.075,37.426-21.354,41.267c-0.546,0.915-0.787,1.862-0.787,2.799
		c0,3.972,4.346,7.705,8.064,7.705c1.94,0,3.708-1.019,4.599-3.55c7.198-15.834,25.792-39.942,33.348-48.461
		c0.265-0.273,0.515-0.379,0.723-0.375c0.306,0.003,0.513,0.245,0.513,0.528c0,0.135-0.047,0.288-0.153,0.448
		c-6.958,11.035-16.915,30.828-16.915,40.786c0,7.797,5.278,11.273,8.759,11.273l0,0c3.354,0,7.141-2.681,10.948-6.646
		c-5.165,11.049-9.468,20.301-11.229,24.157c-0.409,0.904-0.591,1.781-0.591,2.621c0,4.504,5.233,7.871,8.641,7.871v0.004
		c1.353,0,2.416-0.531,2.747-1.736c1.079-4.078,9.956-24.109,10.677-25.55l4.917-9.839c0.109-0.229,0.271-0.396,0.42-0.396
		c0.184,0.004,0.318,0.164,0.421,0.515c1.079,3.601,3.479,8.998,10.316,8.998c16.194,0,37.546-30.109,37.546-50.624
		C393.089,294.508,386.013,291.389,383.494,291.389z M351.344,344.65L351.344,344.65c-1.438,0-2.878-0.48-3.958-1.319
		c-0.121-0.124-0.18-0.274-0.18-0.453s0.06-0.388,0.18-0.626c10.676-17.152,30.948-42.705,33.471-42.705c0.236,0,0.839,0,0.839,1.68
		C381.694,310.344,363.46,344.65,351.344,344.65z"/>
	<path fill="#231F20" d="M507.804,285.152c5.278,0,10.795-8.518,10.795-14.395c0-3.479-1.679-6.119-6.355-6.119
		c-6.357,0-11.036,6.597-11.036,12.476C501.205,281.266,504.323,285.152,507.804,285.152z"/>
	<path fill="#231F20" d="M566.4,310.223c-0.119,0-0.359,0-0.602,0.36c-2.276,3.718-19.673,34.067-24.229,34.067
		c-0.604,0-1.082-0.36-1.082-1.319c0-5.158,14.396-32.511,19.556-40.306c0.68-1.059,0.974-2.165,0.974-3.257
		c0-4.366-4.687-8.51-8.063-8.51c-1.142,0-2.134,0.473-2.747,1.57l-3.119,5.758c-0.151,0.241-0.306,0.346-0.452,0.346
		c-0.209,0-0.37-0.15-0.507-0.346c-2.52-3.598-7.798-7.076-12.716-7.076c-9.9,0-20.791,13.493-27.352,28.008
		c-6.183,10.2-15.69,25.133-18.893,25.133c-0.839,0-1.2-0.721-1.2-1.799c0-7.677,15.955-36.708,19.194-40.427
		c0.6-0.721,0.84-1.438,0.84-2.28c0-3.118-6.118-7.797-9.837-7.797c-1.079,0-2.039,0.48-2.521,1.439
		c-0.883,1.764-6.049,11.779-11.151,22.531c-6.428,10.531-17.671,28.332-23.25,28.332c-0.96,0-1.319-0.602-1.319-1.562
		c0-5.276,12.235-23.03,16.437-29.987c1.438-2.281,2.039-4.318,2.039-6.119c0-5.998-8.037-9.356-15.235-11.755
		c-0.387-0.077-0.572-0.253-0.563-0.498c0.009-0.136,0.075-0.292,0.202-0.461c2.4-3.959,3.24-6.839,3.24-8.877
		c0-2.519-1.438-3.72-3.599-3.72c-4.561,0-11.638,5.278-11.638,13.436c0,1.44,0.238,2.399,0.721,3.24
		c0.064,0.168,0.099,0.332,0.099,0.487c0,0.175-0.037,0.338-0.101,0.473c-4.906,9.818-7.953,15.22-10.396,19.406
		c-2.952,4.706-5.904,8.867-8.854,12.623c-7.316,9.236-15.834,14.755-21.232,14.755c-4.438,0-5.519-3.358-5.519-6.718
		c0-2.878,0.841-6.598,2.04-10.076c0.119-0.357,0.29-0.479,0.67-0.479c0.464,0,1.648,0.412,3.817,0.412
		c12.192,0,26.343-12.769,26.343-24.833c0-7.929-7.604-12.889-13.559-12.889c-14.817,0-32.274,30.128-32.274,47.243
		c0,10.46,6.403,17.057,15.122,17.057c12.233,0,23.991-12.236,31.31-23.395c2.038-3.085,4.122-6.441,5.737-9.313
		c0.014-0.02,0.068-0.023,0.079-0.045c1.681-2.76,5.157-8.638,11.875-20.874c0.24-0.481,0.603-0.721,0.961-0.721
		c1.921,0,6.719,0.48,6.719,3.36c0,6.237-17.994,26.75-17.994,39.708c0,5.758,3.599,11.275,9.355,11.275
		c6.134,0,13.103-6.641,19.289-14.615c-0.145,1.07-0.24,2.109-0.24,3.101c0,6.354,3.959,11.516,9.115,11.516
		c5.456,0,12.245-7.561,18.352-16.354c-0.108,1.106-0.185,2.19-0.185,3.217c0,7.743,3.233,13.137,9.122,13.137
		c6.838,0,12.835-8.517,18.953-17.872c0.233-0.353,0.468-0.535,0.618-0.533c0.109,0,0.165,0.08,0.165,0.281
		c0,0.079-0.023,0.195-0.063,0.369c-0.599,2.521-0.839,4.917-0.839,7.197c0,6.238,3.721,10.559,8.277,10.559
		c11.756,0,29.749-35.027,33.587-42.106c0.121-0.24,0.121-0.359,0.121-0.479C570,312.021,567.841,310.223,566.4,310.223z
		 M408.923,321.259c5.398-10.795,13.195-20.873,17.396-20.873c0.913,0,1.315,0.639,1.315,1.701c0,5.231-9.833,20.731-17.512,20.731
		c-1.112,0-1.399-0.414-1.399-0.842C408.723,321.713,408.831,321.441,408.923,321.259z M514.099,344.65L514.099,344.65
		c-0.599,0-1.079-0.479-1.079-1.918c0-8.278,14.875-41.505,24.831-41.505c2.279,0,4.198,1.678,5.277,3.118
		c0.137,0.206,0.195,0.37,0.2,0.54c0.002,0.174-0.026,0.306-0.079,0.42C535.451,318.619,518.298,344.65,514.099,344.65z"/>
</g>
</svg>
