<?xml version="1.0" encoding="utf-8"?>
<!-- Generator: Adobe Illustrator 16.0.0, SVG Export Plug-In . SVG Version: 6.00 Build 0)  -->
<!DOCTYPE svg PUBLIC "-//W3C//DTD SVG 1.1//EN" "http://www.w3.org/Graphics/SVG/1.1/DTD/svg11.dtd">
<svg version="1.1" id="Layer_1" xmlns="http://www.w3.org/2000/svg" xmlns:xlink="http://www.w3.org/1999/xlink" x="0px" y="0px"
	 width="378px" height="178px" viewBox="200.5 214.5 378 178" enable-background="new 200.5 214.5 378 178" xml:space="preserve">
<g>
	<path fill="#231F20" d="M382.864,261.01c1.424-5.261,2.413-10.139,4.09-14.766c1.666-4.595,4.023-8.938,5.55-13.766
		c-4.469,5.87-8.887,11.779-13.451,17.574c-0.894,1.135-2.121,3.229-3.556,2.717c-1.435-0.511-2.338-2.394-2.558-3.745
		c-0.758-4.658-1.175-9.379-1.538-14.09c-0.2-2.582-0.036-5.191-0.036-8.649c-1.505,4.469-2.426,8.288-4.065,11.769
		c-1.712,3.636-3.755,7.247-6.313,10.32c-3.068,3.686-6.644,3.67-9.332-0.261c-2.683-3.917-4.763-8.396-6.304-12.902
		c-1.591-4.653-2.218-9.637-3.198-14.17c-0.982,4.533-1.608,9.517-3.2,14.17c-1.542,4.506-3.622,8.984-6.302,12.902
		c-2.69,3.932-6.266,3.947-9.332,0.261c-2.56-3.073-4.602-6.685-6.313-10.32c-1.639-3.481-2.56-7.3-4.063-11.769
		c0,3.458,0.164,6.067-0.036,8.649c-0.365,4.711-0.781,9.432-1.538,14.09c-0.219,1.351-1.123,3.233-2.56,3.745
		c-1.435,0.512-2.659-1.582-3.555-2.717c-4.564-5.795-8.982-11.705-13.451-17.574c1.524,4.828,3.884,9.171,5.55,13.766
		c1.678,4.627,2.666,9.505,4.09,14.766H382.864z"/>
	<g>
		<path fill="#231F20" d="M365.48,372.797h1.283v4.998h0.028c0.229-0.354,0.557-0.631,0.986-0.836
			c0.428-0.204,0.885-0.307,1.371-0.307c0.521,0,0.997,0.091,1.421,0.271c0.424,0.181,0.786,0.431,1.085,0.75
			c0.3,0.318,0.53,0.694,0.69,1.128c0.162,0.434,0.243,0.902,0.243,1.406c0,0.505-0.081,0.972-0.243,1.398
			c-0.162,0.43-0.393,0.806-0.69,1.129c-0.3,0.324-0.662,0.576-1.085,0.758c-0.423,0.181-0.897,0.271-1.421,0.271
			c-0.457,0-0.902-0.101-1.335-0.301c-0.436-0.199-0.774-0.48-1.021-0.842h-0.028v0.971h-1.283L365.48,372.797L365.48,372.797z
			 M368.993,382.564c0.343,0,0.65-0.062,0.929-0.181c0.276-0.116,0.509-0.278,0.7-0.483c0.19-0.205,0.337-0.452,0.442-0.742
			c0.104-0.291,0.155-0.607,0.155-0.95s-0.052-0.659-0.155-0.949c-0.105-0.29-0.254-0.538-0.442-0.743
			c-0.191-0.203-0.424-0.365-0.7-0.484c-0.274-0.118-0.586-0.18-0.929-0.18c-0.342,0-0.652,0.062-0.928,0.18
			c-0.276,0.119-0.511,0.281-0.7,0.484c-0.19,0.205-0.338,0.453-0.442,0.743c-0.104,0.29-0.157,0.606-0.157,0.949
			s0.054,0.659,0.157,0.95c0.104,0.29,0.252,0.537,0.442,0.742c0.188,0.205,0.424,0.367,0.7,0.483
			C368.341,382.505,368.65,382.564,368.993,382.564z"/>
		<path fill="#231F20" d="M374.12,376.824h1.485l2.004,5.283h0.027l1.922-5.283h1.371l-3.213,8.226
			c-0.114,0.296-0.23,0.563-0.354,0.808c-0.124,0.242-0.271,0.449-0.441,0.621c-0.17,0.17-0.377,0.306-0.619,0.398
			c-0.242,0.096-0.538,0.145-0.889,0.145c-0.19,0-0.382-0.014-0.576-0.037c-0.194-0.021-0.382-0.072-0.562-0.147l0.154-1.172
			c0.255,0.104,0.513,0.157,0.768,0.157c0.197,0,0.364-0.026,0.503-0.078c0.137-0.055,0.255-0.129,0.354-0.229
			c0.1-0.101,0.184-0.218,0.248-0.351c0.066-0.134,0.132-0.286,0.199-0.457l0.416-1.069L374.12,376.824z"/>
		<path fill="#231F20" d="M394.827,375.667c-0.285-0.371-0.648-0.657-1.086-0.856c-0.438-0.199-0.892-0.299-1.356-0.299
			c-0.569,0-1.088,0.105-1.549,0.32c-0.462,0.214-0.857,0.507-1.186,0.878c-0.329,0.371-0.583,0.808-0.766,1.308
			c-0.181,0.5-0.271,1.035-0.271,1.605c0,0.533,0.085,1.038,0.257,1.514c0.171,0.479,0.419,0.896,0.743,1.258
			c0.323,0.362,0.719,0.646,1.186,0.855c0.466,0.21,0.995,0.314,1.585,0.314c0.581,0,1.09-0.119,1.528-0.356
			c0.438-0.237,0.809-0.571,1.114-1l1.154,0.871c-0.074,0.104-0.209,0.255-0.396,0.45c-0.191,0.193-0.443,0.39-0.758,0.585
			c-0.315,0.194-0.692,0.366-1.137,0.515c-0.44,0.146-0.953,0.221-1.533,0.221c-0.801,0-1.521-0.15-2.163-0.457
			c-0.645-0.305-1.19-0.703-1.645-1.199c-0.453-0.493-0.797-1.055-1.035-1.678c-0.236-0.623-0.355-1.254-0.355-1.893
			c0-0.779,0.128-1.502,0.385-2.163c0.257-0.662,0.616-1.233,1.078-1.714s1.016-0.854,1.664-1.121c0.646-0.268,1.361-0.4,2.142-0.4
			c0.666,0,1.321,0.129,1.964,0.388c0.645,0.257,1.168,0.651,1.578,1.186L394.827,375.667z"/>
		<path fill="#231F20" d="M403.194,383.85c-0.771,0-1.48-0.136-2.128-0.406s-1.201-0.646-1.663-1.119
			c-0.462-0.479-0.824-1.038-1.086-1.688c-0.264-0.648-0.395-1.347-0.395-2.1c0-0.752,0.131-1.451,0.395-2.1
			c0.262-0.647,0.624-1.209,1.086-1.687s1.016-0.851,1.663-1.121c0.646-0.271,1.355-0.405,2.128-0.405
			c0.771,0,1.479,0.135,2.128,0.405c0.646,0.271,1.202,0.646,1.664,1.121c0.462,0.478,0.821,1.038,1.085,1.687
			c0.262,0.647,0.393,1.348,0.393,2.1c0,0.753-0.131,1.451-0.393,2.1c-0.264,0.648-0.623,1.209-1.085,1.688
			c-0.462,0.476-1.019,0.85-1.664,1.119C404.675,383.714,403.966,383.85,403.194,383.85z M403.194,382.564
			c0.581,0,1.104-0.107,1.569-0.321c0.467-0.214,0.866-0.502,1.199-0.864c0.333-0.361,0.591-0.787,0.771-1.277
			c0.18-0.49,0.271-1.012,0.271-1.563s-0.091-1.073-0.271-1.563c-0.182-0.49-0.438-0.916-0.771-1.277s-0.731-0.649-1.199-0.863
			c-0.467-0.215-0.988-0.32-1.569-0.32c-0.58,0-1.104,0.105-1.57,0.32c-0.467,0.214-0.866,0.502-1.2,0.863
			c-0.333,0.361-0.59,0.787-0.771,1.277c-0.184,0.489-0.271,1.012-0.271,1.563c0,0.553,0.09,1.072,0.271,1.563
			c0.181,0.49,0.438,0.916,0.771,1.277c0.334,0.362,0.733,0.65,1.2,0.864C402.09,382.457,402.614,382.564,403.194,382.564z"/>
		<path fill="#231F20" d="M411.148,373.482h3.556c0.646,0,1.181,0.088,1.6,0.264c0.419,0.177,0.749,0.4,0.992,0.671
			s0.412,0.576,0.507,0.914c0.098,0.339,0.145,0.664,0.145,0.979c0,0.322-0.059,0.635-0.171,0.936
			c-0.114,0.3-0.278,0.57-0.493,0.813c-0.214,0.243-0.478,0.448-0.785,0.614c-0.31,0.167-0.654,0.271-1.035,0.308l2.87,4.612h-1.714
			l-2.57-4.454h-1.525v4.454h-1.371v-10.11H411.148L411.148,373.482z M412.52,377.938h1.801c0.267,0,0.528-0.021,0.793-0.063
			c0.262-0.043,0.495-0.121,0.697-0.234c0.205-0.113,0.369-0.277,0.493-0.492c0.123-0.215,0.188-0.492,0.188-0.836
			s-0.063-0.621-0.188-0.834c-0.124-0.215-0.288-0.379-0.493-0.494c-0.202-0.113-0.438-0.191-0.697-0.234
			c-0.265-0.043-0.526-0.064-0.793-0.064h-1.801V377.938z"/>
		<path fill="#231F20" d="M422.716,379.279l-3.827-5.797h1.756l2.759,4.439l2.842-4.439h1.671l-3.827,5.797v4.313h-1.371
			L422.716,379.279L422.716,379.279z"/>
		<path fill="#231F20" d="M434.368,373.482h2.043l3.213,7.652h0.057l3.187-7.652h2.042v10.108h-1.37v-8.313h-0.029l-3.413,8.313
			h-0.914l-3.411-8.313h-0.028v8.313h-1.371v-10.108H434.368z"/>
		<path fill="#231F20" d="M451.291,373.482h1.242l4.327,10.108h-1.602l-1.014-2.499h-4.813l-1,2.499h-1.599L451.291,373.482z
			 M453.747,379.895l-1.885-4.642h-0.028l-1.914,4.642H453.747z"/>
		<path fill="#231F20" d="M458.889,373.482h1.801l5.567,8.311h0.029v-8.311h1.37v10.108h-1.742l-5.626-8.313h-0.028v8.313h-1.371
			V373.482L458.889,373.482z"/>
		<path fill="#231F20" d="M472.154,373.482v6.197c0,0.313,0.043,0.641,0.129,0.979s0.229,0.648,0.429,0.936
			c0.2,0.285,0.462,0.52,0.785,0.699c0.323,0.182,0.724,0.271,1.199,0.271c0.477,0,0.876-0.09,1.2-0.271
			c0.321-0.182,0.585-0.414,0.783-0.699c0.2-0.285,0.345-0.598,0.431-0.936s0.128-0.664,0.128-0.979v-6.197h1.371v6.412
			c0,0.59-0.102,1.125-0.302,1.604c-0.198,0.479-0.476,0.896-0.826,1.249c-0.354,0.354-0.769,0.624-1.242,0.813
			c-0.479,0.19-0.99,0.285-1.543,0.285c-0.554,0-1.066-0.095-1.542-0.285c-0.478-0.188-0.893-0.461-1.242-0.813
			c-0.354-0.354-0.629-0.77-0.828-1.249c-0.2-0.479-0.3-1.019-0.3-1.604v-6.412H472.154z"/>
		<path fill="#231F20" d="M481.737,373.482h6.354v1.285h-4.981v3.17h4.641v1.285h-4.641v4.368h-1.371L481.737,373.482
			L481.737,373.482z"/>
		<path fill="#231F20" d="M493.033,373.482h1.242l4.325,10.108h-1.6l-1.014-2.499h-4.813l-1,2.499h-1.599L493.033,373.482z
			 M495.489,379.895l-1.886-4.642h-0.027l-1.914,4.642H495.489z"/>
		<path fill="#231F20" d="M507.671,375.667c-0.285-0.371-0.646-0.657-1.085-0.856c-0.438-0.199-0.891-0.299-1.357-0.299
			c-0.568,0-1.087,0.105-1.549,0.32c-0.462,0.214-0.855,0.507-1.186,0.878s-0.583,0.808-0.764,1.308
			c-0.184,0.5-0.271,1.035-0.271,1.605c0,0.533,0.086,1.038,0.257,1.514c0.172,0.479,0.419,0.896,0.743,1.258
			c0.323,0.361,0.718,0.646,1.185,0.855c0.469,0.21,0.995,0.314,1.585,0.314c0.581,0,1.093-0.119,1.528-0.356
			c0.438-0.237,0.812-0.571,1.114-1l1.156,0.871c-0.076,0.104-0.209,0.255-0.399,0.45c-0.188,0.193-0.443,0.39-0.757,0.585
			c-0.314,0.194-0.692,0.366-1.136,0.515c-0.442,0.146-0.954,0.221-1.535,0.221c-0.8,0-1.521-0.15-2.163-0.457
			c-0.642-0.305-1.19-0.703-1.643-1.199c-0.453-0.493-0.8-1.055-1.035-1.678c-0.238-0.623-0.357-1.254-0.357-1.893
			c0-0.779,0.129-1.502,0.386-2.163c0.257-0.662,0.616-1.233,1.078-1.714s1.019-0.854,1.664-1.121c0.647-0.268,1.361-0.4,2.144-0.4
			c0.667,0,1.319,0.129,1.964,0.388c0.643,0.257,1.169,0.651,1.578,1.186L507.671,375.667z"/>
		<path fill="#231F20" d="M513.512,374.768h-3.256v-1.285h7.883v1.285h-3.256v8.825h-1.371V374.768L513.512,374.768z"/>
		<path fill="#231F20" d="M521.493,373.482v6.197c0,0.313,0.043,0.641,0.129,0.979s0.229,0.648,0.429,0.936
			c0.2,0.285,0.462,0.52,0.785,0.699c0.323,0.182,0.724,0.271,1.199,0.271c0.477,0,0.876-0.09,1.2-0.271
			c0.321-0.182,0.585-0.414,0.783-0.699c0.2-0.285,0.345-0.598,0.431-0.936s0.128-0.664,0.128-0.979v-6.197h1.371v6.412
			c0,0.59-0.102,1.125-0.3,1.604c-0.2,0.479-0.478,0.896-0.828,1.249c-0.354,0.354-0.769,0.624-1.242,0.813
			c-0.479,0.19-0.99,0.285-1.543,0.285c-0.554,0-1.066-0.095-1.542-0.285c-0.478-0.188-0.893-0.461-1.242-0.813
			c-0.354-0.354-0.629-0.77-0.828-1.249c-0.2-0.479-0.3-1.019-0.3-1.604v-6.412H521.493z"/>
		<path fill="#231F20" d="M531.076,373.482h3.556c0.647,0,1.183,0.088,1.602,0.264c0.419,0.177,0.749,0.4,0.99,0.671
			c0.243,0.271,0.412,0.576,0.509,0.914c0.096,0.339,0.143,0.664,0.143,0.979c0,0.322-0.057,0.635-0.171,0.936
			c-0.114,0.3-0.278,0.57-0.493,0.813c-0.214,0.243-0.476,0.448-0.785,0.614c-0.31,0.167-0.652,0.271-1.035,0.308l2.87,4.612h-1.714
			l-2.568-4.454h-1.527v4.454h-1.371v-10.11H531.076L531.076,373.482z M532.447,377.938h1.799c0.267,0,0.53-0.021,0.793-0.063
			c0.262-0.043,0.495-0.121,0.699-0.234c0.205-0.113,0.369-0.277,0.493-0.492c0.122-0.215,0.186-0.492,0.186-0.836
			s-0.063-0.621-0.186-0.834c-0.124-0.215-0.288-0.379-0.493-0.494c-0.204-0.113-0.438-0.191-0.699-0.234
			c-0.263-0.043-0.526-0.064-0.793-0.064h-1.799V377.938z"/>
		<path fill="#231F20" d="M540.516,373.482h1.371v10.108h-1.371V373.482z"/>
		<path fill="#231F20" d="M545.2,373.482h1.799l5.569,8.311h0.027v-8.311h1.37v10.108h-1.742l-5.626-8.313h-0.026v8.313H545.2
			V373.482z"/>
		<path fill="#231F20" d="M565.893,377.938v4.984c-0.248,0.152-0.526,0.285-0.843,0.398c-0.313,0.115-0.641,0.213-0.979,0.293
			c-0.338,0.082-0.683,0.142-1.028,0.18s-0.674,0.057-0.979,0.057c-0.856,0-1.62-0.143-2.291-0.428
			c-0.674-0.286-1.238-0.672-1.7-1.156c-0.462-0.486-0.813-1.051-1.059-1.692c-0.241-0.644-0.362-1.32-0.362-2.034
			c0-0.752,0.131-1.451,0.393-2.1c0.262-0.647,0.624-1.209,1.086-1.687c0.462-0.476,1.016-0.851,1.663-1.121
			s1.357-0.407,2.128-0.407c0.935,0,1.694,0.117,2.285,0.353c0.59,0.231,1.085,0.555,1.484,0.964l-0.972,1.042
			c-0.42-0.397-0.86-0.679-1.328-0.835c-0.467-0.157-0.957-0.234-1.472-0.234c-0.58,0-1.104,0.105-1.57,0.32
			c-0.467,0.214-0.865,0.502-1.199,0.861c-0.332,0.363-0.591,0.789-0.771,1.279c-0.182,0.489-0.271,1.012-0.271,1.563
			c0,0.569,0.1,1.104,0.3,1.593c0.2,0.49,0.476,0.916,0.828,1.278c0.353,0.36,0.767,0.645,1.24,0.85
			c0.479,0.204,0.995,0.308,1.559,0.308c0.484,0,0.943-0.045,1.378-0.135c0.434-0.092,0.803-0.223,1.105-0.395v-2.813h-2.24v-1.285
			h3.614V377.938z"/>
	</g>
	<polygon fill="#231F20" points="381.322,268.242 302.085,268.242 301.7,265.201 382.109,264.622 	"/>
	<g>
		<path fill="#231F20" d="M272.833,253.857c0.593-1.174,2.06-4.423,2.995-6.593c0.935-2.169,1.006-3.362,1.001-3.965
			c-0.005-0.775,0.002-2.391-1.621-3.792c-2.31-1.714-4.795-3.909-7.218-4.725c-2.345-0.79-5.389-0.646-5.583,1.023
			c-0.17,1.468,0.877,2.548-0.33,5.428l-3.884,8.733c-0.429,0.938-0.65,1.435-0.882,1.926c-4.901,10.371-9.694,20.795-14.73,31.101
			c-7.914,16.191-15.976,32.312-24.019,48.438c-1.113,2.23-1.206,4.391-0.075,6.561c1.101,1.854,3.659,3.855,7.194,5.224
			c3.172,1.228,4.312,0.894,5.453,0.195c0.997-0.611,0.74-1.755,0.716-2.669c-0.025-0.83,1.212-3.545,2.121-5.581
			C246.219,307.723,259.271,280.668,272.833,253.857z"/>
		<path fill="#231F20" d="M371.692,280.613c-6.306,0-15.704,14.098-24.873,26.362c-0.333,0.444-0.692,0.646-0.938,0.646
			c-0.177,0-0.292-0.105-0.292-0.309c0-0.092,0.025-0.205,0.082-0.338c3.667-8.368,8.138-15.815,9.742-18.107
			c0.5-0.71,0.719-1.485,0.719-2.276c0-3.662-4.673-7.718-7.796-7.718c-1.001,0-1.843,0.417-2.322,1.397
			c-2.576,5.351-7.126,14.962-12.19,25.724c-5.861,9.701-15.853,25.512-19.406,25.512c-0.229,0-0.917-0.113-0.917-1.261
			c0-4.241,9.4-23.497,16.505-34.959c0.917-1.489,1.605-3.094,1.605-4.011c0-5.158-4.241-9.972-7.909-9.972
			c-5.272,0-13.067,9.742-23.611,23.497c-0.383,0.547-0.818,0.833-1.094,0.833c-0.169,0-0.278-0.108-0.278-0.329
			c0-0.174,0.067-0.417,0.226-0.733c3.209-5.846,5.846-11.348,5.846-14.329c0-3.781-2.637-8.938-6.189-8.938
			c-5.96,0-17.193,15.243-27.737,29.799c-0.361,0.494-0.703,0.727-0.93,0.727c-0.172,0-0.279-0.131-0.279-0.378
			c0-0.263,0.119-0.534,0.405-1.147c3.325-7.454,7.794-15.82,10.086-19.258c0.459-0.696,0.66-1.445,0.66-2.208
			c0-3.61-4.491-7.536-7.582-7.536c-1,0-1.854,0.411-2.36,1.377c-4.929,9.514-19.829,42.867-22.123,48.828
			c-0.396,1.028-0.571,2.016-0.571,2.94c0,4.499,4.111,7.616,6.864,7.616c1.104,0,1.989-0.502,2.304-1.616
			c6.762-12.952,27.852-41.264,35.188-48.943c0.187-0.196,0.373-0.282,0.528-0.282c0.22,0,0.376,0.17,0.376,0.43
			c0,0.115-0.032,0.259-0.103,0.426c-6.305,12.838-18.226,35.761-20.403,39.43c-0.522,0.875-0.751,1.78-0.751,2.675
			c0,3.795,4.152,7.361,7.705,7.361c1.854,0,3.543-0.973,4.395-3.391c6.877-15.131,24.643-38.166,31.863-46.305
			c0.252-0.261,0.491-0.361,0.688-0.358c0.292,0.003,0.491,0.234,0.491,0.504c0,0.129-0.045,0.276-0.147,0.429
			c-6.646,10.544-16.161,29.456-16.161,38.971c0,7.449,5.043,10.772,8.367,10.772v-0.001c3.195,0,6.801-2.51,10.429-6.279
			c-4.928,10.543-9.014,19.33-10.693,23.014c-0.393,0.863-0.565,1.701-0.565,2.505c0,4.303,5.002,7.521,8.256,7.521v0.002
			c1.292,0,2.31-0.509,2.625-1.66c1.031-3.896,9.515-23.037,10.202-24.412l4.698-9.397c0.104-0.221,0.257-0.378,0.399-0.378
			c0.176,0.003,0.306,0.154,0.402,0.491c1.031,3.438,3.324,8.597,9.856,8.597c15.473,0,35.875-28.771,35.875-48.369
			C380.86,283.594,374.099,280.613,371.692,280.613z M340.974,331.505L340.974,331.505c-1.375-0.001-2.75-0.46-3.78-1.262
			c-0.115-0.119-0.174-0.263-0.174-0.433c0-0.172,0.059-0.371,0.174-0.601c10.198-16.392,29.568-40.804,31.979-40.804
			c0.229,0,0.802,0,0.802,1.605C369.973,298.724,352.551,331.505,340.974,331.505z"/>
		<path fill="#231F20" d="M490.468,274.654c5.043,0,10.314-8.138,10.314-13.753c0-3.325-1.604-5.847-6.075-5.847
			c-6.074,0-10.544,6.304-10.544,11.921C484.163,270.941,487.142,274.654,490.468,274.654z"/>
		<path fill="#231F20" d="M546.456,298.607c-0.114,0-0.344,0-0.573,0.345c-2.178,3.553-18.798,32.552-23.15,32.552
			c-0.574,0-1.033-0.344-1.033-1.261c0-4.929,13.755-31.063,18.685-38.512c0.649-1.011,0.931-2.068,0.931-3.112
			c0-4.171-4.478-8.131-7.704-8.131c-1.093,0-2.038,0.452-2.624,1.5l-2.98,5.502c-0.146,0.231-0.292,0.33-0.432,0.33
			c-0.2,0-0.354-0.144-0.485-0.33c-2.406-3.438-7.449-6.761-12.146-6.761c-9.487,0-19.942,12.963-26.203,26.878
			c-5.908,9.742-14.938,23.896-17.981,23.896c-0.801,0-1.146-0.688-1.146-1.72c0-7.335,15.243-35.073,18.339-38.626
			c0.572-0.688,0.803-1.375,0.803-2.178c0-2.979-5.846-7.45-9.398-7.45c-1.03,0-1.947,0.458-2.406,1.375
			c-0.845,1.687-5.787,11.265-10.669,21.551c-6.146,10.064-16.876,27.047-22.201,27.047c-0.918,0-1.261-0.572-1.261-1.488
			c0-5.044,11.688-22.009,15.701-28.656c1.376-2.179,1.948-4.126,1.948-5.846c0-5.73-7.68-8.941-14.558-11.232
			c-0.369-0.074-0.547-0.242-0.537-0.476c0.006-0.13,0.071-0.279,0.191-0.441c2.295-3.783,3.098-6.534,3.098-8.482
			c0-2.407-1.376-3.554-3.439-3.554c-4.354,0-11.115,5.043-11.115,12.838c0,1.375,0.228,2.292,0.687,3.095
			c0.063,0.16,0.095,0.317,0.095,0.465c0,0.167-0.035,0.322-0.097,0.451c-4.688,9.384-7.603,14.55-9.936,18.551
			c-2.819,4.493-5.64,8.467-8.458,12.055c-6.99,8.824-15.131,14.098-20.287,14.098c-4.24,0-5.272-3.209-5.272-6.419
			c0-2.75,0.804-6.304,1.949-9.628c0.116-0.344,0.278-0.458,0.641-0.458c0.443,0,1.577,0.396,3.649,0.396
			c11.648,0,25.17-12.2,25.17-23.727c0-7.576-7.269-12.315-12.954-12.315c-14.159,0-30.839,28.788-30.839,45.139
			c0,9.994,6.119,16.296,14.449,16.296c11.688,0,22.924-11.69,29.915-22.351c1.913-2.898,3.875-6.054,5.405-8.765
			c0.065-0.055,0.119-0.112,0.151-0.178c1.604-2.638,4.928-8.252,11.346-19.944c0.229-0.459,0.575-0.688,0.917-0.688
			c1.835,0,6.42,0.459,6.42,3.21c0,5.96-17.191,25.561-17.191,37.939c0,5.501,3.438,10.773,8.938,10.773
			c5.851,0,12.506-6.301,18.409-13.899c-0.132,1.002-0.21,1.972-0.21,2.896c0,6.074,3.782,11.004,8.711,11.004
			c5.207,0,11.692-7.193,17.521-15.582c-0.104,1.045-0.162,2.063-0.162,3.029c0,7.397,3.09,12.553,8.716,12.553
			c6.533,0,12.264-8.139,18.109-17.077c0.224-0.337,0.445-0.515,0.59-0.513c0.104,0,0.158,0.078,0.158,0.271
			c0,0.076-0.022,0.188-0.063,0.354c-0.572,2.406-0.802,4.697-0.802,6.875c0,5.963,3.554,10.089,7.909,10.089
			c11.23,0,28.425-33.47,32.092-40.232c0.115-0.229,0.115-0.344,0.115-0.458C549.895,300.327,547.832,298.607,546.456,298.607z
			 M395.988,309.152c5.158-10.313,12.606-19.942,16.62-19.942c0.872,0,1.259,0.611,1.259,1.625c0,4.999-9.396,19.81-16.732,19.81
			c-1.063,0-1.337-0.396-1.337-0.806C395.798,309.588,395.901,309.329,395.988,309.152z M496.482,331.504L496.482,331.504
			c-0.572,0.001-1.031-0.458-1.031-1.833c0-7.91,14.212-39.657,23.726-39.657c2.18,0,4.014,1.603,5.043,2.979
			c0.13,0.196,0.188,0.353,0.19,0.515c0.002,0.167-0.025,0.292-0.075,0.401C516.884,306.631,500.494,331.504,496.482,331.504z"/>
	</g>
</g>
</svg>
