<?xml version="1.0" encoding="utf-8"?>
<!-- Generator: Adobe Illustrator 16.0.0, SVG Export Plug-In . SVG Version: 6.00 Build 0)  -->
<!DOCTYPE svg PUBLIC "-//W3C//DTD SVG 1.1//EN" "http://www.w3.org/Graphics/SVG/1.1/DTD/svg11.dtd">
<svg version="1.1" id="Layer_1" xmlns="http://www.w3.org/2000/svg" xmlns:xlink="http://www.w3.org/1999/xlink" x="0px" y="0px"
	 width="110.833px" height="111.5px" viewBox="0 0 110.833 111.5" enable-background="new 0 0 110.833 111.5" xml:space="preserve">
<g>
	<path fill="#A7A9AC" d="M36.738,55.613c3.3-0.476,5.341-2.876,4.944-5.624c-0.436-3.025-2.6-4.398-6.588-3.824
		c-2.75,0.397-5.025,1.148-7.655,3.351C30.059,54.05,33.027,56.148,36.738,55.613 M62.07,81.052
		c-5.5,0.792-11.653-3.933-12.864-12.319c-1.309-9.073,4.809-15.289,16.823-22.495c19.744-11.968,30.752-20.293,29.164-31.292
		c-0.912-6.322-5.551-10.283-11.188-9.47c-4.672,0.674-7.459,4.724-6.982,8.021c0.734,5.087,7.918,2.367,8.355,5.391
		c0.477,3.3-1.465,6.387-4.764,6.862c-4.398,0.634-8.352-2.445-9.264-8.769C70.419,10.52,75.652,3.03,83.765,1.86
		c8.66-1.249,15.996,4.847,17.326,14.06c1.805,12.51-6.334,24.208-24.645,35.411c5.916,2.095,9.416,6.92,10.447,14.071
		c2.697,18.694-13.889,39.894-41.799,43.919c-21.169,3.054-37.136-8.397-39.733-26.404C3.439,69.582,8.865,57.571,21.324,47.635
		c-1.065-2.513-1.696-4.948-2.035-7.286c-2.3-15.945,8.8-30.457,24.468-32.718c9.626-1.388,15.996,2.884,16.969,9.621
		c0.813,5.636-3.563,10.336-7.273,10.872c-1.789,0.258-2.946,0.004-3.065-0.819c-0.256-1.788,1.506-3.167,1.069-6.189
		c-0.614-4.261-4.584-6.496-9.945-5.722C29.964,17.059,22.654,29.62,24.22,40.481c0.178,1.238,0.691,2.847,1.363,4.575
		c3.042-2.263,6.102-3.406,9.678-3.922c7.562-1.09,12.319,1.731,13.073,6.955c0.832,5.776-3.09,10.691-9.414,11.604
		c-6.325,0.913-12.064-1.909-15.629-8.13c-7.046,4.664-10.527,13.586-9.159,23.072c2.597,18.009,19.664,30.284,37.398,27.726
		c16.91-2.44,30.595-18.447,28.511-32.884c-1.168-8.11-7.459-12.817-14.059-11.864c-6.184,0.892-10.733,6.319-9.839,12.505
		c0.595,4.126,1.472,5.514,7.244,5.923C67.439,76.326,66.746,80.376,62.07,81.052"/>
	<polygon fill="#58595B" points="33.375,30.193 33.375,64.589 11.01,30.193 1.467,30.193 1.467,82.462 11.417,82.462 11.417,48.173 
		33.753,82.462 43.322,82.462 43.322,30.193 	"/>
	<polygon fill="#58595B" points="33.374,30.193 43.325,30.193 43.325,48.211 57.515,30.193 69.46,30.193 51.209,53.52 
		71.236,82.462 59.437,82.462 43.325,59.237 43.325,82.462 33.686,82.462 	"/>
	<path fill="#58595B" d="M77.916,39.787v32.974h4.619c4.549,0,7.848-0.521,9.895-1.565c2.047-1.045,3.725-2.798,5.025-5.264
		c1.305-2.467,1.957-5.501,1.957-9.106c0-5.548-1.551-9.854-4.654-12.912c-2.795-2.749-7.285-4.126-13.467-4.126H77.916z
		 M68.037,30.193h11.789c7.596,0,13.24,0.942,16.936,2.824c3.689,1.883,6.729,4.946,9.121,9.187
		c2.389,4.239,3.586,9.19,3.586,14.851c0,4.028-0.672,7.729-2.008,11.104c-1.336,3.376-3.182,6.178-5.537,8.404
		c-2.355,2.228-4.906,3.767-7.652,4.621c-2.744,0.851-7.5,1.278-14.27,1.278H68.037V30.193z"/>
</g>
</svg>
