<svg version="1.1" id="Layer_1" xmlns="http://www.w3.org/2000/svg" xmlns:xlink="http://www.w3.org/1999/xlink" x="0px" y="0px"
	 width="75px" height="23.417px" viewBox="0 0 75 23.417" enable-background="new 0 0 75 23.417" xml:space="preserve">
<path fill="#050505" d="M33.376,0.978h1.449v9.289h0.048l2.104-5.149h1.545l-2.411,5.405l2.599,7.349h-1.544l-2.293-6.856h-0.048
	v6.856h-1.449V0.978z M40.278,5.117h1.451v12.754h-1.451V5.117z M44.036,3.411l1.451-0.561v2.269h1.03v1.172h-1.03v9.688
	c0,0.584,0.305,0.726,0.727,0.726h0.304v1.17h-0.701c-1.218,0-1.78-0.585-1.78-1.568V6.291h-0.726V5.119h0.726V3.411z M50.877,7.068
	c0-0.795-0.209-1.053-0.677-1.053c-0.491,0-0.795,0.327-0.795,1.053v8.682c0,0.655,0.186,0.959,0.724,0.959
	c0.539,0,0.748-0.373,0.748-0.959v-2.06h1.454v2.036c0,1.381-0.775,2.154-2.178,2.154c-1.17,0-2.2-0.587-2.2-1.92V7.304
	c0-1.942,1.17-2.459,2.411-2.459c1.263,0,1.967,0.679,1.967,2.061v2.13h-1.454V7.068z M54.24,0.979h1.45v5.007h0.047
	c0.28-0.537,0.889-1.006,1.639-1.006c1.146,0,1.684,0.89,1.684,1.92v10.975H57.61V7.461c0-0.679-0.259-1.17-0.913-1.17
	c-0.68,0-1.007,0.655-1.007,1.17v10.413h-1.45V0.979z M64.316,13.616h1.45v1.801c0,1.942-1.17,2.458-2.411,2.458
	c-1.24,0-2.41-0.516-2.41-2.458V7.298c0-1.943,1.17-2.459,2.41-2.459c1.241,0,2.411,0.516,2.411,2.459v4.422h-3.369v3.697
	c0,0.937,0.373,1.287,0.958,1.287c0.586,0,0.961-0.351,0.961-1.287V13.616z M64.357,7.277c0-0.936-0.374-1.286-0.96-1.286
	s-0.959,0.351-0.959,1.286v3.112h1.919V7.277z M67.728,5.117h1.356v0.866h0.048c0.327-0.538,0.936-1.006,1.685-1.006
	c1.193,0,1.732,0.889,1.732,1.92v10.974h-1.452V7.458c0-0.679-0.259-1.17-0.913-1.17c-0.677,0-1.005,0.655-1.005,1.17v10.413h-1.451
	V5.117z"/>
<circle fill="#050505" cx="41.002" cy="1.679" r="0.84"/>
<path fill="#050505" d="M1,4.913h2.246v1.43h0.05C3.629,5.448,4.343,4.76,5.568,4.76c1.403,0,2.245,1.071,2.245,2.961v7.197
	c0,1.889-0.842,2.961-2.245,2.961c-0.868,0-1.735-0.383-2.169-0.867v5.36H1V4.913z M3.399,14.843c0,0.942,0.485,1.351,0.97,1.351
	c0.638,0,1.046-0.357,1.046-1.837V8.333c0-1.38-0.384-1.735-0.92-1.735c-0.662,0-1.096,0.511-1.096,2.093V14.843z"/>
<path fill="#050505" d="M16.57,17.87h-2.245V16.8h-0.052c-0.229,0.382-0.535,0.688-0.919,0.892c-0.383,0.23-0.816,0.333-1.301,0.333
	c-1.199,0-2.247-0.639-2.247-2.527V5.057h2.398v9.98c0,0.663,0.18,1.148,0.92,1.148c0.587,0,1.047-0.356,1.047-1.353V5.057h2.398
	V17.87z"/>
<path fill="#050505" d="M18.557,5.058h2.247v1.329h0.051c0.563-1.2,0.97-1.482,2.144-1.482v2.399c-1.198,0-2.041,0.332-2.041,1.66
	v8.908h-2.4V5.058z"/>
<path fill="#050505" d="M23.94,8.184c0-2.171,1.249-3.447,3.472-3.447c1.914,0,3.496,0.817,3.496,3.192v4.133h-4.569v2.731
	c0,1.2,0.408,1.533,1.176,1.533c0.893,0,1.148-0.64,1.148-1.66v-1.173h2.245v1.813c0,1.3-0.918,2.552-3.574,2.552
	c-1.812,0-3.394-0.817-3.394-3.191V8.184z M26.339,10.366h2.324v-2.5c0-1.149-0.333-1.608-1.148-1.608
	c-0.896,0-1.176,0.484-1.176,1.403V10.366z"/>
<path fill="#050505" d="M74.033,16.685c0.09,0.049,0.159,0.118,0.21,0.208c0.051,0.091,0.075,0.184,0.075,0.282
	c0,0.097-0.024,0.19-0.074,0.279c-0.049,0.089-0.119,0.158-0.208,0.209c-0.09,0.049-0.182,0.074-0.28,0.074
	c-0.096,0-0.19-0.025-0.279-0.074c-0.089-0.051-0.158-0.12-0.208-0.209c-0.051-0.089-0.075-0.183-0.075-0.279
	c0-0.099,0.024-0.191,0.075-0.282c0.051-0.09,0.122-0.159,0.212-0.208c0.089-0.049,0.181-0.074,0.275-0.074
	S73.943,16.636,74.033,16.685z M73.426,16.588c-0.109,0.057-0.192,0.141-0.253,0.249c-0.062,0.107-0.09,0.22-0.09,0.338
	c0,0.116,0.028,0.227,0.089,0.335c0.059,0.108,0.142,0.19,0.249,0.251c0.107,0.059,0.219,0.089,0.335,0.089
	c0.117,0,0.229-0.03,0.337-0.089c0.106-0.061,0.189-0.143,0.249-0.251c0.059-0.108,0.089-0.219,0.089-0.335
	c0-0.118-0.03-0.23-0.091-0.338c-0.06-0.108-0.144-0.192-0.251-0.249c-0.108-0.06-0.22-0.088-0.333-0.088
	C73.644,16.5,73.533,16.528,73.426,16.588z M73.578,17.548V17.24h0.069c0.041,0,0.073,0.008,0.094,0.024
	c0.029,0.023,0.07,0.08,0.121,0.169l0.064,0.114h0.144l-0.087-0.142c-0.044-0.067-0.08-0.115-0.108-0.145
	c-0.016-0.015-0.036-0.027-0.062-0.038c0.063-0.005,0.113-0.027,0.151-0.065c0.039-0.04,0.058-0.086,0.058-0.14
	c0-0.037-0.011-0.072-0.034-0.106c-0.023-0.033-0.053-0.057-0.092-0.07c-0.038-0.014-0.1-0.021-0.186-0.021H73.46v0.727H73.578z
	 M73.578,16.921h0.136c0.057,0,0.097,0.003,0.118,0.013c0.021,0.009,0.037,0.021,0.05,0.037c0.012,0.018,0.02,0.037,0.02,0.058
	c0,0.034-0.013,0.06-0.039,0.08c-0.024,0.021-0.071,0.03-0.141,0.03h-0.144V16.921z"/>
</svg>
