<?xml version="1.0" encoding="UTF-8" standalone="no"?>
<svg
   xmlns:dc="http://purl.org/dc/elements/1.1/"
   xmlns:cc="http://creativecommons.org/ns#"
   xmlns:rdf="http://www.w3.org/1999/02/22-rdf-syntax-ns#"
   xmlns:svg="http://www.w3.org/2000/svg"
   xmlns="http://www.w3.org/2000/svg"
   viewBox="0 0 158.75999 158.75999"
   id="svg2"
   height="158.75999mm"
   width="158.75999mm"
   version="1.0">
  <metadata
     id="metadata164">
    <rdf:RDF>
      <cc:Work
         rdf:about="">
        <dc:format>image/svg+xml</dc:format>
        <dc:type
           rdf:resource="http://purl.org/dc/dcmitype/StillImage" />
      </cc:Work>
    </rdf:RDF>
  </metadata>
  <defs
     id="defs4">
    <clipPath
       id="clipEmfPath1"
       clipPathUnits="userSpaceOnUse">
      <path
         id="path7"
         d="m 0,0 0,0 0,563.58 563.58,0 0,-563.58" />
    </clipPath>
    <pattern
       y="0"
       x="0"
       height="6"
       width="6"
       patternUnits="userSpaceOnUse"
       id="EMFhbasepattern" />
  </defs>
  <path
     id="path10"
     d="m 0,0 158.39722,0 0,158.39722 -158.39722,0 z"
     style="fill:#ffffff;fill-opacity:1;fill-rule:evenodd;stroke:none" />
  <path
     id="path12"
     d=""
     clip-path="url(#clipEmfPath1)"
     style="fill:none;stroke:#000000;stroke-width:1px;stroke-linecap:butt;stroke-linejoin:miter;stroke-miterlimit:4;stroke-dasharray:none;stroke-opacity:1" />
  <path
     transform="scale(0.28222222,0.28222222)"
     id="path14"
     d="m 254.16,515.61 0,0 9.9,-2.52"
     clip-path="url(#clipEmfPath1)"
     style="fill:none;stroke:#212830;stroke-width:1.16999996px;stroke-linecap:square;stroke-linejoin:miter;stroke-miterlimit:10;stroke-dasharray:none;stroke-opacity:1" />
  <path
     transform="scale(0.28222222,0.28222222)"
     id="path16"
     d="m 250.47,514.35 0,0 3.69,1.26"
     clip-path="url(#clipEmfPath1)"
     style="fill:none;stroke:#212830;stroke-width:1.16999996px;stroke-linecap:square;stroke-linejoin:miter;stroke-miterlimit:10;stroke-dasharray:none;stroke-opacity:1" />
  <path
     transform="scale(0.28222222,0.28222222)"
     id="path18"
     d="m 266.4,76.05 0,0 0.09,418.5"
     clip-path="url(#clipEmfPath1)"
     style="fill:none;stroke:#212830;stroke-width:1.16999996px;stroke-linecap:square;stroke-linejoin:miter;stroke-miterlimit:10;stroke-dasharray:none;stroke-opacity:1" />
  <path
     transform="scale(0.28222222,0.28222222)"
     id="path20"
     d="m 250.47,61.56 0,0 57.24,-15.48"
     clip-path="url(#clipEmfPath1)"
     style="fill:none;stroke:#212830;stroke-width:1.16999996px;stroke-linecap:square;stroke-linejoin:miter;stroke-miterlimit:10;stroke-dasharray:none;stroke-opacity:1" />
  <path
     transform="scale(0.28222222,0.28222222)"
     id="path22"
     d="m 254.16,515.61 0,0 -3.69,-1.26 0,-452.79 3.69,1.26"
     clip-path="url(#clipEmfPath1)"
     style="fill:none;stroke:#212830;stroke-width:1.16999996px;stroke-linecap:square;stroke-linejoin:miter;stroke-miterlimit:10;stroke-dasharray:none;stroke-opacity:1" />
  <path
     transform="scale(0.28222222,0.28222222)"
     id="path24"
     d="m 264.06,513.09 0,0 -9.9,2.52 0,-452.79"
     clip-path="url(#clipEmfPath1)"
     style="fill:none;stroke:#212830;stroke-width:1.16999996px;stroke-linecap:square;stroke-linejoin:miter;stroke-miterlimit:10;stroke-dasharray:none;stroke-opacity:1" />
  <path
     transform="scale(0.28222222,0.28222222)"
     id="path26"
     d="m 264.06,72.63 0,0 0,426.87"
     clip-path="url(#clipEmfPath1)"
     style="fill:none;stroke:#212830;stroke-width:1.16999996px;stroke-linecap:square;stroke-linejoin:miter;stroke-miterlimit:10;stroke-dasharray:none;stroke-opacity:1" />
  <path
     transform="scale(0.28222222,0.28222222)"
     id="path28"
     d="m 307.71,46.08 0,0 -57.24,15.48 0,452.79"
     clip-path="url(#clipEmfPath1)"
     style="fill:none;stroke:#212830;stroke-width:1.16999996px;stroke-linecap:square;stroke-linejoin:miter;stroke-miterlimit:10;stroke-dasharray:none;stroke-opacity:1" />
  <path
     transform="scale(0.28222222,0.28222222)"
     id="path30"
     d="m 266.49,494.55 0,0 -0.09,-418.5"
     clip-path="url(#clipEmfPath1)"
     style="fill:none;stroke:#212830;stroke-width:1.16999996px;stroke-linecap:square;stroke-linejoin:miter;stroke-miterlimit:10;stroke-dasharray:none;stroke-opacity:1" />
  <path
     transform="scale(0.28222222,0.28222222)"
     id="path32"
     d="m 264.06,499.5 0,0 0,0 0,-426.87"
     clip-path="url(#clipEmfPath1)"
     style="fill:none;stroke:#212830;stroke-width:1.16999996px;stroke-linecap:square;stroke-linejoin:miter;stroke-miterlimit:10;stroke-dasharray:none;stroke-opacity:1" />
  <path
     transform="scale(0.28222222,0.28222222)"
     id="path34"
     d="m 302.04,63.54 0,0 -0.63,0 0,-1.26 0.63,0 0,0 0.63,0 0,1.26 -0.63,0 0,0 z"
     clip-path="url(#clipEmfPath1)"
     style="fill:#212830;fill-opacity:1;fill-rule:nonzero;stroke:#212830;stroke-width:0.09px;stroke-linecap:round;stroke-linejoin:round;stroke-miterlimit:10;stroke-dasharray:none;stroke-opacity:1" />
  <path
     transform="scale(0.28222222,0.28222222)"
     id="path36"
     d="m 307.71,46.08 0,0 -57.24,15.48 0,452.79"
     clip-path="url(#clipEmfPath1)"
     style="fill:none;stroke:#212830;stroke-width:1.16999996px;stroke-linecap:square;stroke-linejoin:miter;stroke-miterlimit:10;stroke-dasharray:none;stroke-opacity:1" />
  <path
     transform="scale(0.28222222,0.28222222)"
     id="path38"
     d="m 254.16,62.82 0,0 -3.69,-1.26"
     clip-path="url(#clipEmfPath1)"
     style="fill:none;stroke:#212830;stroke-width:1.16999996px;stroke-linecap:square;stroke-linejoin:miter;stroke-miterlimit:10;stroke-dasharray:none;stroke-opacity:1" />
  <path
     transform="scale(0.28222222,0.28222222)"
     id="path40"
     d="m 254.16,515.61 0,0 0,-452.79"
     clip-path="url(#clipEmfPath1)"
     style="fill:none;stroke:#212830;stroke-width:1.16999996px;stroke-linecap:square;stroke-linejoin:miter;stroke-miterlimit:10;stroke-dasharray:none;stroke-opacity:1" />
  <path
     transform="scale(0.28222222,0.28222222)"
     id="path42"
     d="m 254.16,515.61 0,0 9.9,-2.52"
     clip-path="url(#clipEmfPath1)"
     style="fill:none;stroke:#212830;stroke-width:1.16999996px;stroke-linecap:square;stroke-linejoin:miter;stroke-miterlimit:10;stroke-dasharray:none;stroke-opacity:1" />
  <path
     transform="scale(0.28222222,0.28222222)"
     id="path44"
     d="m 250.47,514.35 0,0 3.69,1.26"
     clip-path="url(#clipEmfPath1)"
     style="fill:none;stroke:#212830;stroke-width:1.16999996px;stroke-linecap:square;stroke-linejoin:miter;stroke-miterlimit:10;stroke-dasharray:none;stroke-opacity:1" />
  <path
     transform="scale(0.28222222,0.28222222)"
     id="path46"
     d="m 302.13,503.19 0,0 9.81,-2.43"
     clip-path="url(#clipEmfPath1)"
     style="fill:none;stroke:#212830;stroke-width:1.16999996px;stroke-linecap:square;stroke-linejoin:miter;stroke-miterlimit:10;stroke-dasharray:none;stroke-opacity:1" />
  <path
     transform="scale(0.28222222,0.28222222)"
     id="path48"
     d="m 311.94,46.8 0,0 -4.32,-0.72"
     clip-path="url(#clipEmfPath1)"
     style="fill:none;stroke:#212830;stroke-width:1.16999996px;stroke-linecap:square;stroke-linejoin:miter;stroke-miterlimit:10;stroke-dasharray:none;stroke-opacity:1" />
  <path
     transform="scale(0.28222222,0.28222222)"
     id="path50"
     d="m 307.62,46.08 0,0 4.32,0.72 -57.96,15.93"
     clip-path="url(#clipEmfPath1)"
     style="fill:none;stroke:#212830;stroke-width:1.16999996px;stroke-linecap:square;stroke-linejoin:miter;stroke-miterlimit:10;stroke-dasharray:none;stroke-opacity:1" />
  <path
     transform="scale(0.28222222,0.28222222)"
     id="path52"
     d="m 302.13,489.69 0,0 0,-425.61"
     clip-path="url(#clipEmfPath1)"
     style="fill:none;stroke:#212830;stroke-width:1.16999996px;stroke-linecap:square;stroke-linejoin:miter;stroke-miterlimit:10;stroke-dasharray:none;stroke-opacity:1" />
  <path
     transform="scale(0.28222222,0.28222222)"
     id="path54"
     d="m 298.44,486.09 0,0 0,-418.41"
     clip-path="url(#clipEmfPath1)"
     style="fill:none;stroke:#212830;stroke-width:1.16999996px;stroke-linecap:square;stroke-linejoin:miter;stroke-miterlimit:10;stroke-dasharray:none;stroke-opacity:1" />
  <path
     transform="scale(0.28222222,0.28222222)"
     id="path56"
     d="m 298.44,486 0,0 0,-418.32"
     clip-path="url(#clipEmfPath1)"
     style="fill:none;stroke:#212830;stroke-width:1.16999996px;stroke-linecap:square;stroke-linejoin:miter;stroke-miterlimit:10;stroke-dasharray:none;stroke-opacity:1" />
  <path
     transform="scale(0.28222222,0.28222222)"
     id="path58"
     d="m 302.13,489.69 0,0 0,-426.78"
     clip-path="url(#clipEmfPath1)"
     style="fill:none;stroke:#212830;stroke-width:1.16999996px;stroke-linecap:square;stroke-linejoin:miter;stroke-miterlimit:10;stroke-dasharray:none;stroke-opacity:1" />
  <path
     transform="scale(0.28222222,0.28222222)"
     id="path60"
     d="m 311.94,46.8 0,0 0,453.96"
     clip-path="url(#clipEmfPath1)"
     style="fill:none;stroke:#212830;stroke-width:1.16999996px;stroke-linecap:square;stroke-linejoin:miter;stroke-miterlimit:10;stroke-dasharray:none;stroke-opacity:1" />
  <path
     transform="scale(0.28222222,0.28222222)"
     id="path62"
     d="m 311.94,46.8 0,0 -4.32,-0.72"
     clip-path="url(#clipEmfPath1)"
     style="fill:none;stroke:#212830;stroke-width:1.16999996px;stroke-linecap:square;stroke-linejoin:miter;stroke-miterlimit:10;stroke-dasharray:none;stroke-opacity:1" />
  <path
     transform="scale(0.28222222,0.28222222)"
     id="path64"
     d="m 311.94,500.76 0,0 0,0 0,-453.96 -57.96,15.93"
     clip-path="url(#clipEmfPath1)"
     style="fill:none;stroke:#212830;stroke-width:1.16999996px;stroke-linecap:square;stroke-linejoin:miter;stroke-miterlimit:10;stroke-dasharray:none;stroke-opacity:1" />
  <path
     transform="scale(0.28222222,0.28222222)"
     id="path66"
     d="m 302.13,489.69 0,0 -0.09,-426.78"
     clip-path="url(#clipEmfPath1)"
     style="fill:none;stroke:#212830;stroke-width:1.16999996px;stroke-linecap:square;stroke-linejoin:miter;stroke-miterlimit:10;stroke-dasharray:none;stroke-opacity:1" />
  <path
     transform="scale(0.28222222,0.28222222)"
     id="path68"
     d="m 302.13,503.19 0,0 9.81,-2.43"
     clip-path="url(#clipEmfPath1)"
     style="fill:none;stroke:#212830;stroke-width:1.16999996px;stroke-linecap:square;stroke-linejoin:miter;stroke-miterlimit:10;stroke-dasharray:none;stroke-opacity:1" />
  <path
     transform="scale(0.28222222,0.28222222)"
     id="path70"
     d="m 302.13,489.69 0,0 0,-425.61"
     clip-path="url(#clipEmfPath1)"
     style="fill:none;stroke:#212830;stroke-width:1.16999996px;stroke-linecap:square;stroke-linejoin:miter;stroke-miterlimit:10;stroke-dasharray:none;stroke-opacity:1" />
  <path
     transform="scale(0.28222222,0.28222222)"
     id="path72"
     d="m 298.44,67.68 0,0 0,418.32"
     clip-path="url(#clipEmfPath1)"
     style="fill:none;stroke:#212830;stroke-width:1.16999996px;stroke-linecap:square;stroke-linejoin:miter;stroke-miterlimit:10;stroke-dasharray:none;stroke-opacity:1" />
  <path
     transform="scale(0.28222222,0.28222222)"
     id="path74"
     d="m 298.44,486.09 0,0 0,-418.41"
     clip-path="url(#clipEmfPath1)"
     style="fill:none;stroke:#212830;stroke-width:1.16999996px;stroke-linecap:square;stroke-linejoin:miter;stroke-miterlimit:10;stroke-dasharray:none;stroke-opacity:1" />
  <path
     transform="scale(0.28222222,0.28222222)"
     id="path76"
     d="m 297.18,51.12 0,0 -0.63,0 0,-1.26 0.63,0 0,0 0.63,0 0,1.26 -0.63,0 0,0 z"
     clip-path="url(#clipEmfPath1)"
     style="fill:#212830;fill-opacity:1;fill-rule:nonzero;stroke:#212830;stroke-width:0.09px;stroke-linecap:round;stroke-linejoin:round;stroke-miterlimit:10;stroke-dasharray:none;stroke-opacity:1" />
  <path
     transform="scale(0.28222222,0.28222222)"
     id="path78"
     d="m 302.13,490.32 0,0 -0.63,0 0,-1.26 0.63,0 0,0 0.63,0 0,1.26 -0.63,0 0,0 z"
     clip-path="url(#clipEmfPath1)"
     style="fill:#212830;fill-opacity:1;fill-rule:nonzero;stroke:#212830;stroke-width:0.09px;stroke-linecap:round;stroke-linejoin:round;stroke-miterlimit:10;stroke-dasharray:none;stroke-opacity:1" />
  <path
     transform="scale(0.28222222,0.28222222)"
     id="path80"
     d="m 298.44,486.63 0,0 -0.63,0 0,-1.26 0.63,0 0,0 0.63,0 0,1.26 -0.63,0 0,0 z"
     clip-path="url(#clipEmfPath1)"
     style="fill:#212830;fill-opacity:1;fill-rule:nonzero;stroke:#212830;stroke-width:0.09px;stroke-linecap:round;stroke-linejoin:round;stroke-miterlimit:10;stroke-dasharray:none;stroke-opacity:1" />
  <path
     transform="scale(0.28222222,0.28222222)"
     id="path82"
     d="m 298.44,486.63 0,0 -0.63,0 0,-1.26 0.63,0 0,0 0.63,0 0,1.26 -0.63,0 0,0 z"
     clip-path="url(#clipEmfPath1)"
     style="fill:#212830;fill-opacity:1;fill-rule:nonzero;stroke:#212830;stroke-width:0.09px;stroke-linecap:round;stroke-linejoin:round;stroke-miterlimit:10;stroke-dasharray:none;stroke-opacity:1" />
  <path
     transform="scale(0.28222222,0.28222222)"
     id="path84"
     d="m 298.44,486.63 0,0 -0.63,0 0,-1.26 0.63,0 0,0 0.63,0 0,1.26 -0.63,0 0,0 z"
     clip-path="url(#clipEmfPath1)"
     style="fill:#212830;fill-opacity:1;fill-rule:nonzero;stroke:#212830;stroke-width:0.09px;stroke-linecap:round;stroke-linejoin:round;stroke-miterlimit:10;stroke-dasharray:none;stroke-opacity:1" />
  <path
     transform="scale(0.28222222,0.28222222)"
     id="path86"
     d="m 302.04,63.54 0,0 -0.63,0 0,-1.26 0.63,0 0,0 0.63,0 0,1.26 -0.63,0 0,0 z"
     clip-path="url(#clipEmfPath1)"
     style="fill:#212830;fill-opacity:1;fill-rule:nonzero;stroke:#212830;stroke-width:0.09px;stroke-linecap:round;stroke-linejoin:round;stroke-miterlimit:10;stroke-dasharray:none;stroke-opacity:1" />
  <path
     transform="scale(0.28222222,0.28222222)"
     id="path88"
     d="m 302.04,63.54 0,0 -0.63,0 0,-1.26 0.63,0 0,0 0.63,0 0,1.26 -0.63,0 0,0 z"
     clip-path="url(#clipEmfPath1)"
     style="fill:#212830;fill-opacity:1;fill-rule:nonzero;stroke:#212830;stroke-width:0.09px;stroke-linecap:round;stroke-linejoin:round;stroke-miterlimit:10;stroke-dasharray:none;stroke-opacity:1" />
  <path
     transform="scale(0.28222222,0.28222222)"
     id="path90"
     d="m 264.06,513.09 0,0 38.07,-9.9"
     clip-path="url(#clipEmfPath1)"
     style="fill:none;stroke:#212830;stroke-width:1.16999996px;stroke-linecap:square;stroke-linejoin:miter;stroke-miterlimit:10;stroke-dasharray:none;stroke-opacity:1" />
  <path
     transform="scale(0.28222222,0.28222222)"
     id="path92"
     d="m 302.13,489.69 0,0 -3.69,-3.69 0,0.09"
     clip-path="url(#clipEmfPath1)"
     style="fill:none;stroke:#212830;stroke-width:1.16999996px;stroke-linecap:square;stroke-linejoin:miter;stroke-miterlimit:10;stroke-dasharray:none;stroke-opacity:1" />
  <path
     transform="scale(0.28222222,0.28222222)"
     id="path94"
     d="m 299.07,486.09 0,0 0,0.63 -1.17,0.09 -0.09,-0.63 0,-0.09 0,-0.63 1.17,-0.09 0.09,0.63 0,0.09 z"
     clip-path="url(#clipEmfPath1)"
     style="fill:#212830;fill-opacity:1;fill-rule:nonzero;stroke:#212830;stroke-width:0.09px;stroke-linecap:round;stroke-linejoin:round;stroke-miterlimit:10;stroke-dasharray:none;stroke-opacity:1" />
  <path
     transform="scale(0.28222222,0.28222222)"
     id="path96"
     d="m 302.13,489.69 0,0 -38.07,9.81"
     clip-path="url(#clipEmfPath1)"
     style="fill:none;stroke:#212830;stroke-width:1.16999996px;stroke-linecap:square;stroke-linejoin:miter;stroke-miterlimit:10;stroke-dasharray:none;stroke-opacity:1" />
  <path
     transform="scale(0.28222222,0.28222222)"
     id="path98"
     d="m 298.44,486 0,0 3.69,3.69"
     clip-path="url(#clipEmfPath1)"
     style="fill:none;stroke:#212830;stroke-width:1.16999996px;stroke-linecap:square;stroke-linejoin:miter;stroke-miterlimit:10;stroke-dasharray:none;stroke-opacity:1" />
  <path
     transform="scale(0.28222222,0.28222222)"
     id="path100"
     d="m 266.49,494.64 0,0 31.95,-8.64"
     clip-path="url(#clipEmfPath1)"
     style="fill:none;stroke:#212830;stroke-width:1.16999996px;stroke-linecap:square;stroke-linejoin:miter;stroke-miterlimit:10;stroke-dasharray:none;stroke-opacity:1" />
  <path
     transform="scale(0.28222222,0.28222222)"
     id="path102"
     d="m 298.44,486 0,0 -31.95,8.64"
     clip-path="url(#clipEmfPath1)"
     style="fill:none;stroke:#212830;stroke-width:1.16999996px;stroke-linecap:square;stroke-linejoin:miter;stroke-miterlimit:10;stroke-dasharray:none;stroke-opacity:1" />
  <path
     transform="scale(0.28222222,0.28222222)"
     id="path104"
     d="m 265.86,494.64 0,0 -0.18,-0.54 1.26,-0.36 0.18,0.63 0,0.09 0.18,0.63 -1.26,0.27 -0.18,-0.63 0,-0.09 z"
     clip-path="url(#clipEmfPath1)"
     style="fill:#212830;fill-opacity:1;fill-rule:nonzero;stroke:#212830;stroke-width:0.09px;stroke-linecap:round;stroke-linejoin:round;stroke-miterlimit:10;stroke-dasharray:none;stroke-opacity:1" />
  <path
     transform="scale(0.28222222,0.28222222)"
     id="path106"
     d="m 267.12,494.46 0,0 0.18,0.63 -1.26,0.27 -0.18,-0.63 0,-0.09 -0.18,-0.54 1.26,-0.36 0.18,0.63 0,0.09 z"
     clip-path="url(#clipEmfPath1)"
     style="fill:#212830;fill-opacity:1;fill-rule:nonzero;stroke:#212830;stroke-width:0.09px;stroke-linecap:round;stroke-linejoin:round;stroke-miterlimit:10;stroke-dasharray:none;stroke-opacity:1" />
  <path
     transform="scale(0.28222222,0.28222222)"
     id="path108"
     d="m 264.06,499.5 0,0 0,-13.59"
     clip-path="url(#clipEmfPath1)"
     style="fill:none;stroke:#212830;stroke-width:1.16999996px;stroke-linecap:square;stroke-linejoin:miter;stroke-miterlimit:10;stroke-dasharray:none;stroke-opacity:1" />
  <path
     transform="scale(0.28222222,0.28222222)"
     id="path110"
     d="m 301.68,489.24 0,0 0.36,-0.45 0.99,0.9 -0.45,0.45 0,0 -0.45,0.45 -0.9,-0.81 0.45,-0.45 0,-0.09 z"
     clip-path="url(#clipEmfPath1)"
     style="fill:#212830;fill-opacity:1;fill-rule:nonzero;stroke:#212830;stroke-width:0.09px;stroke-linecap:round;stroke-linejoin:round;stroke-miterlimit:10;stroke-dasharray:none;stroke-opacity:1" />
  <path
     transform="scale(0.28222222,0.28222222)"
     id="path112"
     d="m 298.44,486.09 0,0 0,-0.09 -31.95,8.64"
     clip-path="url(#clipEmfPath1)"
     style="fill:none;stroke:#212830;stroke-width:1.16999996px;stroke-linecap:square;stroke-linejoin:miter;stroke-miterlimit:10;stroke-dasharray:none;stroke-opacity:1" />
  <path
     transform="scale(0.28222222,0.28222222)"
     id="path114"
     d="m 302.58,490.14 0,0 -0.45,0.45 -0.9,-0.81 0.45,-0.45 0,-0.09 0.36,-0.45 0.99,0.9 -0.45,0.45 0,0 z"
     clip-path="url(#clipEmfPath1)"
     style="fill:#212830;fill-opacity:1;fill-rule:nonzero;stroke:#212830;stroke-width:0.09px;stroke-linecap:round;stroke-linejoin:round;stroke-miterlimit:10;stroke-dasharray:none;stroke-opacity:1" />
  <path
     transform="scale(0.28222222,0.28222222)"
     id="path116"
     d="m 264.06,513.09 0,0 38.07,-9.9"
     clip-path="url(#clipEmfPath1)"
     style="fill:none;stroke:#212830;stroke-width:1.16999996px;stroke-linecap:square;stroke-linejoin:miter;stroke-miterlimit:10;stroke-dasharray:none;stroke-opacity:1" />
  <path
     transform="scale(0.28222222,0.28222222)"
     id="path118"
     d="m 265.86,494.64 0,0 -0.18,-0.54 1.26,-0.36 0.18,0.63 0,0.09 0.18,0.63 -1.26,0.27 -0.18,-0.63 0,-0.09 z"
     clip-path="url(#clipEmfPath1)"
     style="fill:#212830;fill-opacity:1;fill-rule:nonzero;stroke:#212830;stroke-width:0.09px;stroke-linecap:round;stroke-linejoin:round;stroke-miterlimit:10;stroke-dasharray:none;stroke-opacity:1" />
  <path
     transform="scale(0.28222222,0.28222222)"
     id="path120"
     d="m 263.43,499.5 0,0 0,-0.63 1.26,0 0,0.63 0,0 0,0.63 -1.26,0 0,-0.63 0,0 z"
     clip-path="url(#clipEmfPath1)"
     style="fill:#212830;fill-opacity:1;fill-rule:nonzero;stroke:#212830;stroke-width:0.09px;stroke-linecap:round;stroke-linejoin:round;stroke-miterlimit:10;stroke-dasharray:none;stroke-opacity:1" />
  <path
     transform="scale(0.28222222,0.28222222)"
     id="path122"
     d="m 298.44,486 0,0 -31.95,8.64"
     clip-path="url(#clipEmfPath1)"
     style="fill:none;stroke:#212830;stroke-width:1.16999996px;stroke-linecap:square;stroke-linejoin:miter;stroke-miterlimit:10;stroke-dasharray:none;stroke-opacity:1" />
  <path
     transform="scale(0.28222222,0.28222222)"
     id="path124"
     d="m 302.13,489.69 0,0 -3.69,-3.69"
     clip-path="url(#clipEmfPath1)"
     style="fill:none;stroke:#212830;stroke-width:1.16999996px;stroke-linecap:square;stroke-linejoin:miter;stroke-miterlimit:10;stroke-dasharray:none;stroke-opacity:1" />
  <path
     transform="scale(0.28222222,0.28222222)"
     id="path126"
     d="m 266.49,494.64 0,0 -2.43,4.77"
     clip-path="url(#clipEmfPath1)"
     style="fill:none;stroke:#212830;stroke-width:1.16999996px;stroke-linecap:square;stroke-linejoin:miter;stroke-miterlimit:10;stroke-dasharray:none;stroke-opacity:1" />
  <path
     transform="scale(0.28222222,0.28222222)"
     id="path128"
     d="m 302.13,489.69 0,0 -38.07,9.81"
     clip-path="url(#clipEmfPath1)"
     style="fill:none;stroke:#212830;stroke-width:1.16999996px;stroke-linecap:square;stroke-linejoin:miter;stroke-miterlimit:10;stroke-dasharray:none;stroke-opacity:1" />
  <path
     transform="scale(0.28222222,0.28222222)"
     id="path130"
     d="m 302.13,489.69 0,0 -38.07,9.81"
     clip-path="url(#clipEmfPath1)"
     style="fill:none;stroke:#212830;stroke-width:1.16999996px;stroke-linecap:square;stroke-linejoin:miter;stroke-miterlimit:10;stroke-dasharray:none;stroke-opacity:1" />
  <path
     transform="scale(0.28222222,0.28222222)"
     id="path132"
     d="m 302.13,62.82 0,0 -3.69,4.86 -31.95,8.64"
     clip-path="url(#clipEmfPath1)"
     style="fill:none;stroke:#212830;stroke-width:1.16999996px;stroke-linecap:square;stroke-linejoin:miter;stroke-miterlimit:10;stroke-dasharray:none;stroke-opacity:1" />
  <path
     transform="scale(0.28222222,0.28222222)"
     id="path134"
     d="m 298.44,67.68 0,0 0,0 3.69,-4.86"
     clip-path="url(#clipEmfPath1)"
     style="fill:none;stroke:#212830;stroke-width:1.16999996px;stroke-linecap:square;stroke-linejoin:miter;stroke-miterlimit:10;stroke-dasharray:none;stroke-opacity:1" />
  <path
     transform="scale(0.28222222,0.28222222)"
     id="path136"
     d="m 298.89,68.13 0,0 -0.45,0.45 -0.9,-0.9 0.45,-0.36 0,-0.09 0.45,-0.36 0.9,0.81 -0.45,0.45 0,0 z"
     clip-path="url(#clipEmfPath1)"
     style="fill:#212830;fill-opacity:1;fill-rule:nonzero;stroke:#212830;stroke-width:0.09px;stroke-linecap:round;stroke-linejoin:round;stroke-miterlimit:10;stroke-dasharray:none;stroke-opacity:1" />
  <path
     transform="scale(0.28222222,0.28222222)"
     id="path138"
     d="m 266.49,76.32 0,0 -0.09,-0.27"
     clip-path="url(#clipEmfPath1)"
     style="fill:none;stroke:#212830;stroke-width:1.16999996px;stroke-linecap:square;stroke-linejoin:miter;stroke-miterlimit:10;stroke-dasharray:none;stroke-opacity:1" />
  <path
     transform="scale(0.28222222,0.28222222)"
     id="path140"
     d="m 266.4,76.05 0,0 0.09,0.27"
     clip-path="url(#clipEmfPath1)"
     style="fill:none;stroke:#212830;stroke-width:1.16999996px;stroke-linecap:square;stroke-linejoin:miter;stroke-miterlimit:10;stroke-dasharray:none;stroke-opacity:1" />
  <path
     transform="scale(0.28222222,0.28222222)"
     id="path142"
     d="m 302.13,62.82 0,0 -38.07,9.81 0,0"
     clip-path="url(#clipEmfPath1)"
     style="fill:none;stroke:#212830;stroke-width:1.16999996px;stroke-linecap:square;stroke-linejoin:miter;stroke-miterlimit:10;stroke-dasharray:none;stroke-opacity:1" />
  <path
     transform="scale(0.28222222,0.28222222)"
     id="path144"
     d="m 302.04,62.91 0,0 0.09,-0.09"
     clip-path="url(#clipEmfPath1)"
     style="fill:none;stroke:#212830;stroke-width:1.16999996px;stroke-linecap:square;stroke-linejoin:miter;stroke-miterlimit:10;stroke-dasharray:none;stroke-opacity:1" />
  <path
     transform="scale(0.28222222,0.28222222)"
     id="path146"
     d="m 298.89,68.13 0,0 -0.45,0.45 -0.9,-0.9 0.45,-0.36 0,-0.09 0.45,-0.36 0.9,0.81 -0.45,0.45 0,0 z"
     clip-path="url(#clipEmfPath1)"
     style="fill:#212830;fill-opacity:1;fill-rule:nonzero;stroke:#212830;stroke-width:0.09px;stroke-linecap:round;stroke-linejoin:round;stroke-miterlimit:10;stroke-dasharray:none;stroke-opacity:1" />
  <path
     transform="scale(0.28222222,0.28222222)"
     id="path148"
     d="m 302.13,62.82 0,0 -0.09,0.09"
     clip-path="url(#clipEmfPath1)"
     style="fill:none;stroke:#212830;stroke-width:1.16999996px;stroke-linecap:square;stroke-linejoin:miter;stroke-miterlimit:10;stroke-dasharray:none;stroke-opacity:1" />
  <path
     transform="scale(0.28222222,0.28222222)"
     id="path150"
     d="m 266.49,76.32 0,0 -0.09,-0.27"
     clip-path="url(#clipEmfPath1)"
     style="fill:none;stroke:#212830;stroke-width:1.16999996px;stroke-linecap:square;stroke-linejoin:miter;stroke-miterlimit:10;stroke-dasharray:none;stroke-opacity:1" />
  <path
     transform="scale(0.28222222,0.28222222)"
     id="path152"
     d="m 264.51,72.18 0,0 0.45,0.45 -0.9,0.9 -0.45,-0.45 0,0 -0.45,-0.45 0.9,-0.9 0.36,0.45 0.09,0 z"
     clip-path="url(#clipEmfPath1)"
     style="fill:#212830;fill-opacity:1;fill-rule:nonzero;stroke:#212830;stroke-width:0.09px;stroke-linecap:round;stroke-linejoin:round;stroke-miterlimit:10;stroke-dasharray:none;stroke-opacity:1" />
  <path
     transform="scale(0.28222222,0.28222222)"
     id="path154"
     d="m 266.49,76.32 0,0 31.95,-8.64"
     clip-path="url(#clipEmfPath1)"
     style="fill:none;stroke:#212830;stroke-width:1.16999996px;stroke-linecap:square;stroke-linejoin:miter;stroke-miterlimit:10;stroke-dasharray:none;stroke-opacity:1" />
  <path
     transform="scale(0.28222222,0.28222222)"
     id="path156"
     d="m 264.06,72.63 0,0 2.43,3.69"
     clip-path="url(#clipEmfPath1)"
     style="fill:none;stroke:#212830;stroke-width:1.16999996px;stroke-linecap:square;stroke-linejoin:miter;stroke-miterlimit:10;stroke-dasharray:none;stroke-opacity:1" />
  <path
     transform="scale(0.28222222,0.28222222)"
     id="path158"
     d="m 298.44,67.68 0,0 3.69,-4.86"
     clip-path="url(#clipEmfPath1)"
     style="fill:none;stroke:#212830;stroke-width:1.16999996px;stroke-linecap:square;stroke-linejoin:miter;stroke-miterlimit:10;stroke-dasharray:none;stroke-opacity:1" />
  <path
     transform="scale(0.28222222,0.28222222)"
     id="path160"
     d="m 264.06,72.63 0,0 38.07,-9.81"
     clip-path="url(#clipEmfPath1)"
     style="fill:none;stroke:#212830;stroke-width:1.16999996px;stroke-linecap:square;stroke-linejoin:miter;stroke-miterlimit:10;stroke-dasharray:none;stroke-opacity:1" />
</svg>
