<?xml version="1.0" encoding="UTF-8" standalone="no"?>
<svg
   xmlns:dc="http://purl.org/dc/elements/1.1/"
   xmlns:cc="http://creativecommons.org/ns#"
   xmlns:rdf="http://www.w3.org/1999/02/22-rdf-syntax-ns#"
   xmlns:svg="http://www.w3.org/2000/svg"
   xmlns="http://www.w3.org/2000/svg"
   viewBox="0 0 158.75999 158.75999"
   id="svg2"
   height="158.75999mm"
   width="158.75999mm"
   version="1.0">
  <metadata
     id="metadata284">
    <rdf:RDF>
      <cc:Work
         rdf:about="">
        <dc:format>image/svg+xml</dc:format>
        <dc:type
           rdf:resource="http://purl.org/dc/dcmitype/StillImage" />
      </cc:Work>
    </rdf:RDF>
  </metadata>
  <defs
     id="defs4">
    <clipPath
       id="clipEmfPath1"
       clipPathUnits="userSpaceOnUse">
      <path
         id="path7"
         d="m 0,0 0,0 0,563.58 563.58,0 0,-563.58" />
    </clipPath>
    <pattern
       y="0"
       x="0"
       height="6"
       width="6"
       patternUnits="userSpaceOnUse"
       id="EMFhbasepattern" />
  </defs>
  <path
     id="path10"
     d="m 0,0 158.39722,0 0,158.39722 -158.39722,0 z"
     style="fill:#ffffff;fill-opacity:1;fill-rule:evenodd;stroke:none" />
  <path
     id="path12"
     d=""
     clip-path="url(#clipEmfPath1)"
     style="fill:none;stroke:#000000;stroke-width:1px;stroke-linecap:butt;stroke-linejoin:miter;stroke-miterlimit:4;stroke-dasharray:none;stroke-opacity:1" />
  <path
     transform="scale(0.28222222,0.28222222)"
     id="path14"
     d="m 228.33,517.5 0,0 -0.63,0 0,-1.26 0.63,0 0,0 0.63,0 0,1.26 -0.63,0 0,0 z"
     clip-path="url(#clipEmfPath1)"
     style="fill:#212830;fill-opacity:1;fill-rule:nonzero;stroke:#212830;stroke-width:0.09px;stroke-linecap:round;stroke-linejoin:round;stroke-miterlimit:4;stroke-dasharray:none;stroke-opacity:1" />
  <path
     transform="scale(0.28222222,0.28222222)"
     id="path16"
     d="m 320.4,516.78 0,0 -0.63,0 0,-1.26 0.63,0 0,0 0.63,0 0,1.26 -0.63,0 0,0 z"
     clip-path="url(#clipEmfPath1)"
     style="fill:#212830;fill-opacity:1;fill-rule:nonzero;stroke:#212830;stroke-width:0.09px;stroke-linecap:round;stroke-linejoin:round;stroke-miterlimit:4;stroke-dasharray:none;stroke-opacity:1" />
  <path
     transform="scale(0.28222222,0.28222222)"
     id="path18"
     d="m 320.4,516.78 0,0 -0.63,0 0,-1.26 0.63,0 0,0 0.63,0 0,1.26 -0.63,0 0,0 z"
     clip-path="url(#clipEmfPath1)"
     style="fill:#212830;fill-opacity:1;fill-rule:nonzero;stroke:#212830;stroke-width:0.09px;stroke-linecap:round;stroke-linejoin:round;stroke-miterlimit:4;stroke-dasharray:none;stroke-opacity:1" />
  <path
     transform="scale(0.28222222,0.28222222)"
     id="path20"
     d="m 323.55,50.76 0,0 -0.63,0 0,-1.26 0.63,0 0,0 0.63,0 0,1.26 -0.63,0 0,0 z"
     clip-path="url(#clipEmfPath1)"
     style="fill:#212830;fill-opacity:1;fill-rule:nonzero;stroke:#212830;stroke-width:0.09px;stroke-linecap:round;stroke-linejoin:round;stroke-miterlimit:4;stroke-dasharray:none;stroke-opacity:1" />
  <path
     transform="scale(0.28222222,0.28222222)"
     id="path22"
     d="m 323.55,50.76 0,0 -0.63,0 0,-1.26 0.63,0 0,0 0.63,0 0,1.26 -0.63,0 0,0 z"
     clip-path="url(#clipEmfPath1)"
     style="fill:#212830;fill-opacity:1;fill-rule:nonzero;stroke:#212830;stroke-width:0.09px;stroke-linecap:round;stroke-linejoin:round;stroke-miterlimit:4;stroke-dasharray:none;stroke-opacity:1" />
  <path
     transform="scale(0.28222222,0.28222222)"
     id="path24"
     d="m 320.4,51.48 0,0 -0.63,0 0,-1.26 0.63,0 0,0 0.63,0 0,1.26 -0.63,0 0,0 z"
     clip-path="url(#clipEmfPath1)"
     style="fill:#212830;fill-opacity:1;fill-rule:nonzero;stroke:#212830;stroke-width:0.09px;stroke-linecap:round;stroke-linejoin:round;stroke-miterlimit:4;stroke-dasharray:none;stroke-opacity:1" />
  <path
     transform="scale(0.28222222,0.28222222)"
     id="path26"
     d="m 320.4,516.78 0,0 -0.63,0 0,-1.26 0.63,0 0,0 0.63,0 0,1.26 -0.63,0 0,0 z"
     clip-path="url(#clipEmfPath1)"
     style="fill:#212830;fill-opacity:1;fill-rule:nonzero;stroke:#212830;stroke-width:0.09px;stroke-linecap:round;stroke-linejoin:round;stroke-miterlimit:4;stroke-dasharray:none;stroke-opacity:1" />
  <path
     transform="scale(0.28222222,0.28222222)"
     id="path28"
     d="m 320.4,51.48 0,0 -0.63,0 0,-1.26 0.63,0 0,0 0.63,0 0,1.26 -0.63,0 0,0 z"
     clip-path="url(#clipEmfPath1)"
     style="fill:#212830;fill-opacity:1;fill-rule:nonzero;stroke:#212830;stroke-width:0.09px;stroke-linecap:round;stroke-linejoin:round;stroke-miterlimit:4;stroke-dasharray:none;stroke-opacity:1" />
  <path
     transform="scale(0.28222222,0.28222222)"
     id="path30"
     d="m 323.55,50.76 0,0 -0.63,0 0,-1.26 0.63,0 0,0 0.63,0 0,1.26 -0.63,0 0,0 z"
     clip-path="url(#clipEmfPath1)"
     style="fill:#212830;fill-opacity:1;fill-rule:nonzero;stroke:#212830;stroke-width:0.09px;stroke-linecap:round;stroke-linejoin:round;stroke-miterlimit:4;stroke-dasharray:none;stroke-opacity:1" />
  <path
     transform="scale(0.28222222,0.28222222)"
     id="path32"
     d="m 320.4,51.48 0,0 -0.63,0 0,-1.26 0.63,0 0,0 0.63,0 0,1.26 -0.63,0 0,0 z"
     clip-path="url(#clipEmfPath1)"
     style="fill:#212830;fill-opacity:1;fill-rule:nonzero;stroke:#212830;stroke-width:0.09px;stroke-linecap:round;stroke-linejoin:round;stroke-miterlimit:4;stroke-dasharray:none;stroke-opacity:1" />
  <path
     transform="scale(0.28222222,0.28222222)"
     id="path34"
     d="m 323.55,50.76 0,0 -0.63,0 0,-1.26 0.63,0 0,0 0.63,0 0,1.26 -0.63,0 0,0 z"
     clip-path="url(#clipEmfPath1)"
     style="fill:#212830;fill-opacity:1;fill-rule:nonzero;stroke:#212830;stroke-width:0.09px;stroke-linecap:round;stroke-linejoin:round;stroke-miterlimit:4;stroke-dasharray:none;stroke-opacity:1" />
  <path
     transform="scale(0.28222222,0.28222222)"
     id="path36"
     d="m 320.4,51.48 0,0 -0.63,0 0,-1.26 0.63,0 0,0 0.63,0 0,1.26 -0.63,0 0,0 z"
     clip-path="url(#clipEmfPath1)"
     style="fill:#212830;fill-opacity:1;fill-rule:nonzero;stroke:#212830;stroke-width:0.09px;stroke-linecap:round;stroke-linejoin:round;stroke-miterlimit:4;stroke-dasharray:none;stroke-opacity:1" />
  <path
     transform="scale(0.28222222,0.28222222)"
     id="path38"
     d="m 231.39,27.09 0,0 -0.63,0 0,-1.26 0.63,0 0,0 0.63,0 0,1.26 -0.63,0 0,0 z"
     clip-path="url(#clipEmfPath1)"
     style="fill:#212830;fill-opacity:1;fill-rule:nonzero;stroke:#212830;stroke-width:0.09px;stroke-linecap:round;stroke-linejoin:round;stroke-miterlimit:4;stroke-dasharray:none;stroke-opacity:1" />
  <path
     transform="scale(0.28222222,0.28222222)"
     id="path40"
     d="m 228.33,517.5 0,0 -0.63,0 0,-1.26 0.63,0 0,0 0.63,0 0,1.26 -0.63,0 0,0 z"
     clip-path="url(#clipEmfPath1)"
     style="fill:#212830;fill-opacity:1;fill-rule:nonzero;stroke:#212830;stroke-width:0.09px;stroke-linecap:round;stroke-linejoin:round;stroke-miterlimit:4;stroke-dasharray:none;stroke-opacity:1" />
  <path
     transform="scale(0.28222222,0.28222222)"
     id="path42"
     d="m 320.4,535.05 0,0 -0.63,0 0,-1.26 0.63,0 0,0 0.63,0 0,1.26 -0.63,0 0,0 z"
     clip-path="url(#clipEmfPath1)"
     style="fill:#212830;fill-opacity:1;fill-rule:nonzero;stroke:#212830;stroke-width:0.09px;stroke-linecap:round;stroke-linejoin:round;stroke-miterlimit:4;stroke-dasharray:none;stroke-opacity:1" />
  <path
     transform="scale(0.28222222,0.28222222)"
     id="path44"
     d="m 320.4,535.05 0,0 -0.63,0 0,-1.26 0.63,0 0,0 0.63,0 0,1.26 -0.63,0 0,0 z"
     clip-path="url(#clipEmfPath1)"
     style="fill:#212830;fill-opacity:1;fill-rule:nonzero;stroke:#212830;stroke-width:0.09px;stroke-linecap:round;stroke-linejoin:round;stroke-miterlimit:4;stroke-dasharray:none;stroke-opacity:1" />
  <path
     transform="scale(0.28222222,0.28222222)"
     id="path46"
     d="m 236.7,26.37 0,0 -0.63,0 0,-1.26 0.63,0 0,0 0.63,0 0,1.26 -0.63,0 0,0 z"
     clip-path="url(#clipEmfPath1)"
     style="fill:#212830;fill-opacity:1;fill-rule:nonzero;stroke:#212830;stroke-width:0.09px;stroke-linecap:round;stroke-linejoin:round;stroke-miterlimit:4;stroke-dasharray:none;stroke-opacity:1" />
  <path
     transform="scale(0.28222222,0.28222222)"
     id="path48"
     d="m 239.76,25.56 0,0 -0.63,0 0,-1.26 0.63,0 0,0 0.63,0 0,1.26 -0.63,0 0,0 z"
     clip-path="url(#clipEmfPath1)"
     style="fill:#212830;fill-opacity:1;fill-rule:nonzero;stroke:#212830;stroke-width:0.09px;stroke-linecap:round;stroke-linejoin:round;stroke-miterlimit:4;stroke-dasharray:none;stroke-opacity:1" />
  <path
     transform="scale(0.28222222,0.28222222)"
     id="path50"
     d="m 329.13,49.59 0,0 -0.63,0 0,-1.26 0.63,0 0,0 0.63,0 0,1.26 -0.63,0 0,0 z"
     clip-path="url(#clipEmfPath1)"
     style="fill:#212830;fill-opacity:1;fill-rule:nonzero;stroke:#212830;stroke-width:0.09px;stroke-linecap:round;stroke-linejoin:round;stroke-miterlimit:4;stroke-dasharray:none;stroke-opacity:1" />
  <path
     transform="scale(0.28222222,0.28222222)"
     id="path52"
     d="m 331.83,49.23 0,0 -0.63,0 0,-1.26 0.63,0 0,0 0.63,0 0,1.26 -0.63,0 0,0 z"
     clip-path="url(#clipEmfPath1)"
     style="fill:#212830;fill-opacity:1;fill-rule:nonzero;stroke:#212830;stroke-width:0.09px;stroke-linecap:round;stroke-linejoin:round;stroke-miterlimit:4;stroke-dasharray:none;stroke-opacity:1" />
  <path
     transform="scale(0.28222222,0.28222222)"
     id="path54"
     d="m 331.83,49.23 0,0 -0.63,0 0,-1.26 0.63,0 0,0 0.63,0 0,1.26 -0.63,0 0,0 z"
     clip-path="url(#clipEmfPath1)"
     style="fill:#212830;fill-opacity:1;fill-rule:nonzero;stroke:#212830;stroke-width:0.09px;stroke-linecap:round;stroke-linejoin:round;stroke-miterlimit:4;stroke-dasharray:none;stroke-opacity:1" />
  <path
     transform="scale(0.28222222,0.28222222)"
     id="path56"
     d="m 329.13,49.59 0,0 -0.63,0 0,-1.26 0.63,0 0,0 0.63,0 0,1.26 -0.63,0 0,0 z"
     clip-path="url(#clipEmfPath1)"
     style="fill:#212830;fill-opacity:1;fill-rule:nonzero;stroke:#212830;stroke-width:0.09px;stroke-linecap:round;stroke-linejoin:round;stroke-miterlimit:4;stroke-dasharray:none;stroke-opacity:1" />
  <path
     transform="scale(0.28222222,0.28222222)"
     id="path58"
     d="m 329.13,49.59 0,0 -0.63,0 0,-1.26 0.63,0 0,0 0.63,0 0,1.26 -0.63,0 0,0 z"
     clip-path="url(#clipEmfPath1)"
     style="fill:#212830;fill-opacity:1;fill-rule:nonzero;stroke:#212830;stroke-width:0.09px;stroke-linecap:round;stroke-linejoin:round;stroke-miterlimit:4;stroke-dasharray:none;stroke-opacity:1" />
  <path
     transform="scale(0.28222222,0.28222222)"
     id="path60"
     d="m 311.22,513.81 0,0 0,22.14"
     clip-path="url(#clipEmfPath1)"
     style="fill:none;stroke:#212830;stroke-width:1.16999996px;stroke-linecap:square;stroke-linejoin:miter;stroke-miterlimit:10;stroke-dasharray:none;stroke-opacity:1" />
  <path
     transform="scale(0.28222222,0.28222222)"
     id="path62"
     d="m 308.97,513.09 0,0 0,24.39 -80.64,-20.61"
     clip-path="url(#clipEmfPath1)"
     style="fill:none;stroke:#212830;stroke-width:1.16999996px;stroke-linecap:square;stroke-linejoin:miter;stroke-miterlimit:10;stroke-dasharray:none;stroke-opacity:1" />
  <path
     transform="scale(0.28222222,0.28222222)"
     id="path64"
     d="m 228.33,516.87 0,0 0,-488.88"
     clip-path="url(#clipEmfPath1)"
     style="fill:none;stroke:#212830;stroke-width:1.16999996px;stroke-linecap:square;stroke-linejoin:miter;stroke-miterlimit:10;stroke-dasharray:none;stroke-opacity:1" />
  <path
     transform="scale(0.28222222,0.28222222)"
     id="path66"
     d="m 320.4,516.15 0,0 -11.43,-3.06"
     clip-path="url(#clipEmfPath1)"
     style="fill:none;stroke:#212830;stroke-width:1.16999996px;stroke-linecap:square;stroke-linejoin:miter;stroke-miterlimit:10;stroke-dasharray:none;stroke-opacity:1" />
  <path
     transform="scale(0.28222222,0.28222222)"
     id="path68"
     d="m 320.4,50.85 0,0 0,465.3"
     clip-path="url(#clipEmfPath1)"
     style="fill:none;stroke:#212830;stroke-width:1.16999996px;stroke-linecap:square;stroke-linejoin:miter;stroke-miterlimit:10;stroke-dasharray:none;stroke-opacity:1" />
  <path
     transform="scale(0.28222222,0.28222222)"
     id="path70"
     d="m 311.22,535.95 0,0 0,-22.14"
     clip-path="url(#clipEmfPath1)"
     style="fill:none;stroke:#212830;stroke-width:1.16999996px;stroke-linecap:square;stroke-linejoin:miter;stroke-miterlimit:10;stroke-dasharray:none;stroke-opacity:1" />
  <path
     transform="scale(0.28222222,0.28222222)"
     id="path72"
     d="m 311.22,535.95 0,0 0,-22.14"
     clip-path="url(#clipEmfPath1)"
     style="fill:none;stroke:#212830;stroke-width:1.16999996px;stroke-linecap:square;stroke-linejoin:miter;stroke-miterlimit:10;stroke-dasharray:none;stroke-opacity:1" />
  <path
     transform="scale(0.28222222,0.28222222)"
     id="path74"
     d="m 320.4,516.15 0,0 0,-465.3"
     clip-path="url(#clipEmfPath1)"
     style="fill:none;stroke:#212830;stroke-width:1.16999996px;stroke-linecap:square;stroke-linejoin:miter;stroke-miterlimit:10;stroke-dasharray:none;stroke-opacity:1" />
  <path
     transform="scale(0.28222222,0.28222222)"
     id="path76"
     d="m 308.97,513.09 0,0 0,24.39"
     clip-path="url(#clipEmfPath1)"
     style="fill:none;stroke:#212830;stroke-width:1.16999996px;stroke-linecap:square;stroke-linejoin:miter;stroke-miterlimit:10;stroke-dasharray:none;stroke-opacity:1" />
  <path
     transform="scale(0.28222222,0.28222222)"
     id="path78"
     d="m 308.97,513.09 0,0 11.43,3.06"
     clip-path="url(#clipEmfPath1)"
     style="fill:none;stroke:#212830;stroke-width:1.16999996px;stroke-linecap:square;stroke-linejoin:miter;stroke-miterlimit:10;stroke-dasharray:none;stroke-opacity:1" />
  <path
     transform="scale(0.28222222,0.28222222)"
     id="path80"
     d="m 228.33,516.87 0,0 0,-488.88"
     clip-path="url(#clipEmfPath1)"
     style="fill:none;stroke:#212830;stroke-width:1.16999996px;stroke-linecap:square;stroke-linejoin:miter;stroke-miterlimit:10;stroke-dasharray:none;stroke-opacity:1" />
  <path
     transform="scale(0.28222222,0.28222222)"
     id="path82"
     d="m 228.33,516.87 0,0 80.64,20.61"
     clip-path="url(#clipEmfPath1)"
     style="fill:none;stroke:#212830;stroke-width:1.16999996px;stroke-linecap:square;stroke-linejoin:miter;stroke-miterlimit:10;stroke-dasharray:none;stroke-opacity:1" />
  <path
     transform="scale(0.28222222,0.28222222)"
     id="path84"
     d="m 308.97,537.48 0,0 2.25,-0.81"
     clip-path="url(#clipEmfPath1)"
     style="fill:none;stroke:#212830;stroke-width:1.16999996px;stroke-linecap:square;stroke-linejoin:miter;stroke-miterlimit:10;stroke-dasharray:none;stroke-opacity:1" />
  <path
     transform="scale(0.28222222,0.28222222)"
     id="path86"
     d="m 308.97,537.48 0,0 -80.64,-20.61"
     clip-path="url(#clipEmfPath1)"
     style="fill:none;stroke:#212830;stroke-width:1.16999996px;stroke-linecap:square;stroke-linejoin:miter;stroke-miterlimit:10;stroke-dasharray:none;stroke-opacity:1" />
  <path
     transform="scale(0.28222222,0.28222222)"
     id="path88"
     d="m 311.22,536.67 0,0 0,-0.72"
     clip-path="url(#clipEmfPath1)"
     style="fill:none;stroke:#212830;stroke-width:1.16999996px;stroke-linecap:square;stroke-linejoin:miter;stroke-miterlimit:10;stroke-dasharray:none;stroke-opacity:1" />
  <path
     transform="scale(0.28222222,0.28222222)"
     id="path90"
     d="m 311.22,535.95 0,0 0,0.72"
     clip-path="url(#clipEmfPath1)"
     style="fill:none;stroke:#212830;stroke-width:1.16999996px;stroke-linecap:square;stroke-linejoin:miter;stroke-miterlimit:10;stroke-dasharray:none;stroke-opacity:1" />
  <path
     transform="scale(0.28222222,0.28222222)"
     id="path92"
     d="m 308.97,538.11 0,0 -0.63,0 0,-1.26 0.63,0 0,0 0.63,0 0,1.26 -0.63,0 0,0 z"
     clip-path="url(#clipEmfPath1)"
     style="fill:#212830;fill-opacity:1;fill-rule:nonzero;stroke:#212830;stroke-width:0.09px;stroke-linecap:round;stroke-linejoin:round;stroke-miterlimit:10;stroke-dasharray:none;stroke-opacity:1" />
  <path
     transform="scale(0.28222222,0.28222222)"
     id="path94"
     d="m 308.97,537.48 0,0 0,0 -80.64,-20.61"
     clip-path="url(#clipEmfPath1)"
     style="fill:none;stroke:#212830;stroke-width:1.16999996px;stroke-linecap:square;stroke-linejoin:miter;stroke-miterlimit:10;stroke-dasharray:none;stroke-opacity:1" />
  <path
     transform="scale(0.28222222,0.28222222)"
     id="path96"
     d="m 311.22,536.67 0,0 0,-0.72"
     clip-path="url(#clipEmfPath1)"
     style="fill:none;stroke:#212830;stroke-width:1.16999996px;stroke-linecap:square;stroke-linejoin:miter;stroke-miterlimit:10;stroke-dasharray:none;stroke-opacity:1" />
  <path
     transform="scale(0.28222222,0.28222222)"
     id="path98"
     d="m 308.97,538.11 0,0 -0.63,0 0,-1.26 0.63,0 0,0 0.63,0 0,1.26 -0.63,0 0,0 z"
     clip-path="url(#clipEmfPath1)"
     style="fill:#212830;fill-opacity:1;fill-rule:nonzero;stroke:#212830;stroke-width:0.09px;stroke-linecap:round;stroke-linejoin:round;stroke-miterlimit:10;stroke-dasharray:none;stroke-opacity:1" />
  <path
     transform="scale(0.28222222,0.28222222)"
     id="path100"
     d="m 308.97,537.48 0,0 2.25,-0.81"
     clip-path="url(#clipEmfPath1)"
     style="fill:none;stroke:#212830;stroke-width:1.16999996px;stroke-linecap:square;stroke-linejoin:miter;stroke-miterlimit:10;stroke-dasharray:none;stroke-opacity:1" />
  <path
     transform="scale(0.28222222,0.28222222)"
     id="path102"
     d="m 228.33,516.87 0,0 80.64,20.61"
     clip-path="url(#clipEmfPath1)"
     style="fill:none;stroke:#212830;stroke-width:1.16999996px;stroke-linecap:square;stroke-linejoin:miter;stroke-miterlimit:10;stroke-dasharray:none;stroke-opacity:1" />
  <path
     transform="scale(0.28222222,0.28222222)"
     id="path104"
     d="m 320.4,50.85 0,0 3.15,-0.72"
     clip-path="url(#clipEmfPath1)"
     style="fill:none;stroke:#212830;stroke-width:1.16999996px;stroke-linecap:square;stroke-linejoin:miter;stroke-miterlimit:10;stroke-dasharray:none;stroke-opacity:1" />
  <path
     transform="scale(0.28222222,0.28222222)"
     id="path106"
     d="m 323.55,50.13 0,0 -3.15,0.72 0,465.3"
     clip-path="url(#clipEmfPath1)"
     style="fill:none;stroke:#212830;stroke-width:1.16999996px;stroke-linecap:square;stroke-linejoin:miter;stroke-miterlimit:10;stroke-dasharray:none;stroke-opacity:1" />
  <path
     transform="scale(0.28222222,0.28222222)"
     id="path108"
     d="m 320.4,50.85 0,0 3.15,-0.72"
     clip-path="url(#clipEmfPath1)"
     style="fill:none;stroke:#212830;stroke-width:1.16999996px;stroke-linecap:square;stroke-linejoin:miter;stroke-miterlimit:10;stroke-dasharray:none;stroke-opacity:1" />
  <path
     transform="scale(0.28222222,0.28222222)"
     id="path110"
     d="m 320.4,50.85 0,0 0,465.3"
     clip-path="url(#clipEmfPath1)"
     style="fill:none;stroke:#212830;stroke-width:1.16999996px;stroke-linecap:square;stroke-linejoin:miter;stroke-miterlimit:10;stroke-dasharray:none;stroke-opacity:1" />
  <path
     transform="scale(0.28222222,0.28222222)"
     id="path112"
     d="m 323.55,50.13 0,0 -3.15,0.72 0,465.3"
     clip-path="url(#clipEmfPath1)"
     style="fill:none;stroke:#212830;stroke-width:1.16999996px;stroke-linecap:square;stroke-linejoin:miter;stroke-miterlimit:10;stroke-dasharray:none;stroke-opacity:1" />
  <path
     transform="scale(0.28222222,0.28222222)"
     id="path114"
     d="m 320.4,516.15 0,0 0,-465.3"
     clip-path="url(#clipEmfPath1)"
     style="fill:none;stroke:#212830;stroke-width:1.16999996px;stroke-linecap:square;stroke-linejoin:miter;stroke-miterlimit:10;stroke-dasharray:none;stroke-opacity:1" />
  <path
     transform="scale(0.28222222,0.28222222)"
     id="path116"
     d="m 323.55,50.13 0,0 -3.15,0.72"
     clip-path="url(#clipEmfPath1)"
     style="fill:none;stroke:#212830;stroke-width:1.16999996px;stroke-linecap:square;stroke-linejoin:miter;stroke-miterlimit:10;stroke-dasharray:none;stroke-opacity:1" />
  <path
     transform="scale(0.28222222,0.28222222)"
     id="path118"
     d="m 231.39,26.46 0,0 92.16,23.67"
     clip-path="url(#clipEmfPath1)"
     style="fill:none;stroke:#212830;stroke-width:1.16999996px;stroke-linecap:square;stroke-linejoin:miter;stroke-miterlimit:10;stroke-dasharray:none;stroke-opacity:1" />
  <path
     transform="scale(0.28222222,0.28222222)"
     id="path120"
     d="m 228.33,27.27 0,0 3.06,-0.81"
     clip-path="url(#clipEmfPath1)"
     style="fill:none;stroke:#212830;stroke-width:1.16999996px;stroke-linecap:square;stroke-linejoin:miter;stroke-miterlimit:10;stroke-dasharray:none;stroke-opacity:1" />
  <path
     transform="scale(0.28222222,0.28222222)"
     id="path122"
     d="m 323.55,50.13 0,0 -3.15,0.72"
     clip-path="url(#clipEmfPath1)"
     style="fill:none;stroke:#212830;stroke-width:1.16999996px;stroke-linecap:square;stroke-linejoin:miter;stroke-miterlimit:10;stroke-dasharray:none;stroke-opacity:1" />
  <path
     transform="scale(0.28222222,0.28222222)"
     id="path124"
     d="m 228.33,27.27 0,0 0,0.72"
     clip-path="url(#clipEmfPath1)"
     style="fill:none;stroke:#212830;stroke-width:1.16999996px;stroke-linecap:square;stroke-linejoin:miter;stroke-miterlimit:10;stroke-dasharray:none;stroke-opacity:1" />
  <path
     transform="scale(0.28222222,0.28222222)"
     id="path126"
     d="m 228.33,27.99 0,0 0,-0.72 92.07,23.58"
     clip-path="url(#clipEmfPath1)"
     style="fill:none;stroke:#212830;stroke-width:1.16999996px;stroke-linecap:square;stroke-linejoin:miter;stroke-miterlimit:10;stroke-dasharray:none;stroke-opacity:1" />
  <path
     transform="scale(0.28222222,0.28222222)"
     id="path128"
     d="m 228.33,27.27 0,0 0,0.72"
     clip-path="url(#clipEmfPath1)"
     style="fill:none;stroke:#212830;stroke-width:1.16999996px;stroke-linecap:square;stroke-linejoin:miter;stroke-miterlimit:10;stroke-dasharray:none;stroke-opacity:1" />
  <path
     transform="scale(0.28222222,0.28222222)"
     id="path130"
     d="m 323.55,50.13 0,0 -92.16,-23.67"
     clip-path="url(#clipEmfPath1)"
     style="fill:none;stroke:#212830;stroke-width:1.16999996px;stroke-linecap:square;stroke-linejoin:miter;stroke-miterlimit:10;stroke-dasharray:none;stroke-opacity:1" />
  <path
     transform="scale(0.28222222,0.28222222)"
     id="path132"
     d="m 320.4,50.85 0,0 3.15,-0.72"
     clip-path="url(#clipEmfPath1)"
     style="fill:none;stroke:#212830;stroke-width:1.16999996px;stroke-linecap:square;stroke-linejoin:miter;stroke-miterlimit:10;stroke-dasharray:none;stroke-opacity:1" />
  <path
     transform="scale(0.28222222,0.28222222)"
     id="path134"
     d="m 228.33,27.27 0,0 92.07,23.58"
     clip-path="url(#clipEmfPath1)"
     style="fill:none;stroke:#212830;stroke-width:1.16999996px;stroke-linecap:square;stroke-linejoin:miter;stroke-miterlimit:10;stroke-dasharray:none;stroke-opacity:1" />
  <path
     transform="scale(0.28222222,0.28222222)"
     id="path136"
     d="m 231.39,26.46 0,0 -3.06,0.81"
     clip-path="url(#clipEmfPath1)"
     style="fill:none;stroke:#212830;stroke-width:1.16999996px;stroke-linecap:square;stroke-linejoin:miter;stroke-miterlimit:10;stroke-dasharray:none;stroke-opacity:1" />
  <path
     transform="scale(0.28222222,0.28222222)"
     id="path138"
     d="m 228.33,516.87 0,0 0,-489.6 3.06,-0.81"
     clip-path="url(#clipEmfPath1)"
     style="fill:none;stroke:#212830;stroke-width:1.16999996px;stroke-linecap:square;stroke-linejoin:miter;stroke-miterlimit:10;stroke-dasharray:none;stroke-opacity:1" />
  <path
     transform="scale(0.28222222,0.28222222)"
     id="path140"
     d="m 231.39,26.46 0,0 -3.06,0.81"
     clip-path="url(#clipEmfPath1)"
     style="fill:none;stroke:#212830;stroke-width:1.16999996px;stroke-linecap:square;stroke-linejoin:miter;stroke-miterlimit:10;stroke-dasharray:none;stroke-opacity:1" />
  <path
     transform="scale(0.28222222,0.28222222)"
     id="path142"
     d="m 228.33,516.87 0,0 0,-489.6"
     clip-path="url(#clipEmfPath1)"
     style="fill:none;stroke:#212830;stroke-width:1.16999996px;stroke-linecap:square;stroke-linejoin:miter;stroke-miterlimit:10;stroke-dasharray:none;stroke-opacity:1" />
  <path
     transform="scale(0.28222222,0.28222222)"
     id="path144"
     d="m 231.39,26.46 0,0 -3.06,0.81 0,489.6"
     clip-path="url(#clipEmfPath1)"
     style="fill:none;stroke:#212830;stroke-width:1.16999996px;stroke-linecap:square;stroke-linejoin:miter;stroke-miterlimit:10;stroke-dasharray:none;stroke-opacity:1" />
  <path
     transform="scale(0.28222222,0.28222222)"
     id="path146"
     d="m 231.39,26.46 0,0 -3.06,0.81"
     clip-path="url(#clipEmfPath1)"
     style="fill:none;stroke:#212830;stroke-width:1.16999996px;stroke-linecap:square;stroke-linejoin:miter;stroke-miterlimit:10;stroke-dasharray:none;stroke-opacity:1" />
  <path
     transform="scale(0.28222222,0.28222222)"
     id="path148"
     d="m 317.34,535.14 0,0 3.06,-0.72"
     clip-path="url(#clipEmfPath1)"
     style="fill:none;stroke:#212830;stroke-width:1.16999996px;stroke-linecap:square;stroke-linejoin:miter;stroke-miterlimit:10;stroke-dasharray:none;stroke-opacity:1" />
  <path
     transform="scale(0.28222222,0.28222222)"
     id="path150"
     d="m 311.22,533.61 0,0 6.12,1.53"
     clip-path="url(#clipEmfPath1)"
     style="fill:none;stroke:#212830;stroke-width:1.16999996px;stroke-linecap:square;stroke-linejoin:miter;stroke-miterlimit:10;stroke-dasharray:none;stroke-opacity:1" />
  <path
     transform="scale(0.28222222,0.28222222)"
     id="path152"
     d="m 236.7,25.74 0,0 0,2.25"
     clip-path="url(#clipEmfPath1)"
     style="fill:none;stroke:#212830;stroke-width:1.16999996px;stroke-linecap:square;stroke-linejoin:miter;stroke-miterlimit:10;stroke-dasharray:none;stroke-opacity:1" />
  <path
     transform="scale(0.28222222,0.28222222)"
     id="path154"
     d="m 329.13,48.96 0,0 -92.43,-23.22"
     clip-path="url(#clipEmfPath1)"
     style="fill:none;stroke:#212830;stroke-width:1.16999996px;stroke-linecap:square;stroke-linejoin:miter;stroke-miterlimit:10;stroke-dasharray:none;stroke-opacity:1" />
  <path
     transform="scale(0.28222222,0.28222222)"
     id="path156"
     d="m 320.4,534.42 0,0 -3.06,0.72 0,-19.8"
     clip-path="url(#clipEmfPath1)"
     style="fill:none;stroke:#212830;stroke-width:1.16999996px;stroke-linecap:square;stroke-linejoin:miter;stroke-miterlimit:10;stroke-dasharray:none;stroke-opacity:1" />
  <path
     transform="scale(0.28222222,0.28222222)"
     id="path158"
     d="m 320.4,534.42 0,0 0,-18.27"
     clip-path="url(#clipEmfPath1)"
     style="fill:none;stroke:#212830;stroke-width:1.16999996px;stroke-linecap:square;stroke-linejoin:miter;stroke-miterlimit:10;stroke-dasharray:none;stroke-opacity:1" />
  <path
     transform="scale(0.28222222,0.28222222)"
     id="path160"
     d="m 317.34,515.34 0,0 0,19.8 -6.12,-1.53"
     clip-path="url(#clipEmfPath1)"
     style="fill:none;stroke:#212830;stroke-width:1.16999996px;stroke-linecap:square;stroke-linejoin:miter;stroke-miterlimit:10;stroke-dasharray:none;stroke-opacity:1" />
  <path
     transform="scale(0.28222222,0.28222222)"
     id="path162"
     d="m 236.7,25.74 0,0 92.43,23.22"
     clip-path="url(#clipEmfPath1)"
     style="fill:none;stroke:#212830;stroke-width:1.16999996px;stroke-linecap:square;stroke-linejoin:miter;stroke-miterlimit:10;stroke-dasharray:none;stroke-opacity:1" />
  <path
     transform="scale(0.28222222,0.28222222)"
     id="path164"
     d="m 320.4,534.42 0,0 0,-18.27"
     clip-path="url(#clipEmfPath1)"
     style="fill:none;stroke:#212830;stroke-width:1.16999996px;stroke-linecap:square;stroke-linejoin:miter;stroke-miterlimit:10;stroke-dasharray:none;stroke-opacity:1" />
  <path
     transform="scale(0.28222222,0.28222222)"
     id="path166"
     d="m 329.13,48.96 0,0 -92.43,-23.22"
     clip-path="url(#clipEmfPath1)"
     style="fill:none;stroke:#212830;stroke-width:1.16999996px;stroke-linecap:square;stroke-linejoin:miter;stroke-miterlimit:10;stroke-dasharray:none;stroke-opacity:1" />
  <path
     transform="scale(0.28222222,0.28222222)"
     id="path168"
     d="m 317.34,535.14 0,0 0,-19.8"
     clip-path="url(#clipEmfPath1)"
     style="fill:none;stroke:#212830;stroke-width:1.16999996px;stroke-linecap:square;stroke-linejoin:miter;stroke-miterlimit:10;stroke-dasharray:none;stroke-opacity:1" />
  <path
     transform="scale(0.28222222,0.28222222)"
     id="path170"
     d="m 236.7,25.74 0,0 0,2.25"
     clip-path="url(#clipEmfPath1)"
     style="fill:none;stroke:#212830;stroke-width:1.16999996px;stroke-linecap:square;stroke-linejoin:miter;stroke-miterlimit:10;stroke-dasharray:none;stroke-opacity:1" />
  <path
     transform="scale(0.28222222,0.28222222)"
     id="path172"
     d="m 311.22,533.61 0,0 6.12,1.53 3.06,-0.72"
     clip-path="url(#clipEmfPath1)"
     style="fill:none;stroke:#212830;stroke-width:1.16999996px;stroke-linecap:square;stroke-linejoin:miter;stroke-miterlimit:10;stroke-dasharray:none;stroke-opacity:1" />
  <path
     transform="scale(0.28222222,0.28222222)"
     id="path174"
     d="m 317.34,535.14 0,0 3.06,-0.72"
     clip-path="url(#clipEmfPath1)"
     style="fill:none;stroke:#212830;stroke-width:1.16999996px;stroke-linecap:square;stroke-linejoin:miter;stroke-miterlimit:10;stroke-dasharray:none;stroke-opacity:1" />
  <path
     transform="scale(0.28222222,0.28222222)"
     id="path176"
     d="m 311.22,533.61 0,0 6.12,1.53"
     clip-path="url(#clipEmfPath1)"
     style="fill:none;stroke:#212830;stroke-width:1.16999996px;stroke-linecap:square;stroke-linejoin:miter;stroke-miterlimit:10;stroke-dasharray:none;stroke-opacity:1" />
  <path
     transform="scale(0.28222222,0.28222222)"
     id="path178"
     d="m 320.4,534.42 0,0 -3.06,0.72"
     clip-path="url(#clipEmfPath1)"
     style="fill:none;stroke:#212830;stroke-width:1.16999996px;stroke-linecap:square;stroke-linejoin:miter;stroke-miterlimit:10;stroke-dasharray:none;stroke-opacity:1" />
  <path
     transform="scale(0.28222222,0.28222222)"
     id="path180"
     d="m 320.4,534.42 0,0 -3.06,0.72"
     clip-path="url(#clipEmfPath1)"
     style="fill:none;stroke:#212830;stroke-width:1.16999996px;stroke-linecap:square;stroke-linejoin:miter;stroke-miterlimit:10;stroke-dasharray:none;stroke-opacity:1" />
  <path
     transform="scale(0.28222222,0.28222222)"
     id="path182"
     d="m 317.34,535.14 0,0 -6.12,-1.53"
     clip-path="url(#clipEmfPath1)"
     style="fill:none;stroke:#212830;stroke-width:1.16999996px;stroke-linecap:square;stroke-linejoin:miter;stroke-miterlimit:10;stroke-dasharray:none;stroke-opacity:1" />
  <path
     transform="scale(0.28222222,0.28222222)"
     id="path184"
     d="m 317.34,535.14 0,0 -6.12,-1.53"
     clip-path="url(#clipEmfPath1)"
     style="fill:none;stroke:#212830;stroke-width:1.16999996px;stroke-linecap:square;stroke-linejoin:miter;stroke-miterlimit:10;stroke-dasharray:none;stroke-opacity:1" />
  <path
     transform="scale(0.28222222,0.28222222)"
     id="path186"
     d="m 317.34,535.14 0,0 3.06,-0.72"
     clip-path="url(#clipEmfPath1)"
     style="fill:none;stroke:#212830;stroke-width:1.16999996px;stroke-linecap:square;stroke-linejoin:miter;stroke-miterlimit:10;stroke-dasharray:none;stroke-opacity:1" />
  <path
     transform="scale(0.28222222,0.28222222)"
     id="path188"
     d="m 239.76,24.93 0,0 -3.06,0.81 0,2.25"
     clip-path="url(#clipEmfPath1)"
     style="fill:none;stroke:#212830;stroke-width:1.16999996px;stroke-linecap:square;stroke-linejoin:miter;stroke-miterlimit:10;stroke-dasharray:none;stroke-opacity:1" />
  <path
     transform="scale(0.28222222,0.28222222)"
     id="path190"
     d="m 236.7,25.74 0,0 3.06,-0.81"
     clip-path="url(#clipEmfPath1)"
     style="fill:none;stroke:#212830;stroke-width:1.16999996px;stroke-linecap:square;stroke-linejoin:miter;stroke-miterlimit:10;stroke-dasharray:none;stroke-opacity:1" />
  <path
     transform="scale(0.28222222,0.28222222)"
     id="path192"
     d="m 236.7,25.74 0,0 0,2.25"
     clip-path="url(#clipEmfPath1)"
     style="fill:none;stroke:#212830;stroke-width:1.16999996px;stroke-linecap:square;stroke-linejoin:miter;stroke-miterlimit:10;stroke-dasharray:none;stroke-opacity:1" />
  <path
     transform="scale(0.28222222,0.28222222)"
     id="path194"
     d="m 239.76,24.93 0,0 -3.06,0.81"
     clip-path="url(#clipEmfPath1)"
     style="fill:none;stroke:#212830;stroke-width:1.16999996px;stroke-linecap:square;stroke-linejoin:miter;stroke-miterlimit:10;stroke-dasharray:none;stroke-opacity:1" />
  <path
     transform="scale(0.28222222,0.28222222)"
     id="path196"
     d="m 236.7,25.74 0,0 3.06,-0.81"
     clip-path="url(#clipEmfPath1)"
     style="fill:none;stroke:#212830;stroke-width:1.16999996px;stroke-linecap:square;stroke-linejoin:miter;stroke-miterlimit:10;stroke-dasharray:none;stroke-opacity:1" />
  <path
     transform="scale(0.28222222,0.28222222)"
     id="path198"
     d="m 236.7,27.99 0,0 0,-2.25 3.06,-0.81"
     clip-path="url(#clipEmfPath1)"
     style="fill:none;stroke:#212830;stroke-width:1.16999996px;stroke-linecap:square;stroke-linejoin:miter;stroke-miterlimit:10;stroke-dasharray:none;stroke-opacity:1" />
  <path
     transform="scale(0.28222222,0.28222222)"
     id="path200"
     d="m 331.83,48.6 0,0 -2.7,0.36 -92.43,-23.22 3.06,-0.81"
     clip-path="url(#clipEmfPath1)"
     style="fill:none;stroke:#212830;stroke-width:1.16999996px;stroke-linecap:square;stroke-linejoin:miter;stroke-miterlimit:10;stroke-dasharray:none;stroke-opacity:1" />
  <path
     transform="scale(0.28222222,0.28222222)"
     id="path202"
     d="m 239.76,24.93 0,0 -3.06,0.81"
     clip-path="url(#clipEmfPath1)"
     style="fill:none;stroke:#212830;stroke-width:1.16999996px;stroke-linecap:square;stroke-linejoin:miter;stroke-miterlimit:10;stroke-dasharray:none;stroke-opacity:1" />
  <path
     transform="scale(0.28222222,0.28222222)"
     id="path204"
     d="m 329.13,48.96 0,0 -92.43,-23.22"
     clip-path="url(#clipEmfPath1)"
     style="fill:none;stroke:#212830;stroke-width:1.16999996px;stroke-linecap:square;stroke-linejoin:miter;stroke-miterlimit:10;stroke-dasharray:none;stroke-opacity:1" />
  <path
     transform="scale(0.28222222,0.28222222)"
     id="path206"
     d="m 331.83,48.6 0,0 -92.07,-23.67"
     clip-path="url(#clipEmfPath1)"
     style="fill:none;stroke:#212830;stroke-width:1.16999996px;stroke-linecap:square;stroke-linejoin:miter;stroke-miterlimit:10;stroke-dasharray:none;stroke-opacity:1" />
  <path
     transform="scale(0.28222222,0.28222222)"
     id="path208"
     d="m 236.7,25.74 0,0 92.43,23.22"
     clip-path="url(#clipEmfPath1)"
     style="fill:none;stroke:#212830;stroke-width:1.16999996px;stroke-linecap:square;stroke-linejoin:miter;stroke-miterlimit:10;stroke-dasharray:none;stroke-opacity:1" />
  <path
     transform="scale(0.28222222,0.28222222)"
     id="path210"
     d="m 331.83,48.6 0,0 -92.07,-23.67"
     clip-path="url(#clipEmfPath1)"
     style="fill:none;stroke:#212830;stroke-width:1.16999996px;stroke-linecap:square;stroke-linejoin:miter;stroke-miterlimit:10;stroke-dasharray:none;stroke-opacity:1" />
  <path
     transform="scale(0.28222222,0.28222222)"
     id="path212"
     d="m 329.13,48.96 0,0 2.7,-0.36"
     clip-path="url(#clipEmfPath1)"
     style="fill:none;stroke:#212830;stroke-width:1.16999996px;stroke-linecap:square;stroke-linejoin:miter;stroke-miterlimit:10;stroke-dasharray:none;stroke-opacity:1" />
  <path
     transform="scale(0.28222222,0.28222222)"
     id="path214"
     d="m 329.13,48.96 0,0 2.7,-0.36"
     clip-path="url(#clipEmfPath1)"
     style="fill:none;stroke:#212830;stroke-width:1.16999996px;stroke-linecap:square;stroke-linejoin:miter;stroke-miterlimit:10;stroke-dasharray:none;stroke-opacity:1" />
  <path
     transform="scale(0.28222222,0.28222222)"
     id="path216"
     d="m 331.83,48.6 0,0 -2.7,0.36"
     clip-path="url(#clipEmfPath1)"
     style="fill:none;stroke:#212830;stroke-width:1.16999996px;stroke-linecap:square;stroke-linejoin:miter;stroke-miterlimit:10;stroke-dasharray:none;stroke-opacity:1" />
  <path
     transform="scale(0.28222222,0.28222222)"
     id="path218"
     d="m 331.83,48.6 0,0 -2.7,0.36"
     clip-path="url(#clipEmfPath1)"
     style="fill:none;stroke:#212830;stroke-width:1.16999996px;stroke-linecap:square;stroke-linejoin:miter;stroke-miterlimit:10;stroke-dasharray:none;stroke-opacity:1" />
  <path
     transform="scale(0.28222222,0.28222222)"
     id="path220"
     d="m 331.83,49.23 0,0 -0.63,0 0,-1.26 0.63,0 0,0 0.63,0 0,1.26 -0.63,0 0,0 z"
     clip-path="url(#clipEmfPath1)"
     style="fill:#212830;fill-opacity:1;fill-rule:nonzero;stroke:#212830;stroke-width:0.09px;stroke-linecap:round;stroke-linejoin:round;stroke-miterlimit:10;stroke-dasharray:none;stroke-opacity:1" />
  <path
     transform="scale(0.28222222,0.28222222)"
     id="path222"
     d="m 331.83,48.6 0,0 0,0 -2.7,0.36"
     clip-path="url(#clipEmfPath1)"
     style="fill:none;stroke:#212830;stroke-width:1.16999996px;stroke-linecap:square;stroke-linejoin:miter;stroke-miterlimit:10;stroke-dasharray:none;stroke-opacity:1" />
  <path
     transform="scale(0.28222222,0.28222222)"
     id="path224"
     d="m 323.55,50.13 0,0 5.58,-1.17"
     clip-path="url(#clipEmfPath1)"
     style="fill:none;stroke:#212830;stroke-width:1.16999996px;stroke-linecap:square;stroke-linejoin:miter;stroke-miterlimit:10;stroke-dasharray:none;stroke-opacity:1" />
  <path
     transform="scale(0.28222222,0.28222222)"
     id="path226"
     d="m 325.71,48.06 0,0 -5.31,1.26"
     clip-path="url(#clipEmfPath1)"
     style="fill:none;stroke:#212830;stroke-width:1.16999996px;stroke-linecap:square;stroke-linejoin:miter;stroke-miterlimit:10;stroke-dasharray:none;stroke-opacity:1" />
  <path
     transform="scale(0.28222222,0.28222222)"
     id="path228"
     d="m 320.4,50.85 0,0 -3.06,-0.72"
     clip-path="url(#clipEmfPath1)"
     style="fill:none;stroke:#212830;stroke-width:1.16999996px;stroke-linecap:square;stroke-linejoin:miter;stroke-miterlimit:10;stroke-dasharray:none;stroke-opacity:1" />
  <path
     transform="scale(0.28222222,0.28222222)"
     id="path230"
     d="m 320.4,49.32 0,0 5.31,-1.26"
     clip-path="url(#clipEmfPath1)"
     style="fill:none;stroke:#212830;stroke-width:1.16999996px;stroke-linecap:square;stroke-linejoin:miter;stroke-miterlimit:10;stroke-dasharray:none;stroke-opacity:1" />
  <path
     transform="scale(0.28222222,0.28222222)"
     id="path232"
     d="m 320.4,50.85 0,0 0,465.3"
     clip-path="url(#clipEmfPath1)"
     style="fill:none;stroke:#212830;stroke-width:1.16999996px;stroke-linecap:square;stroke-linejoin:miter;stroke-miterlimit:10;stroke-dasharray:none;stroke-opacity:1" />
  <path
     transform="scale(0.28222222,0.28222222)"
     id="path234"
     d="m 317.34,50.13 0,0 3.06,0.72"
     clip-path="url(#clipEmfPath1)"
     style="fill:none;stroke:#212830;stroke-width:1.16999996px;stroke-linecap:square;stroke-linejoin:miter;stroke-miterlimit:10;stroke-dasharray:none;stroke-opacity:1" />
  <path
     transform="scale(0.28222222,0.28222222)"
     id="path236"
     d="m 320.4,516.15 0,0 -3.06,-0.81"
     clip-path="url(#clipEmfPath1)"
     style="fill:none;stroke:#212830;stroke-width:1.16999996px;stroke-linecap:square;stroke-linejoin:miter;stroke-miterlimit:10;stroke-dasharray:none;stroke-opacity:1" />
  <path
     transform="scale(0.28222222,0.28222222)"
     id="path238"
     d="m 323.55,50.13 0,0 5.58,-1.17"
     clip-path="url(#clipEmfPath1)"
     style="fill:none;stroke:#212830;stroke-width:1.16999996px;stroke-linecap:square;stroke-linejoin:miter;stroke-miterlimit:10;stroke-dasharray:none;stroke-opacity:1" />
  <path
     transform="scale(0.28222222,0.28222222)"
     id="path240"
     d="m 320.4,50.85 0,0 -3.06,-0.72"
     clip-path="url(#clipEmfPath1)"
     style="fill:none;stroke:#212830;stroke-width:1.16999996px;stroke-linecap:square;stroke-linejoin:miter;stroke-miterlimit:10;stroke-dasharray:none;stroke-opacity:1" />
  <path
     transform="scale(0.28222222,0.28222222)"
     id="path242"
     d="m 317.34,515.34 0,0 3.06,0.81"
     clip-path="url(#clipEmfPath1)"
     style="fill:none;stroke:#212830;stroke-width:1.16999996px;stroke-linecap:square;stroke-linejoin:miter;stroke-miterlimit:10;stroke-dasharray:none;stroke-opacity:1" />
  <path
     transform="scale(0.28222222,0.28222222)"
     id="path244"
     d="m 325.71,48.06 0,0 -5.31,1.26"
     clip-path="url(#clipEmfPath1)"
     style="fill:none;stroke:#212830;stroke-width:1.16999996px;stroke-linecap:square;stroke-linejoin:miter;stroke-miterlimit:10;stroke-dasharray:none;stroke-opacity:1" />
  <path
     transform="scale(0.28222222,0.28222222)"
     id="path246"
     d="m 320.4,516.15 0,0 3.06,0.72"
     clip-path="url(#clipEmfPath1)"
     style="fill:none;stroke:#212830;stroke-width:1.16999996px;stroke-linecap:square;stroke-linejoin:miter;stroke-miterlimit:10;stroke-dasharray:none;stroke-opacity:1" />
  <path
     transform="scale(0.28222222,0.28222222)"
     id="path248"
     d="m 334.08,49.32 0,0 -2.25,-0.72"
     clip-path="url(#clipEmfPath1)"
     style="fill:none;stroke:#212830;stroke-width:1.16999996px;stroke-linecap:square;stroke-linejoin:miter;stroke-miterlimit:10;stroke-dasharray:none;stroke-opacity:1" />
  <path
     transform="scale(0.28222222,0.28222222)"
     id="path250"
     d="m 331.83,48.6 0,0 2.25,0.72"
     clip-path="url(#clipEmfPath1)"
     style="fill:none;stroke:#212830;stroke-width:1.16999996px;stroke-linecap:square;stroke-linejoin:miter;stroke-miterlimit:10;stroke-dasharray:none;stroke-opacity:1" />
  <path
     transform="scale(0.28222222,0.28222222)"
     id="path252"
     d="m 323.46,51.66 0,0 -3.06,-0.81"
     clip-path="url(#clipEmfPath1)"
     style="fill:none;stroke:#212830;stroke-width:1.16999996px;stroke-linecap:square;stroke-linejoin:miter;stroke-miterlimit:10;stroke-dasharray:none;stroke-opacity:1" />
  <path
     transform="scale(0.28222222,0.28222222)"
     id="path254"
     d="m 323.55,50.13 0,0 5.58,-1.17"
     clip-path="url(#clipEmfPath1)"
     style="fill:none;stroke:#212830;stroke-width:1.16999996px;stroke-linecap:square;stroke-linejoin:miter;stroke-miterlimit:10;stroke-dasharray:none;stroke-opacity:1" />
  <path
     transform="scale(0.28222222,0.28222222)"
     id="path256"
     d="m 323.46,516.87 0,0 -3.06,-0.72"
     clip-path="url(#clipEmfPath1)"
     style="fill:none;stroke:#212830;stroke-width:1.16999996px;stroke-linecap:square;stroke-linejoin:miter;stroke-miterlimit:10;stroke-dasharray:none;stroke-opacity:1" />
  <path
     transform="scale(0.28222222,0.28222222)"
     id="path258"
     d="m 320.4,50.85 0,0 3.06,0.81"
     clip-path="url(#clipEmfPath1)"
     style="fill:none;stroke:#212830;stroke-width:1.16999996px;stroke-linecap:square;stroke-linejoin:miter;stroke-miterlimit:10;stroke-dasharray:none;stroke-opacity:1" />
  <path
     transform="scale(0.28222222,0.28222222)"
     id="path260"
     d="m 334.08,513.81 0,0 -10.62,3.06 0,-465.21"
     clip-path="url(#clipEmfPath1)"
     style="fill:none;stroke:#212830;stroke-width:1.16999996px;stroke-linecap:square;stroke-linejoin:miter;stroke-miterlimit:10;stroke-dasharray:none;stroke-opacity:1" />
  <path
     transform="scale(0.28222222,0.28222222)"
     id="path262"
     d="m 334.08,49.32 0,0 0,464.49"
     clip-path="url(#clipEmfPath1)"
     style="fill:none;stroke:#212830;stroke-width:1.16999996px;stroke-linecap:square;stroke-linejoin:miter;stroke-miterlimit:10;stroke-dasharray:none;stroke-opacity:1" />
  <path
     transform="scale(0.28222222,0.28222222)"
     id="path264"
     d="m 329.13,48.96 0,0 -5.58,1.17"
     clip-path="url(#clipEmfPath1)"
     style="fill:none;stroke:#212830;stroke-width:1.16999996px;stroke-linecap:square;stroke-linejoin:miter;stroke-miterlimit:10;stroke-dasharray:none;stroke-opacity:1" />
  <path
     transform="scale(0.28222222,0.28222222)"
     id="path266"
     d="m 334.08,513.81 0,0 0,-464.49"
     clip-path="url(#clipEmfPath1)"
     style="fill:none;stroke:#212830;stroke-width:1.16999996px;stroke-linecap:square;stroke-linejoin:miter;stroke-miterlimit:10;stroke-dasharray:none;stroke-opacity:1" />
  <path
     transform="scale(0.28222222,0.28222222)"
     id="path268"
     d="m 334.08,49.32 0,0 -2.25,-0.72"
     clip-path="url(#clipEmfPath1)"
     style="fill:none;stroke:#212830;stroke-width:1.16999996px;stroke-linecap:square;stroke-linejoin:miter;stroke-miterlimit:10;stroke-dasharray:none;stroke-opacity:1" />
  <path
     transform="scale(0.28222222,0.28222222)"
     id="path270"
     d="m 323.46,51.66 0,0 10.62,-2.34"
     clip-path="url(#clipEmfPath1)"
     style="fill:none;stroke:#212830;stroke-width:1.16999996px;stroke-linecap:square;stroke-linejoin:miter;stroke-miterlimit:10;stroke-dasharray:none;stroke-opacity:1" />
  <path
     transform="scale(0.28222222,0.28222222)"
     id="path272"
     d="m 329.13,48.96 0,0 -5.58,1.17"
     clip-path="url(#clipEmfPath1)"
     style="fill:none;stroke:#212830;stroke-width:1.16999996px;stroke-linecap:square;stroke-linejoin:miter;stroke-miterlimit:10;stroke-dasharray:none;stroke-opacity:1" />
  <path
     transform="scale(0.28222222,0.28222222)"
     id="path274"
     d="m 323.46,51.66 0,0 -3.06,-0.81"
     clip-path="url(#clipEmfPath1)"
     style="fill:none;stroke:#212830;stroke-width:1.16999996px;stroke-linecap:square;stroke-linejoin:miter;stroke-miterlimit:10;stroke-dasharray:none;stroke-opacity:1" />
  <path
     transform="scale(0.28222222,0.28222222)"
     id="path276"
     d="m 323.46,516.87 0,0 0,-465.21"
     clip-path="url(#clipEmfPath1)"
     style="fill:none;stroke:#212830;stroke-width:1.16999996px;stroke-linecap:square;stroke-linejoin:miter;stroke-miterlimit:10;stroke-dasharray:none;stroke-opacity:1" />
  <path
     transform="scale(0.28222222,0.28222222)"
     id="path278"
     d="m 323.46,516.87 0,0 10.62,-3.06"
     clip-path="url(#clipEmfPath1)"
     style="fill:none;stroke:#212830;stroke-width:1.16999996px;stroke-linecap:square;stroke-linejoin:miter;stroke-miterlimit:10;stroke-dasharray:none;stroke-opacity:1" />
  <path
     transform="scale(0.28222222,0.28222222)"
     id="path280"
     d="m 320.4,516.15 0,0 3.06,0.72"
     clip-path="url(#clipEmfPath1)"
     style="fill:none;stroke:#212830;stroke-width:1.16999996px;stroke-linecap:square;stroke-linejoin:miter;stroke-miterlimit:10;stroke-dasharray:none;stroke-opacity:1" />
</svg>
