<?xml version="1.0" encoding="UTF-8" standalone="no"?>
<svg
   xmlns:dc="http://purl.org/dc/elements/1.1/"
   xmlns:cc="http://creativecommons.org/ns#"
   xmlns:rdf="http://www.w3.org/1999/02/22-rdf-syntax-ns#"
   xmlns:svg="http://www.w3.org/2000/svg"
   xmlns="http://www.w3.org/2000/svg"
   viewBox="0 0 158.75999 158.75999"
   id="svg2"
   height="158.75999mm"
   width="158.75999mm"
   version="1.0">
  <metadata
     id="metadata286">
    <rdf:RDF>
      <cc:Work
         rdf:about="">
        <dc:format>image/svg+xml</dc:format>
        <dc:type
           rdf:resource="http://purl.org/dc/dcmitype/StillImage" />
      </cc:Work>
    </rdf:RDF>
  </metadata>
  <defs
     id="defs4">
    <clipPath
       id="clipEmfPath1"
       clipPathUnits="userSpaceOnUse">
      <path
         id="path7"
         d="m 0,0 0,0 0,563.58 563.58,0 0,-563.58" />
    </clipPath>
    <pattern
       y="0"
       x="0"
       height="6"
       width="6"
       patternUnits="userSpaceOnUse"
       id="EMFhbasepattern" />
  </defs>
  <path
     id="path10"
     d="m 0,0 158.39722,0 0,158.39722 -158.39722,0 z"
     style="fill:#ffffff;fill-opacity:1;fill-rule:evenodd;stroke:none" />
  <path
     id="path12"
     d=""
     clip-path="url(#clipEmfPath1)"
     style="fill:none;stroke:#000000;stroke-width:1px;stroke-linecap:butt;stroke-linejoin:miter;stroke-miterlimit:4;stroke-dasharray:none;stroke-opacity:1" />
  <path
     transform="scale(0.28222222,0.28222222)"
     id="path14"
     d="m 311.13,527.94 0,0 -0.63,0 0,-1.26 0.63,0 0,0 0.63,0 0,1.26 -0.63,0 0,0 z"
     clip-path="url(#clipEmfPath1)"
     style="fill:#212830;fill-opacity:1;fill-rule:nonzero;stroke:#212830;stroke-width:0.09px;stroke-linecap:round;stroke-linejoin:round;stroke-miterlimit:4;stroke-dasharray:none;stroke-opacity:1" />
  <path
     transform="scale(0.28222222,0.28222222)"
     id="path16"
     d="m 311.13,527.94 0,0 -0.63,0 0,-1.26 0.63,0 0,0 0.63,0 0,1.26 -0.63,0 0,0 z"
     clip-path="url(#clipEmfPath1)"
     style="fill:#212830;fill-opacity:1;fill-rule:nonzero;stroke:#212830;stroke-width:0.09px;stroke-linecap:round;stroke-linejoin:round;stroke-miterlimit:4;stroke-dasharray:none;stroke-opacity:1" />
  <path
     transform="scale(0.28222222,0.28222222)"
     id="path18"
     d="m 311.13,527.94 0,0 -0.63,0 0,-1.26 0.63,0 0,0 0.63,0 0,1.26 -0.63,0 0,0 z"
     clip-path="url(#clipEmfPath1)"
     style="fill:#212830;fill-opacity:1;fill-rule:nonzero;stroke:#212830;stroke-width:0.09px;stroke-linecap:round;stroke-linejoin:round;stroke-miterlimit:4;stroke-dasharray:none;stroke-opacity:1" />
  <path
     transform="scale(0.28222222,0.28222222)"
     id="path20"
     d="m 308.79,528.66 0,0 -0.63,0 0,-1.17 0.63,0 0,0 0.63,0 0,1.17 -0.63,0 0,0 z"
     clip-path="url(#clipEmfPath1)"
     style="fill:#212830;fill-opacity:1;fill-rule:nonzero;stroke:#212830;stroke-width:0.09px;stroke-linecap:round;stroke-linejoin:round;stroke-miterlimit:4;stroke-dasharray:none;stroke-opacity:1" />
  <path
     transform="scale(0.28222222,0.28222222)"
     id="path22"
     d="m 228.6,508.32 0,0 -0.63,0 0,-1.26 0.63,0 0,0 0.63,0 0,1.26 -0.63,0 0,0 z"
     clip-path="url(#clipEmfPath1)"
     style="fill:#212830;fill-opacity:1;fill-rule:nonzero;stroke:#212830;stroke-width:0.09px;stroke-linecap:round;stroke-linejoin:round;stroke-miterlimit:4;stroke-dasharray:none;stroke-opacity:1" />
  <path
     transform="scale(0.28222222,0.28222222)"
     id="path24"
     d="m 320.13,508.32 0,0 -0.63,0 0,-1.26 0.63,0 0,0 0.63,0 0,1.26 -0.63,0 0,0 z"
     clip-path="url(#clipEmfPath1)"
     style="fill:#212830;fill-opacity:1;fill-rule:nonzero;stroke:#212830;stroke-width:0.09px;stroke-linecap:round;stroke-linejoin:round;stroke-miterlimit:4;stroke-dasharray:none;stroke-opacity:1" />
  <path
     transform="scale(0.28222222,0.28222222)"
     id="path26"
     d="m 320.13,508.32 0,0 -0.63,0 0,-1.26 0.63,0 0,0 0.63,0 0,1.26 -0.63,0 0,0 z"
     clip-path="url(#clipEmfPath1)"
     style="fill:#212830;fill-opacity:1;fill-rule:nonzero;stroke:#212830;stroke-width:0.09px;stroke-linecap:round;stroke-linejoin:round;stroke-miterlimit:4;stroke-dasharray:none;stroke-opacity:1" />
  <path
     transform="scale(0.28222222,0.28222222)"
     id="path28"
     d="m 323.19,60.66 0,0 -0.63,0 0,-1.26 0.63,0 0,0 0.63,0 0,1.26 -0.63,0 0,0 z"
     clip-path="url(#clipEmfPath1)"
     style="fill:#212830;fill-opacity:1;fill-rule:nonzero;stroke:#212830;stroke-width:0.09px;stroke-linecap:round;stroke-linejoin:round;stroke-miterlimit:4;stroke-dasharray:none;stroke-opacity:1" />
  <path
     transform="scale(0.28222222,0.28222222)"
     id="path30"
     d="m 323.19,60.66 0,0 -0.63,0 0,-1.26 0.63,0 0,0 0.63,0 0,1.26 -0.63,0 0,0 z"
     clip-path="url(#clipEmfPath1)"
     style="fill:#212830;fill-opacity:1;fill-rule:nonzero;stroke:#212830;stroke-width:0.09px;stroke-linecap:round;stroke-linejoin:round;stroke-miterlimit:4;stroke-dasharray:none;stroke-opacity:1" />
  <path
     transform="scale(0.28222222,0.28222222)"
     id="path32"
     d="m 320.13,61.47 0,0 -0.63,0 0,-1.26 0.63,0 0,0 0.63,0 0,1.26 -0.63,0 0,0 z"
     clip-path="url(#clipEmfPath1)"
     style="fill:#212830;fill-opacity:1;fill-rule:nonzero;stroke:#212830;stroke-width:0.09px;stroke-linecap:round;stroke-linejoin:round;stroke-miterlimit:4;stroke-dasharray:none;stroke-opacity:1" />
  <path
     transform="scale(0.28222222,0.28222222)"
     id="path34"
     d="m 320.13,508.32 0,0 -0.63,0 0,-1.26 0.63,0 0,0 0.63,0 0,1.26 -0.63,0 0,0 z"
     clip-path="url(#clipEmfPath1)"
     style="fill:#212830;fill-opacity:1;fill-rule:nonzero;stroke:#212830;stroke-width:0.09px;stroke-linecap:round;stroke-linejoin:round;stroke-miterlimit:4;stroke-dasharray:none;stroke-opacity:1" />
  <path
     transform="scale(0.28222222,0.28222222)"
     id="path36"
     d="m 320.13,61.47 0,0 -0.63,0 0,-1.26 0.63,0 0,0 0.63,0 0,1.26 -0.63,0 0,0 z"
     clip-path="url(#clipEmfPath1)"
     style="fill:#212830;fill-opacity:1;fill-rule:nonzero;stroke:#212830;stroke-width:0.09px;stroke-linecap:round;stroke-linejoin:round;stroke-miterlimit:4;stroke-dasharray:none;stroke-opacity:1" />
  <path
     transform="scale(0.28222222,0.28222222)"
     id="path38"
     d="m 323.19,60.66 0,0 -0.63,0 0,-1.26 0.63,0 0,0 0.63,0 0,1.26 -0.63,0 0,0 z"
     clip-path="url(#clipEmfPath1)"
     style="fill:#212830;fill-opacity:1;fill-rule:nonzero;stroke:#212830;stroke-width:0.09px;stroke-linecap:round;stroke-linejoin:round;stroke-miterlimit:4;stroke-dasharray:none;stroke-opacity:1" />
  <path
     transform="scale(0.28222222,0.28222222)"
     id="path40"
     d="m 228.6,37.98 0,0 -0.63,0 0,-1.26 0.63,0 0,0 0.63,0 0,1.26 -0.63,0 0,0 z"
     clip-path="url(#clipEmfPath1)"
     style="fill:#212830;fill-opacity:1;fill-rule:nonzero;stroke:#212830;stroke-width:0.09px;stroke-linecap:round;stroke-linejoin:round;stroke-miterlimit:4;stroke-dasharray:none;stroke-opacity:1" />
  <path
     transform="scale(0.28222222,0.28222222)"
     id="path42"
     d="m 320.13,61.47 0,0 -0.63,0 0,-1.26 0.63,0 0,0 0.63,0 0,1.26 -0.63,0 0,0 z"
     clip-path="url(#clipEmfPath1)"
     style="fill:#212830;fill-opacity:1;fill-rule:nonzero;stroke:#212830;stroke-width:0.09px;stroke-linecap:round;stroke-linejoin:round;stroke-miterlimit:4;stroke-dasharray:none;stroke-opacity:1" />
  <path
     transform="scale(0.28222222,0.28222222)"
     id="path44"
     d="m 323.19,60.66 0,0 -0.63,0 0,-1.26 0.63,0 0,0 0.63,0 0,1.26 -0.63,0 0,0 z"
     clip-path="url(#clipEmfPath1)"
     style="fill:#212830;fill-opacity:1;fill-rule:nonzero;stroke:#212830;stroke-width:0.09px;stroke-linecap:round;stroke-linejoin:round;stroke-miterlimit:4;stroke-dasharray:none;stroke-opacity:1" />
  <path
     transform="scale(0.28222222,0.28222222)"
     id="path46"
     d="m 320.13,61.47 0,0 -0.63,0 0,-1.26 0.63,0 0,0 0.63,0 0,1.26 -0.63,0 0,0 z"
     clip-path="url(#clipEmfPath1)"
     style="fill:#212830;fill-opacity:1;fill-rule:nonzero;stroke:#212830;stroke-width:0.09px;stroke-linecap:round;stroke-linejoin:round;stroke-miterlimit:4;stroke-dasharray:none;stroke-opacity:1" />
  <path
     transform="scale(0.28222222,0.28222222)"
     id="path48"
     d="m 228.6,37.98 0,0 -0.63,0 0,-1.26 0.63,0 0,0 0.63,0 0,1.26 -0.63,0 0,0 z"
     clip-path="url(#clipEmfPath1)"
     style="fill:#212830;fill-opacity:1;fill-rule:nonzero;stroke:#212830;stroke-width:0.09px;stroke-linecap:round;stroke-linejoin:round;stroke-miterlimit:4;stroke-dasharray:none;stroke-opacity:1" />
  <path
     transform="scale(0.28222222,0.28222222)"
     id="path50"
     d="m 231.66,37.26 0,0 -0.63,0 0,-1.26 0.63,0 0,0 0.63,0 0,1.26 -0.63,0 0,0 z"
     clip-path="url(#clipEmfPath1)"
     style="fill:#212830;fill-opacity:1;fill-rule:nonzero;stroke:#212830;stroke-width:0.09px;stroke-linecap:round;stroke-linejoin:round;stroke-miterlimit:4;stroke-dasharray:none;stroke-opacity:1" />
  <path
     transform="scale(0.28222222,0.28222222)"
     id="path52"
     d="m 228.6,508.32 0,0 -0.63,0 0,-1.26 0.63,0 0,0 0.63,0 0,1.26 -0.63,0 0,0 z"
     clip-path="url(#clipEmfPath1)"
     style="fill:#212830;fill-opacity:1;fill-rule:nonzero;stroke:#212830;stroke-width:0.09px;stroke-linecap:round;stroke-linejoin:round;stroke-miterlimit:4;stroke-dasharray:none;stroke-opacity:1" />
  <path
     transform="scale(0.28222222,0.28222222)"
     id="path54"
     d="m 320.13,525.69 0,0 -0.63,0 0,-1.26 0.63,0 0,0 0.63,0 0,1.26 -0.63,0 0,0 z"
     clip-path="url(#clipEmfPath1)"
     style="fill:#212830;fill-opacity:1;fill-rule:nonzero;stroke:#212830;stroke-width:0.09px;stroke-linecap:round;stroke-linejoin:round;stroke-miterlimit:4;stroke-dasharray:none;stroke-opacity:1" />
  <path
     transform="scale(0.28222222,0.28222222)"
     id="path56"
     d="m 320.13,525.69 0,0 -0.63,0 0,-1.26 0.63,0 0,0 0.63,0 0,1.26 -0.63,0 0,0 z"
     clip-path="url(#clipEmfPath1)"
     style="fill:#212830;fill-opacity:1;fill-rule:nonzero;stroke:#212830;stroke-width:0.09px;stroke-linecap:round;stroke-linejoin:round;stroke-miterlimit:4;stroke-dasharray:none;stroke-opacity:1" />
  <path
     transform="scale(0.28222222,0.28222222)"
     id="path58"
     d="m 236.97,35.73 0,0 -0.63,0 0,-1.26 0.63,0 0,0 0.63,0 0,1.26 -0.63,0 0,0 z"
     clip-path="url(#clipEmfPath1)"
     style="fill:#212830;fill-opacity:1;fill-rule:nonzero;stroke:#212830;stroke-width:0.09px;stroke-linecap:round;stroke-linejoin:round;stroke-miterlimit:4;stroke-dasharray:none;stroke-opacity:1" />
  <path
     transform="scale(0.28222222,0.28222222)"
     id="path60"
     d="m 239.94,34.92 0,0 -0.63,0 0,-1.26 0.63,0 0,0 0.63,0 0,1.26 -0.63,0 0,0 z"
     clip-path="url(#clipEmfPath1)"
     style="fill:#212830;fill-opacity:1;fill-rule:nonzero;stroke:#212830;stroke-width:0.09px;stroke-linecap:round;stroke-linejoin:round;stroke-miterlimit:4;stroke-dasharray:none;stroke-opacity:1" />
  <path
     transform="scale(0.28222222,0.28222222)"
     id="path62"
     d="m 328.5,59.13 0,0 -0.63,0 0,-1.26 0.63,0 0,0 0.63,0 0,1.26 -0.63,0 0,0 z"
     clip-path="url(#clipEmfPath1)"
     style="fill:#212830;fill-opacity:1;fill-rule:nonzero;stroke:#212830;stroke-width:0.09px;stroke-linecap:round;stroke-linejoin:round;stroke-miterlimit:4;stroke-dasharray:none;stroke-opacity:1" />
  <path
     transform="scale(0.28222222,0.28222222)"
     id="path64"
     d="m 328.5,59.13 0,0 -0.63,0 0,-1.26 0.63,0 0,0 0.63,0 0,1.26 -0.63,0 0,0 z"
     clip-path="url(#clipEmfPath1)"
     style="fill:#212830;fill-opacity:1;fill-rule:nonzero;stroke:#212830;stroke-width:0.09px;stroke-linecap:round;stroke-linejoin:round;stroke-miterlimit:4;stroke-dasharray:none;stroke-opacity:1" />
  <path
     transform="scale(0.28222222,0.28222222)"
     id="path66"
     d="m 328.5,59.13 0,0 -0.63,0 0,-1.26 0.63,0 0,0 0.63,0 0,1.26 -0.63,0 0,0 z"
     clip-path="url(#clipEmfPath1)"
     style="fill:#212830;fill-opacity:1;fill-rule:nonzero;stroke:#212830;stroke-width:0.09px;stroke-linecap:round;stroke-linejoin:round;stroke-miterlimit:4;stroke-dasharray:none;stroke-opacity:1" />
  <path
     transform="scale(0.28222222,0.28222222)"
     id="path68"
     d="m 331.47,58.41 0,0 -0.54,0 0,-1.26 0.54,0 0,0 0.63,0 0,1.26 -0.63,0 0,0 z"
     clip-path="url(#clipEmfPath1)"
     style="fill:#212830;fill-opacity:1;fill-rule:nonzero;stroke:#212830;stroke-width:0.09px;stroke-linecap:round;stroke-linejoin:round;stroke-miterlimit:4;stroke-dasharray:none;stroke-opacity:1" />
  <path
     transform="scale(0.28222222,0.28222222)"
     id="path70"
     d="m 308.79,528.12 0,0 2.34,-0.81"
     clip-path="url(#clipEmfPath1)"
     style="fill:none;stroke:#212830;stroke-width:1.16999996px;stroke-linecap:square;stroke-linejoin:miter;stroke-miterlimit:10;stroke-dasharray:none;stroke-opacity:1" />
  <path
     transform="scale(0.28222222,0.28222222)"
     id="path72"
     d="m 311.13,505.35 0,0 0,21.96 -2.34,0.81"
     clip-path="url(#clipEmfPath1)"
     style="fill:none;stroke:#212830;stroke-width:1.16999996px;stroke-linecap:square;stroke-linejoin:miter;stroke-miterlimit:10;stroke-dasharray:none;stroke-opacity:1" />
  <path
     transform="scale(0.28222222,0.28222222)"
     id="path74"
     d="m 308.79,504.63 0,0 0,23.49 -80.19,-20.43"
     clip-path="url(#clipEmfPath1)"
     style="fill:none;stroke:#212830;stroke-width:1.16999996px;stroke-linecap:square;stroke-linejoin:miter;stroke-miterlimit:10;stroke-dasharray:none;stroke-opacity:1" />
  <path
     transform="scale(0.28222222,0.28222222)"
     id="path76"
     d="m 228.6,507.69 0,0 0,-470.34"
     clip-path="url(#clipEmfPath1)"
     style="fill:none;stroke:#212830;stroke-width:1.16999996px;stroke-linecap:square;stroke-linejoin:miter;stroke-miterlimit:10;stroke-dasharray:none;stroke-opacity:1" />
  <path
     transform="scale(0.28222222,0.28222222)"
     id="path78"
     d="m 320.13,507.69 0,0 -11.34,-3.06"
     clip-path="url(#clipEmfPath1)"
     style="fill:none;stroke:#212830;stroke-width:1.16999996px;stroke-linecap:square;stroke-linejoin:miter;stroke-miterlimit:10;stroke-dasharray:none;stroke-opacity:1" />
  <path
     transform="scale(0.28222222,0.28222222)"
     id="path80"
     d="m 320.13,60.84 0,0 0,446.85"
     clip-path="url(#clipEmfPath1)"
     style="fill:none;stroke:#212830;stroke-width:1.16999996px;stroke-linecap:square;stroke-linejoin:miter;stroke-miterlimit:10;stroke-dasharray:none;stroke-opacity:1" />
  <path
     transform="scale(0.28222222,0.28222222)"
     id="path82"
     d="m 311.13,527.31 0,0 0,-21.96"
     clip-path="url(#clipEmfPath1)"
     style="fill:none;stroke:#212830;stroke-width:1.16999996px;stroke-linecap:square;stroke-linejoin:miter;stroke-miterlimit:10;stroke-dasharray:none;stroke-opacity:1" />
  <path
     transform="scale(0.28222222,0.28222222)"
     id="path84"
     d="m 311.13,527.31 0,0 0,-21.96"
     clip-path="url(#clipEmfPath1)"
     style="fill:none;stroke:#212830;stroke-width:1.16999996px;stroke-linecap:square;stroke-linejoin:miter;stroke-miterlimit:10;stroke-dasharray:none;stroke-opacity:1" />
  <path
     transform="scale(0.28222222,0.28222222)"
     id="path86"
     d="m 320.13,507.69 0,0 0,-446.85 -91.53,-23.49"
     clip-path="url(#clipEmfPath1)"
     style="fill:none;stroke:#212830;stroke-width:1.16999996px;stroke-linecap:square;stroke-linejoin:miter;stroke-miterlimit:10;stroke-dasharray:none;stroke-opacity:1" />
  <path
     transform="scale(0.28222222,0.28222222)"
     id="path88"
     d="m 308.79,504.63 0,0 0,23.49"
     clip-path="url(#clipEmfPath1)"
     style="fill:none;stroke:#212830;stroke-width:1.16999996px;stroke-linecap:square;stroke-linejoin:miter;stroke-miterlimit:10;stroke-dasharray:none;stroke-opacity:1" />
  <path
     transform="scale(0.28222222,0.28222222)"
     id="path90"
     d="m 308.79,504.63 0,0 11.34,3.06"
     clip-path="url(#clipEmfPath1)"
     style="fill:none;stroke:#212830;stroke-width:1.16999996px;stroke-linecap:square;stroke-linejoin:miter;stroke-miterlimit:10;stroke-dasharray:none;stroke-opacity:1" />
  <path
     transform="scale(0.28222222,0.28222222)"
     id="path92"
     d="m 228.6,507.69 0,0 0,-470.34"
     clip-path="url(#clipEmfPath1)"
     style="fill:none;stroke:#212830;stroke-width:1.16999996px;stroke-linecap:square;stroke-linejoin:miter;stroke-miterlimit:10;stroke-dasharray:none;stroke-opacity:1" />
  <path
     transform="scale(0.28222222,0.28222222)"
     id="path94"
     d="m 308.79,528.12 0,0 2.34,-0.81"
     clip-path="url(#clipEmfPath1)"
     style="fill:none;stroke:#212830;stroke-width:1.16999996px;stroke-linecap:square;stroke-linejoin:miter;stroke-miterlimit:10;stroke-dasharray:none;stroke-opacity:1" />
  <path
     transform="scale(0.28222222,0.28222222)"
     id="path96"
     d="m 228.6,507.69 0,0 80.19,20.43"
     clip-path="url(#clipEmfPath1)"
     style="fill:none;stroke:#212830;stroke-width:1.16999996px;stroke-linecap:square;stroke-linejoin:miter;stroke-miterlimit:10;stroke-dasharray:none;stroke-opacity:1" />
  <path
     transform="scale(0.28222222,0.28222222)"
     id="path98"
     d="m 308.79,528.12 0,0 2.34,-0.81"
     clip-path="url(#clipEmfPath1)"
     style="fill:none;stroke:#212830;stroke-width:1.16999996px;stroke-linecap:square;stroke-linejoin:miter;stroke-miterlimit:10;stroke-dasharray:none;stroke-opacity:1" />
  <path
     transform="scale(0.28222222,0.28222222)"
     id="path100"
     d="m 311.13,527.31 0,0 -2.34,0.81 -80.19,-20.43"
     clip-path="url(#clipEmfPath1)"
     style="fill:none;stroke:#212830;stroke-width:1.16999996px;stroke-linecap:square;stroke-linejoin:miter;stroke-miterlimit:10;stroke-dasharray:none;stroke-opacity:1" />
  <path
     transform="scale(0.28222222,0.28222222)"
     id="path102"
     d="m 308.79,528.12 0,0 2.34,-0.81"
     clip-path="url(#clipEmfPath1)"
     style="fill:none;stroke:#212830;stroke-width:1.16999996px;stroke-linecap:square;stroke-linejoin:miter;stroke-miterlimit:10;stroke-dasharray:none;stroke-opacity:1" />
  <path
     transform="scale(0.28222222,0.28222222)"
     id="path104"
     d="m 308.79,528.12 0,0 -80.19,-20.43"
     clip-path="url(#clipEmfPath1)"
     style="fill:none;stroke:#212830;stroke-width:1.16999996px;stroke-linecap:square;stroke-linejoin:miter;stroke-miterlimit:10;stroke-dasharray:none;stroke-opacity:1" />
  <path
     transform="scale(0.28222222,0.28222222)"
     id="path106"
     d="m 308.79,528.12 0,0 2.34,-0.81"
     clip-path="url(#clipEmfPath1)"
     style="fill:none;stroke:#212830;stroke-width:1.16999996px;stroke-linecap:square;stroke-linejoin:miter;stroke-miterlimit:10;stroke-dasharray:none;stroke-opacity:1" />
  <path
     transform="scale(0.28222222,0.28222222)"
     id="path108"
     d="m 228.6,507.69 0,0 80.19,20.43"
     clip-path="url(#clipEmfPath1)"
     style="fill:none;stroke:#212830;stroke-width:1.16999996px;stroke-linecap:square;stroke-linejoin:miter;stroke-miterlimit:10;stroke-dasharray:none;stroke-opacity:1" />
  <path
     transform="scale(0.28222222,0.28222222)"
     id="path110"
     d="m 320.13,60.84 0,0 3.06,-0.81"
     clip-path="url(#clipEmfPath1)"
     style="fill:none;stroke:#212830;stroke-width:1.16999996px;stroke-linecap:square;stroke-linejoin:miter;stroke-miterlimit:10;stroke-dasharray:none;stroke-opacity:1" />
  <path
     transform="scale(0.28222222,0.28222222)"
     id="path112"
     d="m 323.19,60.03 0,0 -3.06,0.81 0,446.85"
     clip-path="url(#clipEmfPath1)"
     style="fill:none;stroke:#212830;stroke-width:1.16999996px;stroke-linecap:square;stroke-linejoin:miter;stroke-miterlimit:10;stroke-dasharray:none;stroke-opacity:1" />
  <path
     transform="scale(0.28222222,0.28222222)"
     id="path114"
     d="m 320.13,60.84 0,0 3.06,-0.81"
     clip-path="url(#clipEmfPath1)"
     style="fill:none;stroke:#212830;stroke-width:1.16999996px;stroke-linecap:square;stroke-linejoin:miter;stroke-miterlimit:10;stroke-dasharray:none;stroke-opacity:1" />
  <path
     transform="scale(0.28222222,0.28222222)"
     id="path116"
     d="m 320.13,60.84 0,0 0,446.85"
     clip-path="url(#clipEmfPath1)"
     style="fill:none;stroke:#212830;stroke-width:1.16999996px;stroke-linecap:square;stroke-linejoin:miter;stroke-miterlimit:10;stroke-dasharray:none;stroke-opacity:1" />
  <path
     transform="scale(0.28222222,0.28222222)"
     id="path118"
     d="m 323.19,60.03 0,0 -3.06,0.81 0,446.85"
     clip-path="url(#clipEmfPath1)"
     style="fill:none;stroke:#212830;stroke-width:1.16999996px;stroke-linecap:square;stroke-linejoin:miter;stroke-miterlimit:10;stroke-dasharray:none;stroke-opacity:1" />
  <path
     transform="scale(0.28222222,0.28222222)"
     id="path120"
     d="m 320.13,507.69 0,0 0,-446.85"
     clip-path="url(#clipEmfPath1)"
     style="fill:none;stroke:#212830;stroke-width:1.16999996px;stroke-linecap:square;stroke-linejoin:miter;stroke-miterlimit:10;stroke-dasharray:none;stroke-opacity:1" />
  <path
     transform="scale(0.28222222,0.28222222)"
     id="path122"
     d="m 323.19,60.03 0,0 -3.06,0.81"
     clip-path="url(#clipEmfPath1)"
     style="fill:none;stroke:#212830;stroke-width:1.16999996px;stroke-linecap:square;stroke-linejoin:miter;stroke-miterlimit:10;stroke-dasharray:none;stroke-opacity:1" />
  <path
     transform="scale(0.28222222,0.28222222)"
     id="path124"
     d="m 231.66,36.63 0,0 91.53,23.4"
     clip-path="url(#clipEmfPath1)"
     style="fill:none;stroke:#212830;stroke-width:1.16999996px;stroke-linecap:square;stroke-linejoin:miter;stroke-miterlimit:10;stroke-dasharray:none;stroke-opacity:1" />
  <path
     transform="scale(0.28222222,0.28222222)"
     id="path126"
     d="m 228.6,37.35 0,0 3.06,-0.72"
     clip-path="url(#clipEmfPath1)"
     style="fill:none;stroke:#212830;stroke-width:1.16999996px;stroke-linecap:square;stroke-linejoin:miter;stroke-miterlimit:10;stroke-dasharray:none;stroke-opacity:1" />
  <path
     transform="scale(0.28222222,0.28222222)"
     id="path128"
     d="m 228.6,37.35 0,0 91.53,23.49"
     clip-path="url(#clipEmfPath1)"
     style="fill:none;stroke:#212830;stroke-width:1.16999996px;stroke-linecap:square;stroke-linejoin:miter;stroke-miterlimit:10;stroke-dasharray:none;stroke-opacity:1" />
  <path
     transform="scale(0.28222222,0.28222222)"
     id="path130"
     d="m 323.19,60.03 0,0 -3.06,0.81"
     clip-path="url(#clipEmfPath1)"
     style="fill:none;stroke:#212830;stroke-width:1.16999996px;stroke-linecap:square;stroke-linejoin:miter;stroke-miterlimit:10;stroke-dasharray:none;stroke-opacity:1" />
  <path
     transform="scale(0.28222222,0.28222222)"
     id="path132"
     d="m 228.6,37.35 0,0 91.53,23.49"
     clip-path="url(#clipEmfPath1)"
     style="fill:none;stroke:#212830;stroke-width:1.16999996px;stroke-linecap:square;stroke-linejoin:miter;stroke-miterlimit:10;stroke-dasharray:none;stroke-opacity:1" />
  <path
     transform="scale(0.28222222,0.28222222)"
     id="path134"
     d="m 323.19,60.03 0,0 -91.53,-23.4"
     clip-path="url(#clipEmfPath1)"
     style="fill:none;stroke:#212830;stroke-width:1.16999996px;stroke-linecap:square;stroke-linejoin:miter;stroke-miterlimit:10;stroke-dasharray:none;stroke-opacity:1" />
  <path
     transform="scale(0.28222222,0.28222222)"
     id="path136"
     d="m 320.13,60.84 0,0 3.06,-0.81"
     clip-path="url(#clipEmfPath1)"
     style="fill:none;stroke:#212830;stroke-width:1.16999996px;stroke-linecap:square;stroke-linejoin:miter;stroke-miterlimit:10;stroke-dasharray:none;stroke-opacity:1" />
  <path
     transform="scale(0.28222222,0.28222222)"
     id="path138"
     d="m 228.6,37.35 0,0 91.53,23.49"
     clip-path="url(#clipEmfPath1)"
     style="fill:none;stroke:#212830;stroke-width:1.16999996px;stroke-linecap:square;stroke-linejoin:miter;stroke-miterlimit:10;stroke-dasharray:none;stroke-opacity:1" />
  <path
     transform="scale(0.28222222,0.28222222)"
     id="path140"
     d="m 231.66,36.63 0,0 -3.06,0.72"
     clip-path="url(#clipEmfPath1)"
     style="fill:none;stroke:#212830;stroke-width:1.16999996px;stroke-linecap:square;stroke-linejoin:miter;stroke-miterlimit:10;stroke-dasharray:none;stroke-opacity:1" />
  <path
     transform="scale(0.28222222,0.28222222)"
     id="path142"
     d="m 228.6,507.69 0,0 0,-470.34 3.06,-0.72"
     clip-path="url(#clipEmfPath1)"
     style="fill:none;stroke:#212830;stroke-width:1.16999996px;stroke-linecap:square;stroke-linejoin:miter;stroke-miterlimit:10;stroke-dasharray:none;stroke-opacity:1" />
  <path
     transform="scale(0.28222222,0.28222222)"
     id="path144"
     d="m 231.66,36.63 0,0 -3.06,0.72"
     clip-path="url(#clipEmfPath1)"
     style="fill:none;stroke:#212830;stroke-width:1.16999996px;stroke-linecap:square;stroke-linejoin:miter;stroke-miterlimit:10;stroke-dasharray:none;stroke-opacity:1" />
  <path
     transform="scale(0.28222222,0.28222222)"
     id="path146"
     d="m 228.6,507.69 0,0 0,-470.34"
     clip-path="url(#clipEmfPath1)"
     style="fill:none;stroke:#212830;stroke-width:1.16999996px;stroke-linecap:square;stroke-linejoin:miter;stroke-miterlimit:10;stroke-dasharray:none;stroke-opacity:1" />
  <path
     transform="scale(0.28222222,0.28222222)"
     id="path148"
     d="m 231.66,36.63 0,0 -3.06,0.72 0,470.34"
     clip-path="url(#clipEmfPath1)"
     style="fill:none;stroke:#212830;stroke-width:1.16999996px;stroke-linecap:square;stroke-linejoin:miter;stroke-miterlimit:10;stroke-dasharray:none;stroke-opacity:1" />
  <path
     transform="scale(0.28222222,0.28222222)"
     id="path150"
     d="m 231.66,36.63 0,0 -3.06,0.72"
     clip-path="url(#clipEmfPath1)"
     style="fill:none;stroke:#212830;stroke-width:1.16999996px;stroke-linecap:square;stroke-linejoin:miter;stroke-miterlimit:10;stroke-dasharray:none;stroke-opacity:1" />
  <path
     transform="scale(0.28222222,0.28222222)"
     id="path152"
     d="m 317.16,525.78 0,0 2.97,-0.72"
     clip-path="url(#clipEmfPath1)"
     style="fill:none;stroke:#212830;stroke-width:1.16999996px;stroke-linecap:square;stroke-linejoin:miter;stroke-miterlimit:10;stroke-dasharray:none;stroke-opacity:1" />
  <path
     transform="scale(0.28222222,0.28222222)"
     id="path154"
     d="m 311.13,524.34 0,0 6.03,1.44"
     clip-path="url(#clipEmfPath1)"
     style="fill:none;stroke:#212830;stroke-width:1.16999996px;stroke-linecap:square;stroke-linejoin:miter;stroke-miterlimit:10;stroke-dasharray:none;stroke-opacity:1" />
  <path
     transform="scale(0.28222222,0.28222222)"
     id="path156"
     d="m 236.97,35.1 0,0 0,2.97"
     clip-path="url(#clipEmfPath1)"
     style="fill:none;stroke:#212830;stroke-width:1.16999996px;stroke-linecap:square;stroke-linejoin:miter;stroke-miterlimit:10;stroke-dasharray:none;stroke-opacity:1" />
  <path
     transform="scale(0.28222222,0.28222222)"
     id="path158"
     d="m 328.5,58.5 0,0 -91.53,-23.4"
     clip-path="url(#clipEmfPath1)"
     style="fill:none;stroke:#212830;stroke-width:1.16999996px;stroke-linecap:square;stroke-linejoin:miter;stroke-miterlimit:10;stroke-dasharray:none;stroke-opacity:1" />
  <path
     transform="scale(0.28222222,0.28222222)"
     id="path160"
     d="m 320.13,525.06 0,0 -2.97,0.72 0,-18.9"
     clip-path="url(#clipEmfPath1)"
     style="fill:none;stroke:#212830;stroke-width:1.16999996px;stroke-linecap:square;stroke-linejoin:miter;stroke-miterlimit:10;stroke-dasharray:none;stroke-opacity:1" />
  <path
     transform="scale(0.28222222,0.28222222)"
     id="path162"
     d="m 320.13,525.06 0,0 0,-17.37"
     clip-path="url(#clipEmfPath1)"
     style="fill:none;stroke:#212830;stroke-width:1.16999996px;stroke-linecap:square;stroke-linejoin:miter;stroke-miterlimit:10;stroke-dasharray:none;stroke-opacity:1" />
  <path
     transform="scale(0.28222222,0.28222222)"
     id="path164"
     d="m 317.16,506.88 0,0 0,18.9 -6.03,-1.44"
     clip-path="url(#clipEmfPath1)"
     style="fill:none;stroke:#212830;stroke-width:1.16999996px;stroke-linecap:square;stroke-linejoin:miter;stroke-miterlimit:10;stroke-dasharray:none;stroke-opacity:1" />
  <path
     transform="scale(0.28222222,0.28222222)"
     id="path166"
     d="m 236.97,35.1 0,0 91.53,23.4"
     clip-path="url(#clipEmfPath1)"
     style="fill:none;stroke:#212830;stroke-width:1.16999996px;stroke-linecap:square;stroke-linejoin:miter;stroke-miterlimit:10;stroke-dasharray:none;stroke-opacity:1" />
  <path
     transform="scale(0.28222222,0.28222222)"
     id="path168"
     d="m 320.13,525.06 0,0 0,-17.37"
     clip-path="url(#clipEmfPath1)"
     style="fill:none;stroke:#212830;stroke-width:1.16999996px;stroke-linecap:square;stroke-linejoin:miter;stroke-miterlimit:10;stroke-dasharray:none;stroke-opacity:1" />
  <path
     transform="scale(0.28222222,0.28222222)"
     id="path170"
     d="m 328.5,58.5 0,0 -91.53,-23.4"
     clip-path="url(#clipEmfPath1)"
     style="fill:none;stroke:#212830;stroke-width:1.16999996px;stroke-linecap:square;stroke-linejoin:miter;stroke-miterlimit:10;stroke-dasharray:none;stroke-opacity:1" />
  <path
     transform="scale(0.28222222,0.28222222)"
     id="path172"
     d="m 317.16,525.78 0,0 0,-18.9"
     clip-path="url(#clipEmfPath1)"
     style="fill:none;stroke:#212830;stroke-width:1.16999996px;stroke-linecap:square;stroke-linejoin:miter;stroke-miterlimit:10;stroke-dasharray:none;stroke-opacity:1" />
  <path
     transform="scale(0.28222222,0.28222222)"
     id="path174"
     d="m 236.97,35.1 0,0 0,2.97"
     clip-path="url(#clipEmfPath1)"
     style="fill:none;stroke:#212830;stroke-width:1.16999996px;stroke-linecap:square;stroke-linejoin:miter;stroke-miterlimit:10;stroke-dasharray:none;stroke-opacity:1" />
  <path
     transform="scale(0.28222222,0.28222222)"
     id="path176"
     d="m 311.13,524.34 0,0 6.03,1.44 2.97,-0.72"
     clip-path="url(#clipEmfPath1)"
     style="fill:none;stroke:#212830;stroke-width:1.16999996px;stroke-linecap:square;stroke-linejoin:miter;stroke-miterlimit:10;stroke-dasharray:none;stroke-opacity:1" />
  <path
     transform="scale(0.28222222,0.28222222)"
     id="path178"
     d="m 317.16,525.78 0,0 2.97,-0.72"
     clip-path="url(#clipEmfPath1)"
     style="fill:none;stroke:#212830;stroke-width:1.16999996px;stroke-linecap:square;stroke-linejoin:miter;stroke-miterlimit:10;stroke-dasharray:none;stroke-opacity:1" />
  <path
     transform="scale(0.28222222,0.28222222)"
     id="path180"
     d="m 311.13,524.34 0,0 6.03,1.44"
     clip-path="url(#clipEmfPath1)"
     style="fill:none;stroke:#212830;stroke-width:1.16999996px;stroke-linecap:square;stroke-linejoin:miter;stroke-miterlimit:10;stroke-dasharray:none;stroke-opacity:1" />
  <path
     transform="scale(0.28222222,0.28222222)"
     id="path182"
     d="m 320.13,525.06 0,0 -2.97,0.72"
     clip-path="url(#clipEmfPath1)"
     style="fill:none;stroke:#212830;stroke-width:1.16999996px;stroke-linecap:square;stroke-linejoin:miter;stroke-miterlimit:10;stroke-dasharray:none;stroke-opacity:1" />
  <path
     transform="scale(0.28222222,0.28222222)"
     id="path184"
     d="m 320.13,525.06 0,0 -2.97,0.72"
     clip-path="url(#clipEmfPath1)"
     style="fill:none;stroke:#212830;stroke-width:1.16999996px;stroke-linecap:square;stroke-linejoin:miter;stroke-miterlimit:10;stroke-dasharray:none;stroke-opacity:1" />
  <path
     transform="scale(0.28222222,0.28222222)"
     id="path186"
     d="m 317.16,525.78 0,0 -6.03,-1.44"
     clip-path="url(#clipEmfPath1)"
     style="fill:none;stroke:#212830;stroke-width:1.16999996px;stroke-linecap:square;stroke-linejoin:miter;stroke-miterlimit:10;stroke-dasharray:none;stroke-opacity:1" />
  <path
     transform="scale(0.28222222,0.28222222)"
     id="path188"
     d="m 317.16,525.78 0,0 -6.03,-1.44"
     clip-path="url(#clipEmfPath1)"
     style="fill:none;stroke:#212830;stroke-width:1.16999996px;stroke-linecap:square;stroke-linejoin:miter;stroke-miterlimit:10;stroke-dasharray:none;stroke-opacity:1" />
  <path
     transform="scale(0.28222222,0.28222222)"
     id="path190"
     d="m 317.16,525.78 0,0 2.97,-0.72"
     clip-path="url(#clipEmfPath1)"
     style="fill:none;stroke:#212830;stroke-width:1.16999996px;stroke-linecap:square;stroke-linejoin:miter;stroke-miterlimit:10;stroke-dasharray:none;stroke-opacity:1" />
  <path
     transform="scale(0.28222222,0.28222222)"
     id="path192"
     d="m 239.94,34.29 0,0 -2.97,0.81 0,2.97"
     clip-path="url(#clipEmfPath1)"
     style="fill:none;stroke:#212830;stroke-width:1.16999996px;stroke-linecap:square;stroke-linejoin:miter;stroke-miterlimit:10;stroke-dasharray:none;stroke-opacity:1" />
  <path
     transform="scale(0.28222222,0.28222222)"
     id="path194"
     d="m 236.97,35.1 0,0 2.97,-0.81"
     clip-path="url(#clipEmfPath1)"
     style="fill:none;stroke:#212830;stroke-width:1.16999996px;stroke-linecap:square;stroke-linejoin:miter;stroke-miterlimit:10;stroke-dasharray:none;stroke-opacity:1" />
  <path
     transform="scale(0.28222222,0.28222222)"
     id="path196"
     d="m 236.97,35.1 0,0 0,2.97"
     clip-path="url(#clipEmfPath1)"
     style="fill:none;stroke:#212830;stroke-width:1.16999996px;stroke-linecap:square;stroke-linejoin:miter;stroke-miterlimit:10;stroke-dasharray:none;stroke-opacity:1" />
  <path
     transform="scale(0.28222222,0.28222222)"
     id="path198"
     d="m 239.94,34.29 0,0 -2.97,0.81"
     clip-path="url(#clipEmfPath1)"
     style="fill:none;stroke:#212830;stroke-width:1.16999996px;stroke-linecap:square;stroke-linejoin:miter;stroke-miterlimit:10;stroke-dasharray:none;stroke-opacity:1" />
  <path
     transform="scale(0.28222222,0.28222222)"
     id="path200"
     d="m 236.97,35.1 0,0 2.97,-0.81"
     clip-path="url(#clipEmfPath1)"
     style="fill:none;stroke:#212830;stroke-width:1.16999996px;stroke-linecap:square;stroke-linejoin:miter;stroke-miterlimit:10;stroke-dasharray:none;stroke-opacity:1" />
  <path
     transform="scale(0.28222222,0.28222222)"
     id="path202"
     d="m 236.97,38.07 0,0 0,-2.97 2.97,-0.81"
     clip-path="url(#clipEmfPath1)"
     style="fill:none;stroke:#212830;stroke-width:1.16999996px;stroke-linecap:square;stroke-linejoin:miter;stroke-miterlimit:10;stroke-dasharray:none;stroke-opacity:1" />
  <path
     transform="scale(0.28222222,0.28222222)"
     id="path204"
     d="m 331.47,57.78 0,0 -2.97,0.72 -91.53,-23.4 2.97,-0.81"
     clip-path="url(#clipEmfPath1)"
     style="fill:none;stroke:#212830;stroke-width:1.16999996px;stroke-linecap:square;stroke-linejoin:miter;stroke-miterlimit:10;stroke-dasharray:none;stroke-opacity:1" />
  <path
     transform="scale(0.28222222,0.28222222)"
     id="path206"
     d="m 239.94,34.29 0,0 -2.97,0.81"
     clip-path="url(#clipEmfPath1)"
     style="fill:none;stroke:#212830;stroke-width:1.16999996px;stroke-linecap:square;stroke-linejoin:miter;stroke-miterlimit:10;stroke-dasharray:none;stroke-opacity:1" />
  <path
     transform="scale(0.28222222,0.28222222)"
     id="path208"
     d="m 328.5,58.5 0,0 -91.53,-23.4"
     clip-path="url(#clipEmfPath1)"
     style="fill:none;stroke:#212830;stroke-width:1.16999996px;stroke-linecap:square;stroke-linejoin:miter;stroke-miterlimit:10;stroke-dasharray:none;stroke-opacity:1" />
  <path
     transform="scale(0.28222222,0.28222222)"
     id="path210"
     d="m 331.47,57.78 0,0 -91.53,-23.49"
     clip-path="url(#clipEmfPath1)"
     style="fill:none;stroke:#212830;stroke-width:1.16999996px;stroke-linecap:square;stroke-linejoin:miter;stroke-miterlimit:10;stroke-dasharray:none;stroke-opacity:1" />
  <path
     transform="scale(0.28222222,0.28222222)"
     id="path212"
     d="m 236.97,35.1 0,0 91.53,23.4"
     clip-path="url(#clipEmfPath1)"
     style="fill:none;stroke:#212830;stroke-width:1.16999996px;stroke-linecap:square;stroke-linejoin:miter;stroke-miterlimit:10;stroke-dasharray:none;stroke-opacity:1" />
  <path
     transform="scale(0.28222222,0.28222222)"
     id="path214"
     d="m 331.47,57.78 0,0 -91.53,-23.49"
     clip-path="url(#clipEmfPath1)"
     style="fill:none;stroke:#212830;stroke-width:1.16999996px;stroke-linecap:square;stroke-linejoin:miter;stroke-miterlimit:10;stroke-dasharray:none;stroke-opacity:1" />
  <path
     transform="scale(0.28222222,0.28222222)"
     id="path216"
     d="m 328.5,58.5 0,0 2.97,-0.72"
     clip-path="url(#clipEmfPath1)"
     style="fill:none;stroke:#212830;stroke-width:1.16999996px;stroke-linecap:square;stroke-linejoin:miter;stroke-miterlimit:10;stroke-dasharray:none;stroke-opacity:1" />
  <path
     transform="scale(0.28222222,0.28222222)"
     id="path218"
     d="m 328.5,58.5 0,0 2.97,-0.72"
     clip-path="url(#clipEmfPath1)"
     style="fill:none;stroke:#212830;stroke-width:1.16999996px;stroke-linecap:square;stroke-linejoin:miter;stroke-miterlimit:10;stroke-dasharray:none;stroke-opacity:1" />
  <path
     transform="scale(0.28222222,0.28222222)"
     id="path220"
     d="m 331.47,57.78 0,0 -2.97,0.72"
     clip-path="url(#clipEmfPath1)"
     style="fill:none;stroke:#212830;stroke-width:1.16999996px;stroke-linecap:square;stroke-linejoin:miter;stroke-miterlimit:10;stroke-dasharray:none;stroke-opacity:1" />
  <path
     transform="scale(0.28222222,0.28222222)"
     id="path222"
     d="m 331.47,57.78 0,0 -2.97,0.72"
     clip-path="url(#clipEmfPath1)"
     style="fill:none;stroke:#212830;stroke-width:1.16999996px;stroke-linecap:square;stroke-linejoin:miter;stroke-miterlimit:10;stroke-dasharray:none;stroke-opacity:1" />
  <path
     transform="scale(0.28222222,0.28222222)"
     id="path224"
     d="m 331.47,57.78 0,0 -2.97,0.72"
     clip-path="url(#clipEmfPath1)"
     style="fill:none;stroke:#212830;stroke-width:1.16999996px;stroke-linecap:square;stroke-linejoin:miter;stroke-miterlimit:10;stroke-dasharray:none;stroke-opacity:1" />
  <path
     transform="scale(0.28222222,0.28222222)"
     id="path226"
     d="m 323.19,60.03 0,0 5.31,-1.53"
     clip-path="url(#clipEmfPath1)"
     style="fill:none;stroke:#212830;stroke-width:1.16999996px;stroke-linecap:square;stroke-linejoin:miter;stroke-miterlimit:10;stroke-dasharray:none;stroke-opacity:1" />
  <path
     transform="scale(0.28222222,0.28222222)"
     id="path228"
     d="m 325.44,57.78 0,0 -5.31,1.53"
     clip-path="url(#clipEmfPath1)"
     style="fill:none;stroke:#212830;stroke-width:1.16999996px;stroke-linecap:square;stroke-linejoin:miter;stroke-miterlimit:10;stroke-dasharray:none;stroke-opacity:1" />
  <path
     transform="scale(0.28222222,0.28222222)"
     id="path230"
     d="m 320.13,60.84 0,0 -2.97,-0.81"
     clip-path="url(#clipEmfPath1)"
     style="fill:none;stroke:#212830;stroke-width:1.16999996px;stroke-linecap:square;stroke-linejoin:miter;stroke-miterlimit:10;stroke-dasharray:none;stroke-opacity:1" />
  <path
     transform="scale(0.28222222,0.28222222)"
     id="path232"
     d="m 320.13,59.31 0,0 5.31,-1.53"
     clip-path="url(#clipEmfPath1)"
     style="fill:none;stroke:#212830;stroke-width:1.16999996px;stroke-linecap:square;stroke-linejoin:miter;stroke-miterlimit:10;stroke-dasharray:none;stroke-opacity:1" />
  <path
     transform="scale(0.28222222,0.28222222)"
     id="path234"
     d="m 320.13,60.84 0,0 0,446.85"
     clip-path="url(#clipEmfPath1)"
     style="fill:none;stroke:#212830;stroke-width:1.16999996px;stroke-linecap:square;stroke-linejoin:miter;stroke-miterlimit:10;stroke-dasharray:none;stroke-opacity:1" />
  <path
     transform="scale(0.28222222,0.28222222)"
     id="path236"
     d="m 317.16,60.03 0,0 2.97,0.81"
     clip-path="url(#clipEmfPath1)"
     style="fill:none;stroke:#212830;stroke-width:1.16999996px;stroke-linecap:square;stroke-linejoin:miter;stroke-miterlimit:10;stroke-dasharray:none;stroke-opacity:1" />
  <path
     transform="scale(0.28222222,0.28222222)"
     id="path238"
     d="m 320.13,507.69 0,0 -2.97,-0.81"
     clip-path="url(#clipEmfPath1)"
     style="fill:none;stroke:#212830;stroke-width:1.16999996px;stroke-linecap:square;stroke-linejoin:miter;stroke-miterlimit:10;stroke-dasharray:none;stroke-opacity:1" />
  <path
     transform="scale(0.28222222,0.28222222)"
     id="path240"
     d="m 323.19,60.03 0,0 5.31,-1.53"
     clip-path="url(#clipEmfPath1)"
     style="fill:none;stroke:#212830;stroke-width:1.16999996px;stroke-linecap:square;stroke-linejoin:miter;stroke-miterlimit:10;stroke-dasharray:none;stroke-opacity:1" />
  <path
     transform="scale(0.28222222,0.28222222)"
     id="path242"
     d="m 320.13,60.84 0,0 -2.97,-0.81"
     clip-path="url(#clipEmfPath1)"
     style="fill:none;stroke:#212830;stroke-width:1.16999996px;stroke-linecap:square;stroke-linejoin:miter;stroke-miterlimit:10;stroke-dasharray:none;stroke-opacity:1" />
  <path
     transform="scale(0.28222222,0.28222222)"
     id="path244"
     d="m 317.16,506.88 0,0 2.97,0.81"
     clip-path="url(#clipEmfPath1)"
     style="fill:none;stroke:#212830;stroke-width:1.16999996px;stroke-linecap:square;stroke-linejoin:miter;stroke-miterlimit:10;stroke-dasharray:none;stroke-opacity:1" />
  <path
     transform="scale(0.28222222,0.28222222)"
     id="path246"
     d="m 325.44,57.78 0,0 -5.31,1.53"
     clip-path="url(#clipEmfPath1)"
     style="fill:none;stroke:#212830;stroke-width:1.16999996px;stroke-linecap:square;stroke-linejoin:miter;stroke-miterlimit:10;stroke-dasharray:none;stroke-opacity:1" />
  <path
     transform="scale(0.28222222,0.28222222)"
     id="path248"
     d="m 320.13,507.69 0,0 3.06,0.72"
     clip-path="url(#clipEmfPath1)"
     style="fill:none;stroke:#212830;stroke-width:1.16999996px;stroke-linecap:square;stroke-linejoin:miter;stroke-miterlimit:10;stroke-dasharray:none;stroke-opacity:1" />
  <path
     transform="scale(0.28222222,0.28222222)"
     id="path250"
     d="m 333.81,58.5 0,0 -2.34,-0.72"
     clip-path="url(#clipEmfPath1)"
     style="fill:none;stroke:#212830;stroke-width:1.16999996px;stroke-linecap:square;stroke-linejoin:miter;stroke-miterlimit:10;stroke-dasharray:none;stroke-opacity:1" />
  <path
     transform="scale(0.28222222,0.28222222)"
     id="path252"
     d="m 331.47,57.78 0,0 2.34,0.72"
     clip-path="url(#clipEmfPath1)"
     style="fill:none;stroke:#212830;stroke-width:1.16999996px;stroke-linecap:square;stroke-linejoin:miter;stroke-miterlimit:10;stroke-dasharray:none;stroke-opacity:1" />
  <path
     transform="scale(0.28222222,0.28222222)"
     id="path254"
     d="m 323.19,61.56 0,0 -3.06,-0.72"
     clip-path="url(#clipEmfPath1)"
     style="fill:none;stroke:#212830;stroke-width:1.16999996px;stroke-linecap:square;stroke-linejoin:miter;stroke-miterlimit:10;stroke-dasharray:none;stroke-opacity:1" />
  <path
     transform="scale(0.28222222,0.28222222)"
     id="path256"
     d="m 323.19,60.03 0,0 5.31,-1.53"
     clip-path="url(#clipEmfPath1)"
     style="fill:none;stroke:#212830;stroke-width:1.16999996px;stroke-linecap:square;stroke-linejoin:miter;stroke-miterlimit:10;stroke-dasharray:none;stroke-opacity:1" />
  <path
     transform="scale(0.28222222,0.28222222)"
     id="path258"
     d="m 323.19,508.41 0,0 -3.06,-0.72"
     clip-path="url(#clipEmfPath1)"
     style="fill:none;stroke:#212830;stroke-width:1.16999996px;stroke-linecap:square;stroke-linejoin:miter;stroke-miterlimit:10;stroke-dasharray:none;stroke-opacity:1" />
  <path
     transform="scale(0.28222222,0.28222222)"
     id="path260"
     d="m 320.13,60.84 0,0 3.06,0.72"
     clip-path="url(#clipEmfPath1)"
     style="fill:none;stroke:#212830;stroke-width:1.16999996px;stroke-linecap:square;stroke-linejoin:miter;stroke-miterlimit:10;stroke-dasharray:none;stroke-opacity:1" />
  <path
     transform="scale(0.28222222,0.28222222)"
     id="path262"
     d="m 333.81,505.35 0,0 -10.62,3.06 0,-446.85"
     clip-path="url(#clipEmfPath1)"
     style="fill:none;stroke:#212830;stroke-width:1.16999996px;stroke-linecap:square;stroke-linejoin:miter;stroke-miterlimit:10;stroke-dasharray:none;stroke-opacity:1" />
  <path
     transform="scale(0.28222222,0.28222222)"
     id="path264"
     d="m 333.81,58.5 0,0 0,446.85"
     clip-path="url(#clipEmfPath1)"
     style="fill:none;stroke:#212830;stroke-width:1.16999996px;stroke-linecap:square;stroke-linejoin:miter;stroke-miterlimit:10;stroke-dasharray:none;stroke-opacity:1" />
  <path
     transform="scale(0.28222222,0.28222222)"
     id="path266"
     d="m 328.5,58.5 0,0 -5.31,1.53"
     clip-path="url(#clipEmfPath1)"
     style="fill:none;stroke:#212830;stroke-width:1.16999996px;stroke-linecap:square;stroke-linejoin:miter;stroke-miterlimit:10;stroke-dasharray:none;stroke-opacity:1" />
  <path
     transform="scale(0.28222222,0.28222222)"
     id="path268"
     d="m 333.81,505.35 0,0 0,-446.85"
     clip-path="url(#clipEmfPath1)"
     style="fill:none;stroke:#212830;stroke-width:1.16999996px;stroke-linecap:square;stroke-linejoin:miter;stroke-miterlimit:10;stroke-dasharray:none;stroke-opacity:1" />
  <path
     transform="scale(0.28222222,0.28222222)"
     id="path270"
     d="m 333.81,58.5 0,0 -2.34,-0.72"
     clip-path="url(#clipEmfPath1)"
     style="fill:none;stroke:#212830;stroke-width:1.16999996px;stroke-linecap:square;stroke-linejoin:miter;stroke-miterlimit:10;stroke-dasharray:none;stroke-opacity:1" />
  <path
     transform="scale(0.28222222,0.28222222)"
     id="path272"
     d="m 323.19,61.56 0,0 10.62,-3.06"
     clip-path="url(#clipEmfPath1)"
     style="fill:none;stroke:#212830;stroke-width:1.16999996px;stroke-linecap:square;stroke-linejoin:miter;stroke-miterlimit:10;stroke-dasharray:none;stroke-opacity:1" />
  <path
     transform="scale(0.28222222,0.28222222)"
     id="path274"
     d="m 328.5,58.5 0,0 -5.31,1.53"
     clip-path="url(#clipEmfPath1)"
     style="fill:none;stroke:#212830;stroke-width:1.16999996px;stroke-linecap:square;stroke-linejoin:miter;stroke-miterlimit:10;stroke-dasharray:none;stroke-opacity:1" />
  <path
     transform="scale(0.28222222,0.28222222)"
     id="path276"
     d="m 323.19,61.56 0,0 -3.06,-0.72"
     clip-path="url(#clipEmfPath1)"
     style="fill:none;stroke:#212830;stroke-width:1.16999996px;stroke-linecap:square;stroke-linejoin:miter;stroke-miterlimit:10;stroke-dasharray:none;stroke-opacity:1" />
  <path
     transform="scale(0.28222222,0.28222222)"
     id="path278"
     d="m 323.19,508.41 0,0 0,-446.85"
     clip-path="url(#clipEmfPath1)"
     style="fill:none;stroke:#212830;stroke-width:1.16999996px;stroke-linecap:square;stroke-linejoin:miter;stroke-miterlimit:10;stroke-dasharray:none;stroke-opacity:1" />
  <path
     transform="scale(0.28222222,0.28222222)"
     id="path280"
     d="m 323.19,508.41 0,0 10.62,-3.06"
     clip-path="url(#clipEmfPath1)"
     style="fill:none;stroke:#212830;stroke-width:1.16999996px;stroke-linecap:square;stroke-linejoin:miter;stroke-miterlimit:10;stroke-dasharray:none;stroke-opacity:1" />
  <path
     transform="scale(0.28222222,0.28222222)"
     id="path282"
     d="m 320.13,507.69 0,0 3.06,0.72"
     clip-path="url(#clipEmfPath1)"
     style="fill:none;stroke:#212830;stroke-width:1.16999996px;stroke-linecap:square;stroke-linejoin:miter;stroke-miterlimit:10;stroke-dasharray:none;stroke-opacity:1" />
</svg>
