<?xml version="1.0" encoding="UTF-8" standalone="no"?>
<svg
   xmlns:dc="http://purl.org/dc/elements/1.1/"
   xmlns:cc="http://creativecommons.org/ns#"
   xmlns:rdf="http://www.w3.org/1999/02/22-rdf-syntax-ns#"
   xmlns:svg="http://www.w3.org/2000/svg"
   xmlns="http://www.w3.org/2000/svg"
   viewBox="0 0 158.75999 158.75999"
   id="svg2"
   height="158.75999mm"
   width="158.75999mm"
   version="1.0">
  <metadata
     id="metadata158">
    <rdf:RDF>
      <cc:Work
         rdf:about="">
        <dc:format>image/svg+xml</dc:format>
        <dc:type
           rdf:resource="http://purl.org/dc/dcmitype/StillImage" />
      </cc:Work>
    </rdf:RDF>
  </metadata>
  <defs
     id="defs4">
    <clipPath
       id="clipEmfPath1"
       clipPathUnits="userSpaceOnUse">
      <path
         id="path7"
         d="m 0,0 0,0 0,563.58 563.58,0 0,-563.58" />
    </clipPath>
    <pattern
       y="0"
       x="0"
       height="6"
       width="6"
       patternUnits="userSpaceOnUse"
       id="EMFhbasepattern" />
  </defs>
  <path
     id="path10"
     d="m 0,0 158.39722,0 0,158.39722 -158.39722,0 z"
     style="fill:#ffffff;fill-opacity:1;fill-rule:evenodd;stroke:none" />
  <path
     id="path12"
     d=""
     clip-path="url(#clipEmfPath1)"
     style="fill:none;stroke:#000000;stroke-width:1px;stroke-linecap:butt;stroke-linejoin:miter;stroke-miterlimit:4;stroke-dasharray:none;stroke-opacity:1" />
  <path
     transform="scale(0.28222222,0.28222222)"
     id="path14"
     d="m 254.97,382.95 0,0 -0.63,0 0,-1.26 0.63,0 0,0 0.63,0 0,1.26 -0.63,0 0,0 z"
     clip-path="url(#clipEmfPath1)"
     style="fill:#212830;fill-opacity:1;fill-rule:nonzero;stroke:#212830;stroke-width:0.09px;stroke-linecap:round;stroke-linejoin:round;stroke-miterlimit:4;stroke-dasharray:none;stroke-opacity:1" />
  <path
     transform="scale(0.28222222,0.28222222)"
     id="path16"
     d="m 254.97,382.95 0,0 -0.63,0 0,-1.26 0.63,0 0,0 0.63,0 0,1.26 -0.63,0 0,0 z"
     clip-path="url(#clipEmfPath1)"
     style="fill:#212830;fill-opacity:1;fill-rule:nonzero;stroke:#212830;stroke-width:0.09px;stroke-linecap:round;stroke-linejoin:round;stroke-miterlimit:4;stroke-dasharray:none;stroke-opacity:1" />
  <path
     transform="scale(0.28222222,0.28222222)"
     id="path18"
     d="m 254.25,382.95 0,0 -0.63,0 0,-1.26 0.63,0 0,0 0.63,0 0,1.26 -0.63,0 0,0 z"
     clip-path="url(#clipEmfPath1)"
     style="fill:#212830;fill-opacity:1;fill-rule:nonzero;stroke:#212830;stroke-width:0.09px;stroke-linecap:round;stroke-linejoin:round;stroke-miterlimit:4;stroke-dasharray:none;stroke-opacity:1" />
  <path
     transform="scale(0.28222222,0.28222222)"
     id="path20"
     d="m 254.25,382.95 0,0 -0.63,0 0,-1.26 0.63,0 0,0 0.63,0 0,1.26 -0.63,0 0,0 z"
     clip-path="url(#clipEmfPath1)"
     style="fill:#212830;fill-opacity:1;fill-rule:nonzero;stroke:#212830;stroke-width:0.09px;stroke-linecap:round;stroke-linejoin:round;stroke-miterlimit:4;stroke-dasharray:none;stroke-opacity:1" />
  <path
     transform="scale(0.28222222,0.28222222)"
     id="path22"
     d="m 250.29,198.72 0,0 -0.63,0 0,-1.26 0.63,0 0,0 0.63,0 0,1.26 -0.63,0 0,0 z"
     clip-path="url(#clipEmfPath1)"
     style="fill:#212830;fill-opacity:1;fill-rule:nonzero;stroke:#212830;stroke-width:0.09px;stroke-linecap:round;stroke-linejoin:round;stroke-miterlimit:4;stroke-dasharray:none;stroke-opacity:1" />
  <path
     transform="scale(0.28222222,0.28222222)"
     id="path24"
     d="m 250.29,198.72 0,0 -0.63,0 0,-1.26 0.63,0 0,0 0.63,0 0,1.26 -0.63,0 0,0 z"
     clip-path="url(#clipEmfPath1)"
     style="fill:#212830;fill-opacity:1;fill-rule:nonzero;stroke:#212830;stroke-width:0.09px;stroke-linecap:round;stroke-linejoin:round;stroke-miterlimit:4;stroke-dasharray:none;stroke-opacity:1" />
  <path
     transform="scale(0.28222222,0.28222222)"
     id="path26"
     d="m 328.05,180.72 0,0 -0.63,0 0,-1.26 0.63,0 0,0 0.63,0 0,1.26 -0.63,0 0,0 z"
     clip-path="url(#clipEmfPath1)"
     style="fill:#212830;fill-opacity:1;fill-rule:nonzero;stroke:#212830;stroke-width:0.09px;stroke-linecap:round;stroke-linejoin:round;stroke-miterlimit:4;stroke-dasharray:none;stroke-opacity:1" />
  <path
     transform="scale(0.28222222,0.28222222)"
     id="path28"
     d="m 328.05,180.72 0,0 -0.63,0 0,-1.26 0.63,0 0,0 0.63,0 0,1.26 -0.63,0 0,0 z"
     clip-path="url(#clipEmfPath1)"
     style="fill:#212830;fill-opacity:1;fill-rule:nonzero;stroke:#212830;stroke-width:0.09px;stroke-linecap:round;stroke-linejoin:round;stroke-miterlimit:4;stroke-dasharray:none;stroke-opacity:1" />
  <path
     transform="scale(0.28222222,0.28222222)"
     id="path30"
     d="m 254.97,199.44 0,0 0,182.88"
     clip-path="url(#clipEmfPath1)"
     style="fill:none;stroke:#212830;stroke-width:1.16999996px;stroke-linecap:square;stroke-linejoin:miter;stroke-miterlimit:10;stroke-dasharray:none;stroke-opacity:1" />
  <path
     transform="scale(0.28222222,0.28222222)"
     id="path32"
     d="m 328.05,180.09 0,0 -73.08,19.35"
     clip-path="url(#clipEmfPath1)"
     style="fill:none;stroke:#212830;stroke-width:1.16999996px;stroke-linecap:square;stroke-linejoin:miter;stroke-miterlimit:10;stroke-dasharray:none;stroke-opacity:1" />
  <path
     transform="scale(0.28222222,0.28222222)"
     id="path34"
     d="m 254.97,382.32 0,0 73.08,-18.63"
     clip-path="url(#clipEmfPath1)"
     style="fill:none;stroke:#212830;stroke-width:1.16999996px;stroke-linecap:square;stroke-linejoin:miter;stroke-miterlimit:10;stroke-dasharray:none;stroke-opacity:1" />
  <path
     transform="scale(0.28222222,0.28222222)"
     id="path36"
     d="m 328.05,363.69 0,0 -73.08,18.63"
     clip-path="url(#clipEmfPath1)"
     style="fill:none;stroke:#212830;stroke-width:1.16999996px;stroke-linecap:square;stroke-linejoin:miter;stroke-miterlimit:10;stroke-dasharray:none;stroke-opacity:1" />
  <path
     transform="scale(0.28222222,0.28222222)"
     id="path38"
     d="m 328.05,180.09 0,0 0,183.6"
     clip-path="url(#clipEmfPath1)"
     style="fill:none;stroke:#212830;stroke-width:1.16999996px;stroke-linecap:square;stroke-linejoin:miter;stroke-miterlimit:10;stroke-dasharray:none;stroke-opacity:1" />
  <path
     transform="scale(0.28222222,0.28222222)"
     id="path40"
     d="m 254.97,382.32 0,0 0,-182.88"
     clip-path="url(#clipEmfPath1)"
     style="fill:none;stroke:#212830;stroke-width:1.16999996px;stroke-linecap:square;stroke-linejoin:miter;stroke-miterlimit:10;stroke-dasharray:none;stroke-opacity:1" />
  <path
     transform="scale(0.28222222,0.28222222)"
     id="path42"
     d="m 328.05,363.69 0,0 -73.08,18.63"
     clip-path="url(#clipEmfPath1)"
     style="fill:none;stroke:#212830;stroke-width:1.16999996px;stroke-linecap:square;stroke-linejoin:miter;stroke-miterlimit:10;stroke-dasharray:none;stroke-opacity:1" />
  <path
     transform="scale(0.28222222,0.28222222)"
     id="path44"
     d="m 328.05,180.09 0,0 0,183.6"
     clip-path="url(#clipEmfPath1)"
     style="fill:none;stroke:#212830;stroke-width:1.16999996px;stroke-linecap:square;stroke-linejoin:miter;stroke-miterlimit:10;stroke-dasharray:none;stroke-opacity:1" />
  <path
     transform="scale(0.28222222,0.28222222)"
     id="path46"
     d="m 254.97,199.44 0,0 73.08,-19.35"
     clip-path="url(#clipEmfPath1)"
     style="fill:none;stroke:#212830;stroke-width:1.16999996px;stroke-linecap:square;stroke-linejoin:miter;stroke-miterlimit:10;stroke-dasharray:none;stroke-opacity:1" />
  <path
     transform="scale(0.28222222,0.28222222)"
     id="path48"
     d="m 254.97,382.32 0,0 73.08,-18.63"
     clip-path="url(#clipEmfPath1)"
     style="fill:none;stroke:#212830;stroke-width:1.16999996px;stroke-linecap:square;stroke-linejoin:miter;stroke-miterlimit:10;stroke-dasharray:none;stroke-opacity:1" />
  <path
     transform="scale(0.28222222,0.28222222)"
     id="path50"
     d="m 254.97,382.32 0,0 73.08,-18.63"
     clip-path="url(#clipEmfPath1)"
     style="fill:none;stroke:#212830;stroke-width:1.16999996px;stroke-linecap:square;stroke-linejoin:miter;stroke-miterlimit:10;stroke-dasharray:none;stroke-opacity:1" />
  <path
     transform="scale(0.28222222,0.28222222)"
     id="path52"
     d="m 328.05,363.69 0,0 -73.08,18.63"
     clip-path="url(#clipEmfPath1)"
     style="fill:none;stroke:#212830;stroke-width:1.16999996px;stroke-linecap:square;stroke-linejoin:miter;stroke-miterlimit:10;stroke-dasharray:none;stroke-opacity:1" />
  <path
     transform="scale(0.28222222,0.28222222)"
     id="path54"
     d="m 250.29,198.09 0,0 3.96,0.63"
     clip-path="url(#clipEmfPath1)"
     style="fill:none;stroke:#212830;stroke-width:1.16999996px;stroke-linecap:square;stroke-linejoin:miter;stroke-miterlimit:10;stroke-dasharray:none;stroke-opacity:1" />
  <path
     transform="scale(0.28222222,0.28222222)"
     id="path56"
     d="m 250.29,198.09 0,0 4.68,0.63 0,183.6"
     clip-path="url(#clipEmfPath1)"
     style="fill:none;stroke:#212830;stroke-width:1.16999996px;stroke-linecap:square;stroke-linejoin:miter;stroke-miterlimit:10;stroke-dasharray:none;stroke-opacity:1" />
  <path
     transform="scale(0.28222222,0.28222222)"
     id="path58"
     d="m 254.25,198.72 0,0 0.72,0 -4.68,-0.63"
     clip-path="url(#clipEmfPath1)"
     style="fill:none;stroke:#212830;stroke-width:1.16999996px;stroke-linecap:square;stroke-linejoin:miter;stroke-miterlimit:10;stroke-dasharray:none;stroke-opacity:1" />
  <path
     transform="scale(0.28222222,0.28222222)"
     id="path60"
     d="m 254.25,198.72 0,0 0,183.6"
     clip-path="url(#clipEmfPath1)"
     style="fill:none;stroke:#212830;stroke-width:1.16999996px;stroke-linecap:square;stroke-linejoin:miter;stroke-miterlimit:10;stroke-dasharray:none;stroke-opacity:1" />
  <path
     transform="scale(0.28222222,0.28222222)"
     id="path62"
     d="m 254.97,198.72 0,0 -0.72,0"
     clip-path="url(#clipEmfPath1)"
     style="fill:none;stroke:#212830;stroke-width:1.16999996px;stroke-linecap:square;stroke-linejoin:miter;stroke-miterlimit:10;stroke-dasharray:none;stroke-opacity:1" />
  <path
     transform="scale(0.28222222,0.28222222)"
     id="path64"
     d="m 254.25,382.32 0,0 0.72,0"
     clip-path="url(#clipEmfPath1)"
     style="fill:none;stroke:#212830;stroke-width:1.16999996px;stroke-linecap:square;stroke-linejoin:miter;stroke-miterlimit:10;stroke-dasharray:none;stroke-opacity:1" />
  <path
     transform="scale(0.28222222,0.28222222)"
     id="path66"
     d="m 250.29,198.09 0,0 3.96,0.63 0,183.6"
     clip-path="url(#clipEmfPath1)"
     style="fill:none;stroke:#212830;stroke-width:1.16999996px;stroke-linecap:square;stroke-linejoin:miter;stroke-miterlimit:10;stroke-dasharray:none;stroke-opacity:1" />
  <path
     transform="scale(0.28222222,0.28222222)"
     id="path68"
     d="m 254.25,198.72 0,0 0.72,0"
     clip-path="url(#clipEmfPath1)"
     style="fill:none;stroke:#212830;stroke-width:1.16999996px;stroke-linecap:square;stroke-linejoin:miter;stroke-miterlimit:10;stroke-dasharray:none;stroke-opacity:1" />
  <path
     transform="scale(0.28222222,0.28222222)"
     id="path70"
     d="m 254.25,382.32 0,0 0.72,0 0,-183.6"
     clip-path="url(#clipEmfPath1)"
     style="fill:none;stroke:#212830;stroke-width:1.16999996px;stroke-linecap:square;stroke-linejoin:miter;stroke-miterlimit:10;stroke-dasharray:none;stroke-opacity:1" />
  <path
     transform="scale(0.28222222,0.28222222)"
     id="path72"
     d="m 250.29,198.09 0,0 4.68,0.63"
     clip-path="url(#clipEmfPath1)"
     style="fill:none;stroke:#212830;stroke-width:1.16999996px;stroke-linecap:square;stroke-linejoin:miter;stroke-miterlimit:10;stroke-dasharray:none;stroke-opacity:1" />
  <path
     transform="scale(0.28222222,0.28222222)"
     id="path74"
     d="m 323.46,179.46 0,0 -73.17,18.63"
     clip-path="url(#clipEmfPath1)"
     style="fill:none;stroke:#212830;stroke-width:1.16999996px;stroke-linecap:square;stroke-linejoin:miter;stroke-miterlimit:10;stroke-dasharray:none;stroke-opacity:1" />
  <path
     transform="scale(0.28222222,0.28222222)"
     id="path76"
     d="m 328.05,180.09 0,0 -4.59,-0.63"
     clip-path="url(#clipEmfPath1)"
     style="fill:none;stroke:#212830;stroke-width:1.16999996px;stroke-linecap:square;stroke-linejoin:miter;stroke-miterlimit:10;stroke-dasharray:none;stroke-opacity:1" />
  <path
     transform="scale(0.28222222,0.28222222)"
     id="path78"
     d="m 328.05,180.09 0,0 -73.08,19.35"
     clip-path="url(#clipEmfPath1)"
     style="fill:none;stroke:#212830;stroke-width:1.16999996px;stroke-linecap:square;stroke-linejoin:miter;stroke-miterlimit:10;stroke-dasharray:none;stroke-opacity:1" />
  <path
     transform="scale(0.28222222,0.28222222)"
     id="path80"
     d="m 254.97,198.72 0,0 -4.68,-0.63"
     clip-path="url(#clipEmfPath1)"
     style="fill:none;stroke:#212830;stroke-width:1.16999996px;stroke-linecap:square;stroke-linejoin:miter;stroke-miterlimit:10;stroke-dasharray:none;stroke-opacity:1" />
  <path
     transform="scale(0.28222222,0.28222222)"
     id="path82"
     d="m 254.97,198.72 0,0 0,0.72"
     clip-path="url(#clipEmfPath1)"
     style="fill:none;stroke:#212830;stroke-width:1.16999996px;stroke-linecap:square;stroke-linejoin:miter;stroke-miterlimit:10;stroke-dasharray:none;stroke-opacity:1" />
  <path
     transform="scale(0.28222222,0.28222222)"
     id="path84"
     d="m 328.05,180.09 0,0 -73.08,18.63"
     clip-path="url(#clipEmfPath1)"
     style="fill:none;stroke:#212830;stroke-width:1.16999996px;stroke-linecap:square;stroke-linejoin:miter;stroke-miterlimit:10;stroke-dasharray:none;stroke-opacity:1" />
  <path
     transform="scale(0.28222222,0.28222222)"
     id="path86"
     d="m 254.97,199.44 0,0 0,-0.72"
     clip-path="url(#clipEmfPath1)"
     style="fill:none;stroke:#212830;stroke-width:1.16999996px;stroke-linecap:square;stroke-linejoin:miter;stroke-miterlimit:10;stroke-dasharray:none;stroke-opacity:1" />
  <path
     transform="scale(0.28222222,0.28222222)"
     id="path88"
     d="m 250.29,198.09 0,0 73.17,-18.63"
     clip-path="url(#clipEmfPath1)"
     style="fill:none;stroke:#212830;stroke-width:1.16999996px;stroke-linecap:square;stroke-linejoin:miter;stroke-miterlimit:10;stroke-dasharray:none;stroke-opacity:1" />
  <path
     transform="scale(0.28222222,0.28222222)"
     id="path90"
     d="m 254.97,198.72 0,0 -4.68,-0.63"
     clip-path="url(#clipEmfPath1)"
     style="fill:none;stroke:#212830;stroke-width:1.16999996px;stroke-linecap:square;stroke-linejoin:miter;stroke-miterlimit:10;stroke-dasharray:none;stroke-opacity:1" />
  <path
     transform="scale(0.28222222,0.28222222)"
     id="path92"
     d="m 328.05,180.09 0,0 -73.08,18.63"
     clip-path="url(#clipEmfPath1)"
     style="fill:none;stroke:#212830;stroke-width:1.16999996px;stroke-linecap:square;stroke-linejoin:miter;stroke-miterlimit:10;stroke-dasharray:none;stroke-opacity:1" />
  <path
     transform="scale(0.28222222,0.28222222)"
     id="path94"
     d="m 323.46,179.46 0,0 4.59,0.63"
     clip-path="url(#clipEmfPath1)"
     style="fill:none;stroke:#212830;stroke-width:1.16999996px;stroke-linecap:square;stroke-linejoin:miter;stroke-miterlimit:10;stroke-dasharray:none;stroke-opacity:1" />
  <path
     transform="scale(0.28222222,0.28222222)"
     id="path96"
     d="m 250.29,198.09 0,0 -11.34,-2.7"
     clip-path="url(#clipEmfPath1)"
     style="fill:none;stroke:#212830;stroke-width:1.16999996px;stroke-linecap:square;stroke-linejoin:miter;stroke-miterlimit:10;stroke-dasharray:none;stroke-opacity:1" />
  <path
     transform="scale(0.28222222,0.28222222)"
     id="path98"
     d="m 243.63,194.04 0,0 10.62,2.7"
     clip-path="url(#clipEmfPath1)"
     style="fill:none;stroke:#212830;stroke-width:1.16999996px;stroke-linecap:square;stroke-linejoin:miter;stroke-miterlimit:10;stroke-dasharray:none;stroke-opacity:1" />
  <path
     transform="scale(0.28222222,0.28222222)"
     id="path100"
     d="m 238.95,195.39 0,0 4.68,-1.35"
     clip-path="url(#clipEmfPath1)"
     style="fill:none;stroke:#212830;stroke-width:1.16999996px;stroke-linecap:square;stroke-linejoin:miter;stroke-miterlimit:10;stroke-dasharray:none;stroke-opacity:1" />
  <path
     transform="scale(0.28222222,0.28222222)"
     id="path102"
     d="m 243.63,194.04 0,0 -4.68,1.35"
     clip-path="url(#clipEmfPath1)"
     style="fill:none;stroke:#212830;stroke-width:1.16999996px;stroke-linecap:square;stroke-linejoin:miter;stroke-miterlimit:10;stroke-dasharray:none;stroke-opacity:1" />
  <path
     transform="scale(0.28222222,0.28222222)"
     id="path104"
     d="m 254.97,199.44 0,0 3.96,-1.35"
     clip-path="url(#clipEmfPath1)"
     style="fill:none;stroke:#212830;stroke-width:1.16999996px;stroke-linecap:square;stroke-linejoin:miter;stroke-miterlimit:10;stroke-dasharray:none;stroke-opacity:1" />
  <path
     transform="scale(0.28222222,0.28222222)"
     id="path106"
     d="m 254.25,196.74 0,0 -10.62,-2.7"
     clip-path="url(#clipEmfPath1)"
     style="fill:none;stroke:#212830;stroke-width:1.16999996px;stroke-linecap:square;stroke-linejoin:miter;stroke-miterlimit:10;stroke-dasharray:none;stroke-opacity:1" />
  <path
     transform="scale(0.28222222,0.28222222)"
     id="path108"
     d="m 254.97,199.44 0,0 0,176.94"
     clip-path="url(#clipEmfPath1)"
     style="fill:none;stroke:#212830;stroke-width:1.16999996px;stroke-linecap:square;stroke-linejoin:miter;stroke-miterlimit:10;stroke-dasharray:none;stroke-opacity:1" />
  <path
     transform="scale(0.28222222,0.28222222)"
     id="path110"
     d="m 258.93,198.09 0,0 -3.96,1.35"
     clip-path="url(#clipEmfPath1)"
     style="fill:none;stroke:#212830;stroke-width:1.16999996px;stroke-linecap:square;stroke-linejoin:miter;stroke-miterlimit:10;stroke-dasharray:none;stroke-opacity:1" />
  <path
     transform="scale(0.28222222,0.28222222)"
     id="path112"
     d="m 238.95,195.39 0,0 4.68,-1.35"
     clip-path="url(#clipEmfPath1)"
     style="fill:none;stroke:#212830;stroke-width:1.16999996px;stroke-linecap:square;stroke-linejoin:miter;stroke-miterlimit:10;stroke-dasharray:none;stroke-opacity:1" />
  <path
     transform="scale(0.28222222,0.28222222)"
     id="path114"
     d="m 250.29,198.09 0,0 -11.34,-2.7"
     clip-path="url(#clipEmfPath1)"
     style="fill:none;stroke:#212830;stroke-width:1.16999996px;stroke-linecap:square;stroke-linejoin:miter;stroke-miterlimit:10;stroke-dasharray:none;stroke-opacity:1" />
  <path
     transform="scale(0.28222222,0.28222222)"
     id="path116"
     d="m 254.97,376.38 0,0 0,-176.94 3.96,-1.35"
     clip-path="url(#clipEmfPath1)"
     style="fill:none;stroke:#212830;stroke-width:1.16999996px;stroke-linecap:square;stroke-linejoin:miter;stroke-miterlimit:10;stroke-dasharray:none;stroke-opacity:1" />
  <path
     transform="scale(0.28222222,0.28222222)"
     id="path118"
     d="m 243.63,194.04 0,0 10.62,2.7"
     clip-path="url(#clipEmfPath1)"
     style="fill:none;stroke:#212830;stroke-width:1.16999996px;stroke-linecap:square;stroke-linejoin:miter;stroke-miterlimit:10;stroke-dasharray:none;stroke-opacity:1" />
  <path
     transform="scale(0.28222222,0.28222222)"
     id="path120"
     d="m 254.25,382.32 0,0 -3.96,0.63"
     clip-path="url(#clipEmfPath1)"
     style="fill:none;stroke:#212830;stroke-width:1.16999996px;stroke-linecap:square;stroke-linejoin:miter;stroke-miterlimit:10;stroke-dasharray:none;stroke-opacity:1" />
  <path
     transform="scale(0.28222222,0.28222222)"
     id="path122"
     d="m 234.36,196.11 0,0 3.96,-1.35"
     clip-path="url(#clipEmfPath1)"
     style="fill:none;stroke:#212830;stroke-width:1.16999996px;stroke-linecap:square;stroke-linejoin:miter;stroke-miterlimit:10;stroke-dasharray:none;stroke-opacity:1" />
  <path
     transform="scale(0.28222222,0.28222222)"
     id="path124"
     d="m 238.32,194.76 0,0 -3.96,1.35"
     clip-path="url(#clipEmfPath1)"
     style="fill:none;stroke:#212830;stroke-width:1.16999996px;stroke-linecap:square;stroke-linejoin:miter;stroke-miterlimit:10;stroke-dasharray:none;stroke-opacity:1" />
  <path
     transform="scale(0.28222222,0.28222222)"
     id="path126"
     d="m 250.29,200.07 0,0 3.96,-0.63"
     clip-path="url(#clipEmfPath1)"
     style="fill:none;stroke:#212830;stroke-width:1.16999996px;stroke-linecap:square;stroke-linejoin:miter;stroke-miterlimit:10;stroke-dasharray:none;stroke-opacity:1" />
  <path
     transform="scale(0.28222222,0.28222222)"
     id="path128"
     d="m 250.29,198.09 0,0 -11.97,-3.33"
     clip-path="url(#clipEmfPath1)"
     style="fill:none;stroke:#212830;stroke-width:1.16999996px;stroke-linecap:square;stroke-linejoin:miter;stroke-miterlimit:10;stroke-dasharray:none;stroke-opacity:1" />
  <path
     transform="scale(0.28222222,0.28222222)"
     id="path130"
     d="m 250.29,382.95 0,0 3.96,-0.63"
     clip-path="url(#clipEmfPath1)"
     style="fill:none;stroke:#212830;stroke-width:1.16999996px;stroke-linecap:square;stroke-linejoin:miter;stroke-miterlimit:10;stroke-dasharray:none;stroke-opacity:1" />
  <path
     transform="scale(0.28222222,0.28222222)"
     id="path132"
     d="m 254.25,199.44 0,0 -3.96,0.63"
     clip-path="url(#clipEmfPath1)"
     style="fill:none;stroke:#212830;stroke-width:1.16999996px;stroke-linecap:square;stroke-linejoin:miter;stroke-miterlimit:10;stroke-dasharray:none;stroke-opacity:1" />
  <path
     transform="scale(0.28222222,0.28222222)"
     id="path134"
     d="m 234.36,378.99 0,0 15.93,3.96 0,-182.88"
     clip-path="url(#clipEmfPath1)"
     style="fill:none;stroke:#212830;stroke-width:1.16999996px;stroke-linecap:square;stroke-linejoin:miter;stroke-miterlimit:10;stroke-dasharray:none;stroke-opacity:1" />
  <path
     transform="scale(0.28222222,0.28222222)"
     id="path136"
     d="m 234.36,196.11 0,0 0,182.88"
     clip-path="url(#clipEmfPath1)"
     style="fill:none;stroke:#212830;stroke-width:1.16999996px;stroke-linecap:square;stroke-linejoin:miter;stroke-miterlimit:10;stroke-dasharray:none;stroke-opacity:1" />
  <path
     transform="scale(0.28222222,0.28222222)"
     id="path138"
     d="m 238.32,194.76 0,0 11.97,3.33"
     clip-path="url(#clipEmfPath1)"
     style="fill:none;stroke:#212830;stroke-width:1.16999996px;stroke-linecap:square;stroke-linejoin:miter;stroke-miterlimit:10;stroke-dasharray:none;stroke-opacity:1" />
  <path
     transform="scale(0.28222222,0.28222222)"
     id="path140"
     d="m 234.36,378.99 0,0 0,-182.88"
     clip-path="url(#clipEmfPath1)"
     style="fill:none;stroke:#212830;stroke-width:1.16999996px;stroke-linecap:square;stroke-linejoin:miter;stroke-miterlimit:10;stroke-dasharray:none;stroke-opacity:1" />
  <path
     transform="scale(0.28222222,0.28222222)"
     id="path142"
     d="m 234.36,196.11 0,0 3.96,-1.35"
     clip-path="url(#clipEmfPath1)"
     style="fill:none;stroke:#212830;stroke-width:1.16999996px;stroke-linecap:square;stroke-linejoin:miter;stroke-miterlimit:10;stroke-dasharray:none;stroke-opacity:1" />
  <path
     transform="scale(0.28222222,0.28222222)"
     id="path144"
     d="m 250.29,200.07 0,0 -15.93,-3.96"
     clip-path="url(#clipEmfPath1)"
     style="fill:none;stroke:#212830;stroke-width:1.16999996px;stroke-linecap:square;stroke-linejoin:miter;stroke-miterlimit:10;stroke-dasharray:none;stroke-opacity:1" />
  <path
     transform="scale(0.28222222,0.28222222)"
     id="path146"
     d="m 238.32,194.76 0,0 11.97,3.33"
     clip-path="url(#clipEmfPath1)"
     style="fill:none;stroke:#212830;stroke-width:1.16999996px;stroke-linecap:square;stroke-linejoin:miter;stroke-miterlimit:10;stroke-dasharray:none;stroke-opacity:1" />
  <path
     transform="scale(0.28222222,0.28222222)"
     id="path148"
     d="m 250.29,200.07 0,0 3.96,-0.63"
     clip-path="url(#clipEmfPath1)"
     style="fill:none;stroke:#212830;stroke-width:1.16999996px;stroke-linecap:square;stroke-linejoin:miter;stroke-miterlimit:10;stroke-dasharray:none;stroke-opacity:1" />
  <path
     transform="scale(0.28222222,0.28222222)"
     id="path150"
     d="m 250.29,382.95 0,0 0,-182.88"
     clip-path="url(#clipEmfPath1)"
     style="fill:none;stroke:#212830;stroke-width:1.16999996px;stroke-linecap:square;stroke-linejoin:miter;stroke-miterlimit:10;stroke-dasharray:none;stroke-opacity:1" />
  <path
     transform="scale(0.28222222,0.28222222)"
     id="path152"
     d="m 250.29,382.95 0,0 -15.93,-3.96"
     clip-path="url(#clipEmfPath1)"
     style="fill:none;stroke:#212830;stroke-width:1.16999996px;stroke-linecap:square;stroke-linejoin:miter;stroke-miterlimit:10;stroke-dasharray:none;stroke-opacity:1" />
  <path
     transform="scale(0.28222222,0.28222222)"
     id="path154"
     d="m 254.25,382.32 0,0 -3.96,0.63"
     clip-path="url(#clipEmfPath1)"
     style="fill:none;stroke:#212830;stroke-width:1.16999996px;stroke-linecap:square;stroke-linejoin:miter;stroke-miterlimit:10;stroke-dasharray:none;stroke-opacity:1" />
</svg>
